<?xml version="1.0" encoding="UTF-8"?>
<!DOCTYPE svg PUBLIC "-//W3C//DTD SVG 1.1//EN" "http://www.w3.org/Graphics/SVG/1.1/DTD/svg11.dtd">
<svg version="1.1" xmlns="http://www.w3.org/2000/svg" xmlns:xlink="http://www.w3.org/1999/xlink" x="0" y="0" width="218.804" height="87.039" viewBox="0, 0, 218.804, 87.039">
  <g id="Layer_1" transform="translate(-126.559, -495.063)">
    <g>
      <path d="M199,496.563 L255.693,496.563 L255.693,581.602 L199,581.602 L199,496.563 z" fill="#FFFFFF"/>
      <path d="M199,496.563 L255.693,496.563 L255.693,581.602 L199,581.602 L199,496.563 z" fill-opacity="0" stroke="#000000" stroke-width="1"/>
    </g>
    <path d="M156.138,510.736 L199,510.736" fill-opacity="0" stroke="#000000" stroke-width="1"/>
    <path d="M199,539.083 L156.138,539.083" fill-opacity="0" stroke="#000000" stroke-width="1"/>
    <path d="M227.552,531.624 L229.8,531.624 C230.278,531.624 230.517,531.624 230.517,531.146 C230.517,530.883 230.278,530.883 229.848,530.883 L227.743,530.883 C228.604,527.488 228.724,527.01 228.724,526.866 C228.724,526.46 228.437,526.221 228.03,526.221 C227.959,526.221 227.289,526.245 227.074,527.081 L226.141,530.883 L223.894,530.883 C223.416,530.883 223.177,530.883 223.177,531.337 C223.177,531.624 223.368,531.624 223.846,531.624 L225.95,531.624 C224.229,538.415 224.133,538.821 224.133,539.252 C224.133,540.543 225.042,541.451 226.333,541.451 C228.772,541.451 230.135,537.961 230.135,537.769 C230.135,537.53 229.943,537.53 229.848,537.53 C229.632,537.53 229.608,537.602 229.489,537.865 C228.461,540.352 227.194,540.925 226.381,540.925 C225.878,540.925 225.639,540.615 225.639,539.826 C225.639,539.252 225.687,539.084 225.783,538.678 z" fill="#4E4E4E" id="Layer_1"/>
    <g id="Layer_1">
      <path d="M141.311,498.789 C142.483,496.924 143.487,496.852 144.372,496.804 C144.658,496.78 144.682,496.374 144.682,496.35 C144.682,496.159 144.563,496.063 144.372,496.063 C143.75,496.063 143.056,496.135 142.411,496.135 C141.622,496.135 140.809,496.063 140.044,496.063 C139.9,496.063 139.59,496.063 139.59,496.517 C139.59,496.78 139.805,496.804 139.972,496.804 C140.618,496.852 141.072,497.091 141.072,497.593 C141.072,497.952 140.713,498.478 140.713,498.502 L133.373,510.17 L131.747,497.522 C131.747,497.115 132.297,496.804 133.397,496.804 C133.731,496.804 133.995,496.804 133.995,496.326 C133.995,496.111 133.803,496.063 133.66,496.063 C132.703,496.063 131.675,496.135 130.695,496.135 C130.265,496.135 129.81,496.111 129.38,496.111 C128.949,496.111 128.495,496.063 128.089,496.063 C127.921,496.063 127.634,496.063 127.634,496.517 C127.634,496.804 127.85,496.804 128.232,496.804 C129.571,496.804 129.595,497.019 129.667,497.617 L131.556,512.37 C131.627,512.848 131.723,512.92 132.034,512.92 C132.416,512.92 132.512,512.8 132.703,512.489 z" fill="#4E4E4E"/>
      <path d="M145.851,505.337 C145.851,504.885 145.818,504.868 145.349,504.868 C144.278,505.923 142.755,505.939 142.069,505.939 L142.069,506.542 C142.47,506.542 143.575,506.542 144.495,506.073 L144.495,514.609 C144.495,515.162 144.495,515.379 142.822,515.379 L142.186,515.379 L142.186,515.982 C142.487,515.965 144.546,515.915 145.165,515.915 C145.684,515.915 147.793,515.965 148.161,515.982 L148.161,515.379 L147.525,515.379 C145.851,515.379 145.851,515.162 145.851,514.609 z" fill="#4E4E4E"/>
    </g>
    <path d="M255.35,524.909 L296.513,524.909" fill-opacity="0" stroke="#000000" stroke-width="1"/>
    <path d="M255.35,552.547 L296.513,553.256" fill-opacity="0" stroke="#000000" stroke-width="1"/>
    <g id="Layer_1">
      <path d="M332.154,541 C332.752,539.948 333.325,539.087 334.832,538.967 C335.047,538.943 335.286,538.943 335.286,538.489 C335.286,538.393 335.19,538.226 334.999,538.226 C334.425,538.226 333.756,538.298 333.158,538.298 C332.345,538.298 331.46,538.226 330.671,538.226 C330.528,538.226 330.217,538.226 330.217,538.68 C330.217,538.943 330.432,538.967 330.576,538.967 C331.15,538.991 331.986,539.182 331.986,539.9 C331.986,540.163 331.867,540.354 331.676,540.689 L325.22,551.951 L324.335,540.091 C324.311,539.613 324.263,538.991 326.009,538.967 C326.415,538.967 326.654,538.967 326.654,538.489 C326.654,538.25 326.391,538.226 326.296,538.226 C325.339,538.226 324.335,538.298 323.379,538.298 C322.829,538.298 321.418,538.226 320.868,538.226 C320.725,538.226 320.414,538.226 320.414,538.704 C320.414,538.967 320.653,538.967 320.988,538.967 C322.04,538.967 322.207,539.111 322.255,539.565 L322.398,541.406 L316.349,551.951 L315.441,539.828 C315.441,539.541 315.441,538.991 317.258,538.967 C317.497,538.967 317.76,538.967 317.76,538.489 C317.76,538.226 317.473,538.226 317.425,538.226 C316.469,538.226 315.464,538.298 314.484,538.298 C313.647,538.298 312.787,538.226 311.974,538.226 C311.854,538.226 311.543,538.226 311.543,538.68 C311.543,538.967 311.758,538.967 312.141,538.967 C313.336,538.967 313.36,539.182 313.408,539.852 L314.484,554.461 C314.508,554.891 314.532,555.083 314.867,555.083 C315.154,555.083 315.225,554.939 315.441,554.581 L322.47,542.386 L323.355,554.461 C323.403,554.963 323.451,555.083 323.737,555.083 C324.048,555.083 324.192,554.844 324.311,554.628 z" fill="#4E4E4E"/>
      <path d="M341.262,555.099 L340.693,555.099 C340.643,555.467 340.475,556.454 340.258,556.622 C340.124,556.722 338.835,556.722 338.601,556.722 L335.521,556.722 C337.279,555.166 337.864,554.697 338.869,553.91 C340.107,552.923 341.262,551.885 341.262,550.295 C341.262,548.27 339.488,547.031 337.345,547.031 C335.27,547.031 333.864,548.487 333.864,550.027 C333.864,550.881 334.584,550.964 334.751,550.964 C335.153,550.964 335.638,550.68 335.638,550.077 C335.638,549.776 335.521,549.19 334.651,549.19 C335.17,548.002 336.308,547.634 337.094,547.634 C338.768,547.634 339.638,548.939 339.638,550.295 C339.638,551.751 338.601,552.906 338.065,553.509 L334.032,557.492 C333.864,557.643 333.864,557.676 333.864,558.145 L340.76,558.145 z" fill="#4E4E4E"/>
    </g>
    <g>
      <path d="M179.482,510.736 L184.656,510.736" fill-opacity="0" stroke="#000000" stroke-width="1"/>
      <path d="M179.482,507.736 L171.482,510.736 L179.482,513.736 z" fill="#000000" fill-opacity="1" stroke="#000000" stroke-width="1" stroke-opacity="1"/>
    </g>
    <g>
      <path d="M175.656,539.083 L170.482,539.083" fill-opacity="0" stroke="#000000" stroke-width="1"/>
      <path d="M175.656,542.083 L183.656,539.083 L175.656,536.083 z" fill="#000000" fill-opacity="1" stroke="#000000" stroke-width="1" stroke-opacity="1"/>
    </g>
    <g>
      <path d="M179.482,567.429 L184.656,567.429" fill-opacity="0" stroke="#000000" stroke-width="1"/>
      <path d="M179.482,564.429 L171.482,567.429 L179.482,570.429 z" fill="#000000" fill-opacity="1" stroke="#000000" stroke-width="1" stroke-opacity="1"/>
    </g>
    <g>
      <path d="M278.523,553.256 L283.697,553.256" fill-opacity="0" stroke="#000000" stroke-width="1"/>
      <path d="M278.523,550.256 L270.523,553.256 L278.523,556.256 z" fill="#000000" fill-opacity="1" stroke="#000000" stroke-width="1" stroke-opacity="1"/>
    </g>
    <g>
      <path d="M274.697,524.909 L269.523,524.909" fill-opacity="0" stroke="#000000" stroke-width="1"/>
      <path d="M274.697,527.909 L282.697,524.909 L274.697,521.909 z" fill="#000000" fill-opacity="1" stroke="#000000" stroke-width="1" stroke-opacity="1"/>
    </g>
    <path d="M156.406,567.429 L199.268,567.429" fill-opacity="0" stroke="#000000" stroke-width="1"/>
    <g id="Layer_1">
      <path d="M141.236,555.482 C142.407,553.617 143.412,553.545 144.296,553.497 C144.583,553.473 144.607,553.067 144.607,553.043 C144.607,552.852 144.488,552.756 144.296,552.756 C143.675,552.756 142.981,552.828 142.336,552.828 C141.547,552.828 140.734,552.756 139.968,552.756 C139.825,552.756 139.514,552.756 139.514,553.21 C139.514,553.473 139.729,553.497 139.897,553.497 C140.542,553.545 140.997,553.784 140.997,554.286 C140.997,554.645 140.638,555.171 140.638,555.195 L133.298,566.863 L131.672,554.214 C131.672,553.808 132.222,553.497 133.321,553.497 C133.656,553.497 133.919,553.497 133.919,553.019 C133.919,552.804 133.728,552.756 133.584,552.756 C132.628,552.756 131.6,552.828 130.62,552.828 C130.189,552.828 129.735,552.804 129.305,552.804 C128.874,552.804 128.42,552.756 128.013,552.756 C127.846,552.756 127.559,552.756 127.559,553.21 C127.559,553.497 127.774,553.497 128.157,553.497 C129.496,553.497 129.52,553.712 129.591,554.31 L131.48,569.063 C131.552,569.541 131.648,569.613 131.959,569.613 C132.341,569.613 132.437,569.493 132.628,569.182 z" fill="#4E4E4E"/>
      <path d="M144.738,567.084 C146.044,567.084 146.981,567.988 146.981,569.779 C146.981,571.854 145.776,572.474 144.805,572.474 C144.136,572.474 142.663,572.29 141.96,571.302 C142.746,571.269 142.931,570.716 142.931,570.365 C142.931,569.829 142.529,569.444 142.01,569.444 C141.541,569.444 141.073,569.729 141.073,570.415 C141.073,571.988 142.813,573.009 144.839,573.009 C147.165,573.009 148.772,571.453 148.772,569.779 C148.772,568.474 147.701,567.168 145.86,566.783 C147.617,566.147 148.253,564.892 148.253,563.871 C148.253,562.549 146.73,561.561 144.872,561.561 C143.014,561.561 141.592,562.465 141.592,563.804 C141.592,564.373 141.96,564.691 142.462,564.691 C142.981,564.691 143.315,564.306 143.315,563.837 C143.315,563.352 142.981,563.001 142.462,562.967 C143.048,562.231 144.203,562.047 144.822,562.047 C145.575,562.047 146.629,562.415 146.629,563.871 C146.629,564.574 146.395,565.344 145.96,565.863 C145.408,566.499 144.939,566.532 144.102,566.582 C143.684,566.616 143.65,566.616 143.567,566.633 C143.533,566.633 143.399,566.666 143.399,566.85 C143.399,567.084 143.55,567.084 143.834,567.084 z" fill="#4E4E4E"/>
    </g>
    <g id="Layer_1">
      <path d="M312.043,510.736 L337.946,510.736" fill-opacity="0" stroke="#4E4E4E" stroke-width="0.955"/>
      <path d="M333.469,516.364 C334.067,515.312 334.641,514.451 336.147,514.331 C336.362,514.307 336.601,514.307 336.601,513.853 C336.601,513.758 336.505,513.59 336.314,513.59 C335.74,513.59 335.071,513.662 334.473,513.662 C333.66,513.662 332.775,513.59 331.986,513.59 C331.843,513.59 331.532,513.59 331.532,514.044 C331.532,514.307 331.747,514.331 331.891,514.331 C332.465,514.355 333.302,514.547 333.302,515.264 C333.302,515.527 333.182,515.718 332.991,516.053 L326.535,527.315 L325.65,515.455 C325.626,514.977 325.579,514.355 327.324,514.331 C327.73,514.331 327.97,514.331 327.97,513.853 C327.97,513.614 327.707,513.59 327.611,513.59 C326.654,513.59 325.65,513.662 324.694,513.662 C324.144,513.662 322.733,513.59 322.183,513.59 C322.04,513.59 321.729,513.59 321.729,514.068 C321.729,514.331 321.968,514.331 322.303,514.331 C323.355,514.331 323.522,514.475 323.57,514.929 L323.714,516.77 L317.664,527.315 L316.756,515.192 C316.756,514.905 316.756,514.355 318.573,514.331 C318.812,514.331 319.075,514.331 319.075,513.853 C319.075,513.59 318.788,513.59 318.74,513.59 C317.784,513.59 316.78,513.662 315.799,513.662 C314.962,513.662 314.102,513.59 313.289,513.59 C313.169,513.59 312.858,513.59 312.858,514.044 C312.858,514.331 313.073,514.331 313.456,514.331 C314.652,514.331 314.675,514.547 314.723,515.216 L315.799,529.825 C315.823,530.256 315.847,530.447 316.182,530.447 C316.469,530.447 316.54,530.303 316.756,529.945 L323.785,517.751 L324.67,529.825 C324.718,530.327 324.766,530.447 325.052,530.447 C325.363,530.447 325.507,530.208 325.626,529.993 z" fill="#4E4E4E"/>
      <path d="M343.053,522.864 C343.053,522.412 343.02,522.395 342.551,522.395 C341.48,523.45 339.957,523.467 339.271,523.467 L339.271,524.069 C339.672,524.069 340.777,524.069 341.698,523.6 L341.698,532.136 C341.698,532.689 341.698,532.906 340.024,532.906 L339.388,532.906 L339.388,533.509 C339.689,533.492 341.748,533.442 342.367,533.442 C342.886,533.442 344.995,533.492 345.363,533.509 L345.363,532.906 L344.727,532.906 C343.053,532.906 343.053,532.689 343.053,532.136 z" fill="#4E4E4E"/>
    </g>
    <g id="Layer_1">
      <path d="M128.059,526.721 L147.319,526.721" fill-opacity="0" stroke="#4E4E4E" stroke-width="0.955"/>
      <path d="M142.575,532.3 C143.746,530.435 144.751,530.364 145.635,530.316 C145.922,530.292 145.946,529.885 145.946,529.861 C145.946,529.67 145.826,529.574 145.635,529.574 C145.014,529.574 144.32,529.646 143.675,529.646 C142.886,529.646 142.073,529.574 141.307,529.574 C141.164,529.574 140.853,529.574 140.853,530.029 C140.853,530.292 141.068,530.316 141.236,530.316 C141.881,530.364 142.336,530.603 142.336,531.105 C142.336,531.463 141.977,531.989 141.977,532.013 L134.636,543.682 L133.011,531.033 C133.011,530.627 133.561,530.316 134.66,530.316 C134.995,530.316 135.258,530.316 135.258,529.837 C135.258,529.622 135.067,529.574 134.923,529.574 C133.967,529.574 132.939,529.646 131.959,529.646 C131.528,529.646 131.074,529.622 130.643,529.622 C130.213,529.622 129.759,529.574 129.352,529.574 C129.185,529.574 128.898,529.574 128.898,530.029 C128.898,530.316 129.113,530.316 129.496,530.316 C130.835,530.316 130.859,530.531 130.93,531.129 L132.819,545.881 C132.891,546.359 132.987,546.431 133.298,546.431 C133.68,546.431 133.776,546.312 133.967,546.001 z" fill="#4E4E4E"/>
      <path d="M155.274,546.447 L154.705,546.447 C154.654,546.815 154.487,547.803 154.269,547.97 C154.136,548.07 152.847,548.07 152.613,548.07 L149.533,548.07 C151.29,546.514 151.876,546.045 152.88,545.259 C154.119,544.271 155.274,543.233 155.274,541.643 C155.274,539.618 153.5,538.38 151.357,538.38 C149.282,538.38 147.876,539.836 147.876,541.376 C147.876,542.229 148.596,542.313 148.763,542.313 C149.165,542.313 149.65,542.028 149.65,541.426 C149.65,541.125 149.533,540.539 148.663,540.539 C149.181,539.35 150.32,538.982 151.106,538.982 C152.78,538.982 153.65,540.288 153.65,541.643 C153.65,543.1 152.613,544.254 152.077,544.857 L148.043,548.84 C147.876,548.991 147.876,549.025 147.876,549.493 L154.772,549.493 z" fill="#4E4E4E"/>
    </g>
  </g>
</svg>
