<?xml version="1.0" encoding="UTF-8"?>
<!DOCTYPE svg PUBLIC "-//W3C//DTD SVG 1.1//EN" "http://www.w3.org/Graphics/SVG/1.1/DTD/svg11.dtd">
<svg version="1.1" xmlns="http://www.w3.org/2000/svg" xmlns:xlink="http://www.w3.org/1999/xlink" x="0" y="0" width="491.191" height="78.373" viewBox="0, 0, 491.191, 78.373">
  <g id="Layer_1" transform="translate(-70.866, -1302.791)">
    <g>
      <path d="M483.43,1304.291 L483.43,1360.984 L454.987,1346.81 L454.987,1318.464 L483.43,1304.291 z" fill="#FFFFFF"/>
      <path d="M483.43,1304.291 L483.43,1360.984 L454.987,1346.81 L454.987,1318.464 L483.43,1304.291 z" fill-opacity="0" stroke="#000000" stroke-width="1"/>
    </g>
    <g>
      <path d="M540.026,1318.464 L534.853,1318.464" fill-opacity="0" stroke="#000000" stroke-width="1"/>
      <path d="M534.853,1315.464 L526.853,1318.464 L534.853,1321.464 z" fill="#000000" fill-opacity="1" stroke="#000000" stroke-width="1" stroke-opacity="1"/>
    </g>
    <g>
      <path d="M497.603,1346.81 L492.43,1346.81" fill-opacity="0" stroke="#000000" stroke-width="1"/>
      <path d="M492.43,1343.81 L484.43,1346.81 L492.43,1349.81 z" fill="#000000" fill-opacity="1" stroke="#000000" stroke-width="1" stroke-opacity="1"/>
    </g>
    <g>
      <path d="M455.083,1332.637 L449.91,1332.637" fill-opacity="0" stroke="#000000" stroke-width="1"/>
      <path d="M449.91,1329.637 L441.91,1332.637 L449.91,1335.637 z" fill="#000000" fill-opacity="1" stroke="#000000" stroke-width="1" stroke-opacity="1"/>
    </g>
    <g>
      <path d="M525.853,1332.637 C511.68,1332.637 497.507,1332.637 497.507,1346.81 C497.507,1360.984 511.68,1360.984 525.853,1360.984" fill-opacity="0" stroke="#000000" stroke-width="1"/>
      <path d="M525.853,1332.637 L525.853,1360.984" fill-opacity="0" stroke="#000000" stroke-width="1"/>
    </g>
    <g>
      <path d="M525.853,1346.811 L531.026,1346.811" fill-opacity="0" stroke="#000000" stroke-width="1"/>
      <path d="M531.026,1349.811 L539.026,1346.811 L531.026,1343.811 z" fill="#000000" fill-opacity="1" stroke="#000000" stroke-width="1" stroke-opacity="1"/>
    </g>
    <path d="M525.853,1318.464 L483.334,1318.464" fill-opacity="0" stroke="#000000" stroke-width="1"/>
    <g>
      <path d="M128.059,1304.437 L128.059,1361.13 L156.502,1346.957 L156.502,1318.61 L128.059,1304.437 z" fill="#FFFFFF"/>
      <path d="M128.059,1304.437 L128.059,1361.13 L156.502,1346.957 L156.502,1318.61 L128.059,1304.437 z" fill-opacity="0" stroke="#000000" stroke-width="1"/>
    </g>
    <g>
      <path d="M122.886,1346.957 L128.059,1346.957" fill-opacity="0" stroke="#000000" stroke-width="1"/>
      <path d="M122.886,1343.957 L114.886,1346.957 L122.886,1349.957 z" fill="#000000" fill-opacity="1" stroke="#000000" stroke-width="1" stroke-opacity="1"/>
    </g>
    <path d="M128.059,1346.957 C99.713,1346.957 85.539,1346.957 85.539,1361.13 C85.539,1375.303 99.713,1375.303 128.059,1375.303 C156.406,1375.303 170.579,1375.303 170.579,1375.303" fill-opacity="0" stroke="#000000" stroke-width="1"/>
    <g>
      <path d="M94.539,1318.464 L128.059,1318.464" fill-opacity="0" stroke="#000000" stroke-width="1"/>
      <path d="M94.539,1315.464 L86.539,1318.464 L94.539,1321.464 z" fill="#000000" fill-opacity="1" stroke="#000000" stroke-width="1" stroke-opacity="1"/>
    </g>
    <g>
      <path d="M165.406,1332.784 L170.579,1332.784" fill-opacity="0" stroke="#000000" stroke-width="1"/>
      <path d="M165.406,1329.784 L157.406,1332.784 L165.406,1335.784 z" fill="#000000" fill-opacity="1" stroke="#000000" stroke-width="1" stroke-opacity="1"/>
    </g>
    <g>
      <path d="M161.579,1375.303 L156.406,1375.303" fill-opacity="0" stroke="#000000" stroke-width="1"/>
      <path d="M161.579,1378.303 L169.579,1375.303 L161.579,1372.303 z" fill="#000000" fill-opacity="1" stroke="#000000" stroke-width="1" stroke-opacity="1"/>
    </g>
    <path d="M78.828,1305.467 C78.398,1304.583 77.704,1303.937 76.629,1303.937 C73.831,1303.937 70.866,1307.452 70.866,1310.943 C70.866,1313.19 72.181,1314.768 74.046,1314.768 C74.524,1314.768 75.72,1314.673 77.155,1312.975 C77.346,1313.979 78.183,1314.768 79.33,1314.768 C80.167,1314.768 80.717,1314.219 81.1,1313.453 C81.506,1312.593 81.817,1311.134 81.817,1311.086 C81.817,1310.847 81.602,1310.847 81.53,1310.847 C81.291,1310.847 81.267,1310.943 81.195,1311.278 C80.789,1312.832 80.359,1314.242 79.378,1314.242 C78.733,1314.242 78.661,1313.621 78.661,1313.143 C78.661,1312.617 78.709,1312.425 78.972,1311.373 C79.235,1310.369 79.283,1310.13 79.498,1309.221 L80.359,1305.874 C80.526,1305.204 80.526,1305.157 80.526,1305.061 C80.526,1304.654 80.239,1304.415 79.832,1304.415 C79.259,1304.415 78.9,1304.941 78.828,1305.467 z M77.274,1311.66 C77.155,1312.091 77.155,1312.138 76.796,1312.545 C75.744,1313.86 74.764,1314.242 74.094,1314.242 C72.899,1314.242 72.564,1312.927 72.564,1311.995 C72.564,1310.799 73.329,1307.858 73.879,1306.759 C74.62,1305.348 75.696,1304.463 76.652,1304.463 C78.207,1304.463 78.541,1306.424 78.541,1306.567 C78.541,1306.711 78.494,1306.854 78.47,1306.974 z" fill="#4E4E4E" id="Layer_1"/>
    <g id="Layer_1">
      <path d="M192.884,1361.225 L192.884,1360.484 L184.252,1360.484 L184.252,1361.225 z" fill="#4E4E4E"/>
      <path d="M189.164,1364.57 C189.164,1364.546 189.164,1364.307 188.853,1364.307 C188.303,1364.307 186.558,1364.498 185.936,1364.546 C185.745,1364.57 185.482,1364.594 185.482,1365.024 C185.482,1365.311 185.697,1365.311 186.056,1365.311 C187.203,1365.311 187.251,1365.478 187.251,1365.717 C187.251,1365.885 187.036,1366.698 186.916,1367.2 L184.956,1374.995 C184.669,1376.19 184.573,1376.573 184.573,1377.41 C184.573,1379.681 185.84,1381.163 187.61,1381.163 C190.431,1381.163 193.372,1377.601 193.372,1374.158 C193.372,1371.982 192.105,1370.332 190.192,1370.332 C189.092,1370.332 188.112,1371.026 187.395,1371.767 z M186.916,1373.608 C187.06,1373.082 187.06,1373.034 187.275,1372.771 C188.447,1371.217 189.523,1370.858 190.144,1370.858 C191.005,1370.858 191.651,1371.575 191.651,1373.106 C191.651,1374.516 190.862,1377.266 190.431,1378.175 C189.642,1379.777 188.542,1380.637 187.61,1380.637 C186.797,1380.637 186.008,1379.992 186.008,1378.223 C186.008,1377.768 186.008,1377.314 186.39,1375.807 z" fill="#4E4E4E"/>
    </g>
    <path d="M192.74,1319.463 C192.358,1319.463 192.023,1319.463 191.688,1319.798 C191.306,1320.156 191.258,1320.563 191.258,1320.73 C191.258,1321.304 191.688,1321.567 192.142,1321.567 C192.836,1321.567 193.481,1320.993 193.481,1320.037 C193.481,1318.865 192.358,1317.981 190.66,1317.981 C187.432,1317.981 184.252,1321.4 184.252,1324.771 C184.252,1326.923 185.639,1328.812 188.125,1328.812 C191.545,1328.812 193.553,1326.278 193.553,1325.991 C193.553,1325.847 193.41,1325.68 193.266,1325.68 C193.147,1325.68 193.099,1325.728 192.955,1325.919 C191.066,1328.286 188.46,1328.286 188.173,1328.286 C186.667,1328.286 186.021,1327.114 186.021,1325.68 C186.021,1324.699 186.5,1322.38 187.312,1320.898 C188.054,1319.535 189.369,1318.507 190.684,1318.507 C191.497,1318.507 192.405,1318.818 192.74,1319.463 z" fill="#4E4E4E" id="Layer_1"/>
    <path d="M433.159,1319.641 C432.729,1318.756 432.035,1318.11 430.959,1318.11 C428.162,1318.11 425.197,1321.625 425.197,1325.116 C425.197,1327.364 426.512,1328.942 428.377,1328.942 C428.855,1328.942 430.051,1328.846 431.485,1327.148 C431.677,1328.153 432.513,1328.942 433.661,1328.942 C434.498,1328.942 435.048,1328.392 435.43,1327.627 C435.837,1326.766 436.148,1325.307 436.148,1325.259 C436.148,1325.02 435.933,1325.02 435.861,1325.02 C435.622,1325.02 435.598,1325.116 435.526,1325.451 C435.12,1327.005 434.689,1328.416 433.709,1328.416 C433.063,1328.416 432.992,1327.794 432.992,1327.316 C432.992,1326.79 433.039,1326.598 433.302,1325.546 C433.565,1324.542 433.613,1324.303 433.828,1323.394 L434.689,1320.047 C434.857,1319.378 434.857,1319.33 434.857,1319.234 C434.857,1318.828 434.57,1318.589 434.163,1318.589 C433.589,1318.589 433.231,1319.115 433.159,1319.641 z M431.605,1325.833 C431.485,1326.264 431.485,1326.312 431.127,1326.718 C430.075,1328.033 429.094,1328.416 428.425,1328.416 C427.229,1328.416 426.895,1327.101 426.895,1326.168 C426.895,1324.973 427.66,1322.032 428.21,1320.932 C428.951,1319.521 430.027,1318.636 430.983,1318.636 C432.537,1318.636 432.872,1320.597 432.872,1320.74 C432.872,1320.884 432.824,1321.027 432.8,1321.147 z" fill="#4E4E4E" id="Layer_1"/>
    <path d="M561.244,1305.42 C560.862,1305.42 560.527,1305.42 560.192,1305.754 C559.809,1306.113 559.762,1306.519 559.762,1306.687 C559.762,1307.261 560.192,1307.524 560.646,1307.524 C561.34,1307.524 561.985,1306.95 561.985,1305.993 C561.985,1304.822 560.862,1303.937 559.164,1303.937 C555.936,1303.937 552.756,1307.356 552.756,1310.728 C552.756,1312.88 554.143,1314.768 556.629,1314.768 C560.049,1314.768 562.057,1312.234 562.057,1311.947 C562.057,1311.804 561.914,1311.636 561.77,1311.636 C561.651,1311.636 561.603,1311.684 561.459,1311.875 C559.57,1314.242 556.964,1314.242 556.677,1314.242 C555.171,1314.242 554.525,1313.071 554.525,1311.636 C554.525,1310.656 555.003,1308.337 555.816,1306.854 C556.558,1305.491 557.873,1304.463 559.188,1304.463 C560.001,1304.463 560.909,1304.774 561.244,1305.42 z" fill="#4E4E4E" id="Layer_1"/>
    <g id="Layer_1">
      <path d="M561.387,1333.025 L561.387,1332.284 L552.756,1332.284 L552.756,1333.025 z" fill="#4E4E4E"/>
      <path d="M557.668,1336.37 C557.668,1336.346 557.668,1336.107 557.357,1336.107 C556.807,1336.107 555.062,1336.298 554.44,1336.346 C554.249,1336.37 553.986,1336.393 553.986,1336.824 C553.986,1337.111 554.201,1337.111 554.559,1337.111 C555.707,1337.111 555.755,1337.278 555.755,1337.517 C555.755,1337.685 555.54,1338.498 555.42,1339 L553.46,1346.794 C553.173,1347.99 553.077,1348.372 553.077,1349.209 C553.077,1351.481 554.344,1352.963 556.114,1352.963 C558.935,1352.963 561.876,1349.401 561.876,1345.958 C561.876,1343.782 560.609,1342.132 558.696,1342.132 C557.596,1342.132 556.616,1342.825 555.898,1343.567 z M555.42,1345.408 C555.564,1344.882 555.564,1344.834 555.779,1344.571 C556.951,1343.017 558.026,1342.658 558.648,1342.658 C559.509,1342.658 560.154,1343.375 560.154,1344.906 C560.154,1346.316 559.365,1349.066 558.935,1349.974 C558.146,1351.576 557.046,1352.437 556.114,1352.437 C555.301,1352.437 554.512,1351.792 554.512,1350.022 C554.512,1349.568 554.512,1349.114 554.894,1347.607 z" fill="#4E4E4E"/>
    </g>
    <path d="M139.492,1327.593 C139.611,1327.091 139.85,1326.182 139.85,1326.063 C139.85,1325.656 139.563,1325.417 139.157,1325.417 C139.085,1325.417 138.416,1325.441 138.201,1326.278 L134.757,1340.122 C134.686,1340.409 134.686,1340.457 134.686,1340.505 C134.686,1340.863 134.949,1341.15 135.355,1341.15 C135.857,1341.15 136.144,1340.72 136.192,1340.648 C136.288,1340.433 136.599,1339.189 137.507,1335.507 C138.272,1336.153 139.348,1336.248 139.826,1336.248 C141.5,1336.248 142.433,1335.172 143.007,1334.503 C143.222,1335.579 144.106,1336.248 145.158,1336.248 C145.995,1336.248 146.545,1335.698 146.928,1334.933 C147.334,1334.073 147.645,1332.614 147.645,1332.566 C147.645,1332.327 147.43,1332.327 147.358,1332.327 C147.119,1332.327 147.095,1332.423 147.023,1332.758 C146.617,1334.312 146.187,1335.722 145.206,1335.722 C144.561,1335.722 144.489,1335.101 144.489,1334.623 C144.489,1334.097 144.776,1332.973 144.967,1332.136 L145.637,1329.554 C145.708,1329.195 145.947,1328.286 146.043,1327.928 C146.163,1327.378 146.402,1326.469 146.402,1326.326 C146.402,1325.895 146.067,1325.68 145.708,1325.68 C145.589,1325.68 144.967,1325.704 144.776,1326.517 L143.652,1330.988 C143.365,1332.184 143.102,1333.188 143.03,1333.427 C143.007,1333.547 141.859,1335.722 139.922,1335.722 C138.727,1335.722 138.153,1334.933 138.153,1333.642 C138.153,1332.949 138.32,1332.279 138.487,1331.61 z" fill="#4E4E4E" id="Layer_1"/>
    <path d="M467.166,1327.116 C467.166,1327.092 467.166,1326.853 466.855,1326.853 C466.306,1326.853 464.56,1327.044 463.938,1327.092 C463.747,1327.116 463.484,1327.14 463.484,1327.57 C463.484,1327.857 463.699,1327.857 464.058,1327.857 C465.206,1327.857 465.254,1328.025 465.254,1328.264 C465.254,1328.431 464.967,1329.555 464.799,1330.201 L463.341,1336.059 C463.245,1336.417 463.078,1337.087 463.078,1337.135 C463.078,1337.397 463.317,1337.421 463.46,1337.421 L463.795,1337.421 C465.469,1337.135 468.075,1336.202 470.538,1333.907 C473.694,1330.966 474.339,1327.714 474.339,1327.499 C474.339,1327.092 474.052,1326.853 473.646,1326.853 C473.455,1326.853 472.905,1326.949 472.714,1327.642 C471.183,1333.07 467.549,1335.748 464.823,1336.632 z" fill="#4E4E4E" id="Layer_1"/>
    <g id="Layer_1">
      <path d="M227.686,1334.521 C228.044,1334.521 228.499,1334.521 228.499,1334.043 C228.499,1333.564 228.044,1333.564 227.71,1333.564 L213.387,1333.564 C213.053,1333.564 212.598,1333.564 212.598,1334.043 C212.598,1334.521 213.053,1334.521 213.411,1334.521 z M227.71,1339.159 C228.044,1339.159 228.499,1339.159 228.499,1338.681 C228.499,1338.203 228.044,1338.203 227.686,1338.203 L213.411,1338.203 C213.053,1338.203 212.598,1338.203 212.598,1338.681 C212.598,1339.159 213.053,1339.159 213.387,1339.159 z" fill="#4E4E4E"/>
      <path d="M266.768,1353.1 L269.661,1345.449 L269.064,1345.449 C268.131,1347.936 265.597,1349.561 262.847,1350.279 C262.345,1350.398 260.002,1351.02 255.411,1351.02 L240.993,1351.02 L253.163,1336.745 C253.331,1336.554 253.378,1336.483 253.378,1336.363 C253.378,1336.315 253.378,1336.243 253.211,1336.004 L242.069,1320.774 L255.172,1320.774 C258.376,1320.774 260.552,1321.108 260.767,1321.156 C262.058,1321.347 264.138,1321.754 266.027,1322.949 C266.625,1323.332 268.251,1324.408 269.064,1326.345 L269.661,1326.345 L266.768,1319.626 L238.506,1319.626 C237.956,1319.626 237.932,1319.65 237.861,1319.793 C237.837,1319.865 237.837,1320.319 237.837,1320.582 L250.485,1337.893 L238.1,1352.407 C237.861,1352.694 237.861,1352.813 237.861,1352.837 C237.861,1353.1 238.076,1353.1 238.506,1353.1 z" fill="#4E4E4E"/>
      <path d="M252.615,1362.943 C252.632,1362.876 252.648,1362.776 252.648,1362.692 C252.648,1362.675 252.648,1362.458 252.381,1362.458 C252.364,1362.458 251.41,1362.541 251.293,1362.541 C250.975,1362.575 250.673,1362.591 250.355,1362.625 C250.088,1362.642 249.887,1362.658 249.887,1363.01 C249.887,1363.244 250.121,1363.244 250.322,1363.244 C251.125,1363.244 251.125,1363.345 251.125,1363.495 C251.125,1363.596 251.042,1363.93 250.975,1364.148 L250.138,1367.529 C249.719,1369.203 249.636,1369.537 249.636,1369.604 C249.636,1369.839 249.887,1369.839 249.954,1369.839 L250.221,1369.839 C251.711,1369.604 253.837,1368.818 255.628,1367.228 C257.904,1365.202 258.239,1363.027 258.239,1362.993 C258.239,1362.692 258.004,1362.458 257.669,1362.458 C257.084,1362.458 256.967,1362.926 256.816,1363.395 C256.146,1365.771 253.904,1368.332 251.058,1369.169 z" fill="#4E4E4E"/>
      <path d="M288.96,1332.704 C289.223,1332.441 289.223,1332.393 289.223,1332.321 C289.223,1332.178 289.127,1332.034 288.936,1332.034 C288.793,1332.034 288.697,1332.154 288.553,1332.321 L283.078,1338.418 C282.122,1335.382 281.93,1334.784 281.38,1333.516 C281.117,1332.967 280.591,1331.771 278.487,1331.771 C277.1,1331.771 276.479,1333.014 276.479,1333.349 C276.479,1333.373 276.479,1333.588 276.766,1333.588 C276.981,1333.588 277.029,1333.445 277.077,1333.325 C277.435,1332.393 278.2,1332.297 278.344,1332.297 C279.061,1332.297 279.778,1334.114 280.185,1335.166 C280.95,1337.055 281.715,1339.829 281.715,1339.901 C281.715,1339.924 281.715,1339.972 281.524,1340.164 L276.024,1346.308 C275.761,1346.572 275.761,1346.619 275.761,1346.691 C275.761,1346.835 275.905,1346.978 276.048,1346.978 C276.216,1346.978 276.335,1346.811 276.431,1346.715 L281.906,1340.57 C282.672,1343.057 282.958,1343.989 283.532,1345.328 C283.843,1346.046 284.369,1347.241 286.497,1347.241 C287.884,1347.241 288.53,1345.998 288.53,1345.687 C288.53,1345.567 288.482,1345.424 288.243,1345.424 C288.004,1345.424 287.98,1345.52 287.908,1345.759 C287.693,1346.332 287.095,1346.715 286.641,1346.715 C285.421,1346.715 283.795,1340.929 283.269,1339.088 z" fill="#4E4E4E"/>
      <path d="M294.398,1334.814 C294.415,1334.781 294.465,1334.563 294.465,1334.546 C294.465,1334.463 294.398,1334.312 294.197,1334.312 C293.862,1334.312 292.473,1334.446 292.055,1334.479 C291.921,1334.496 291.687,1334.513 291.687,1334.864 C291.687,1335.099 291.921,1335.099 292.122,1335.099 C292.925,1335.099 292.925,1335.216 292.925,1335.35 C292.925,1335.467 292.758,1336.136 292.657,1336.521 L292.272,1338.061 C292.122,1338.63 291.201,1342.295 291.168,1342.513 C291.084,1342.915 291.084,1343.132 291.084,1343.333 C291.084,1345.024 292.155,1346.095 293.544,1346.095 C295.637,1346.095 297.863,1343.818 297.863,1341.341 C297.863,1339.383 296.507,1338.546 295.352,1338.546 C294.482,1338.546 293.745,1339.032 293.243,1339.467 z M293.561,1345.626 C292.741,1345.626 292.272,1344.906 292.272,1343.919 C292.272,1343.3 292.423,1342.731 292.892,1340.839 C292.992,1340.521 292.992,1340.488 293.31,1340.12 C293.946,1339.383 294.699,1339.015 295.302,1339.015 C295.955,1339.015 296.524,1339.5 296.524,1340.638 C296.524,1341.325 296.155,1343.032 295.653,1344.003 C295.252,1344.823 294.415,1345.626 293.561,1345.626 z" fill="#4E4E4E"/>
      <path d="M309.722,1347.935 C310.463,1347.935 310.487,1347.911 310.726,1347.457 L323.805,1320.152 C323.973,1319.841 323.973,1319.793 323.973,1319.721 C323.973,1319.458 323.781,1319.243 323.495,1319.243 C323.184,1319.243 323.088,1319.458 322.968,1319.721 L310.631,1345.449 L305.538,1333.589 L302.214,1336.148 L302.573,1336.53 L304.271,1335.239 z" fill="#4E4E4E"/>
      <path d="M323.993,1320.22 L346.042,1320.22" fill-opacity="0" stroke="#4E4E4E" stroke-width="0.955"/>
      <path d="M335.831,1326.009 C335.831,1325.985 335.831,1325.746 335.52,1325.746 C335.161,1325.746 332.89,1325.961 332.483,1326.009 C332.292,1326.033 332.149,1326.152 332.149,1326.463 C332.149,1326.75 332.364,1326.75 332.722,1326.75 C333.87,1326.75 333.918,1326.917 333.918,1327.156 L333.846,1327.635 L332.412,1333.301 C331.981,1332.417 331.288,1331.771 330.212,1331.771 C327.414,1331.771 324.449,1335.286 324.449,1338.777 C324.449,1341.024 325.765,1342.602 327.63,1342.602 C328.108,1342.602 329.303,1342.507 330.738,1340.809 C330.929,1341.813 331.766,1342.602 332.914,1342.602 C333.751,1342.602 334.3,1342.052 334.683,1341.287 C335.09,1340.427 335.4,1338.968 335.4,1338.92 C335.4,1338.681 335.185,1338.681 335.113,1338.681 C334.874,1338.681 334.85,1338.777 334.779,1339.112 C334.372,1340.666 333.942,1342.076 332.962,1342.076 C332.316,1342.076 332.244,1341.455 332.244,1340.977 C332.244,1340.403 332.292,1340.235 332.388,1339.829 z M330.857,1339.494 C330.738,1339.924 330.738,1339.972 330.379,1340.379 C329.327,1341.694 328.347,1342.076 327.677,1342.076 C326.482,1342.076 326.147,1340.761 326.147,1339.829 C326.147,1338.633 326.912,1335.692 327.462,1334.593 C328.203,1333.182 329.279,1332.297 330.236,1332.297 C331.79,1332.297 332.125,1334.258 332.125,1334.401 C332.125,1334.545 332.077,1334.688 332.053,1334.808 z" fill="#4E4E4E"/>
      <path d="M340.358,1334.814 C340.375,1334.781 340.425,1334.563 340.425,1334.546 C340.425,1334.463 340.358,1334.312 340.157,1334.312 C339.822,1334.312 338.433,1334.446 338.015,1334.479 C337.881,1334.496 337.647,1334.513 337.647,1334.864 C337.647,1335.099 337.881,1335.099 338.082,1335.099 C338.885,1335.099 338.885,1335.216 338.885,1335.35 C338.885,1335.467 338.718,1336.136 338.617,1336.521 L338.232,1338.061 C338.082,1338.63 337.161,1342.295 337.128,1342.513 C337.044,1342.915 337.044,1343.132 337.044,1343.333 C337.044,1345.024 338.115,1346.095 339.504,1346.095 C341.597,1346.095 343.823,1343.818 343.823,1341.341 C343.823,1339.383 342.467,1338.546 341.312,1338.546 C340.442,1338.546 339.705,1339.032 339.203,1339.467 z M339.521,1345.626 C338.701,1345.626 338.232,1344.906 338.232,1343.919 C338.232,1343.3 338.383,1342.731 338.852,1340.839 C338.952,1340.521 338.952,1340.488 339.27,1340.12 C339.906,1339.383 340.659,1339.015 341.262,1339.015 C341.915,1339.015 342.484,1339.5 342.484,1340.638 C342.484,1341.325 342.115,1343.032 341.613,1344.003 C341.212,1344.823 340.375,1345.626 339.521,1345.626 z" fill="#4E4E4E"/>
      <path d="M351.639,1348.317 L351.639,1347.361 L349.32,1347.361 L349.32,1325.363 L351.639,1325.363 L351.639,1324.407 L348.363,1324.407 L348.363,1348.317 z" fill="#4E4E4E"/>
      <path d="M356.011,1340.474 C355.772,1341.407 355.724,1341.598 353.835,1341.598 C353.428,1341.598 353.189,1341.598 353.189,1342.076 C353.189,1342.339 353.404,1342.339 353.835,1342.339 L362.371,1342.339 C366.149,1342.339 368.97,1339.518 368.97,1337.175 C368.97,1335.453 367.583,1334.067 365.264,1333.803 C367.751,1333.349 370.261,1331.58 370.261,1329.308 C370.261,1327.539 368.683,1326.009 365.814,1326.009 L357.78,1326.009 C357.326,1326.009 357.087,1326.009 357.087,1326.487 C357.087,1326.75 357.302,1326.75 357.756,1326.75 C357.804,1326.75 358.258,1326.75 358.665,1326.798 C359.095,1326.846 359.31,1326.87 359.31,1327.18 C359.31,1327.276 359.286,1327.348 359.215,1327.635 z M359.621,1333.588 L361.104,1327.659 C361.319,1326.822 361.367,1326.75 362.395,1326.75 L365.479,1326.75 C367.583,1326.75 368.085,1328.161 368.085,1329.213 C368.085,1331.317 366.029,1333.588 363.112,1333.588 z M358.545,1341.598 C358.21,1341.598 358.163,1341.598 358.019,1341.574 C357.78,1341.55 357.708,1341.526 357.708,1341.335 C357.708,1341.263 357.708,1341.216 357.828,1340.785 L359.478,1334.114 L363.997,1334.114 C366.292,1334.114 366.746,1335.884 366.746,1336.912 C366.746,1339.279 364.618,1341.598 361.797,1341.598 z" fill="#4E4E4E"/>
      <path d="M378.583,1326.075 C378.231,1325.522 377.662,1325.087 376.859,1325.087 C374.716,1325.087 372.54,1327.447 372.54,1329.857 C372.54,1331.481 373.628,1332.636 375.068,1332.636 C375.972,1332.636 376.775,1332.117 377.444,1331.464 C377.762,1332.468 378.733,1332.636 379.168,1332.636 C379.771,1332.636 380.189,1332.267 380.491,1331.749 C380.859,1331.096 381.076,1330.142 381.076,1330.075 C381.076,1329.857 380.859,1329.857 380.809,1329.857 C380.574,1329.857 380.557,1329.924 380.44,1330.376 C380.24,1331.179 379.921,1332.167 379.219,1332.167 C378.783,1332.167 378.666,1331.799 378.666,1331.347 C378.666,1331.062 378.8,1330.46 378.917,1330.025 C379.034,1329.573 379.202,1328.886 379.285,1328.518 L379.62,1327.246 C379.721,1326.811 379.921,1326.024 379.921,1325.941 C379.921,1325.573 379.62,1325.405 379.352,1325.405 C379.068,1325.405 378.683,1325.606 378.583,1326.075 z M377.511,1330.376 C377.394,1330.845 377.026,1331.179 376.658,1331.497 C376.507,1331.631 375.838,1332.167 375.118,1332.167 C374.499,1332.167 373.896,1331.732 373.896,1330.543 C373.896,1329.656 374.382,1327.815 374.766,1327.146 C375.536,1325.807 376.39,1325.556 376.859,1325.556 C378.03,1325.556 378.348,1326.828 378.348,1327.012 C378.348,1327.079 378.315,1327.196 378.298,1327.246 z" fill="#4E4E4E"/>
      <path d="M389.415,1318.746 L389.415,1318.11 L382.753,1318.11 L382.753,1318.746 z" fill="#4E4E4E"/>
      <path d="M386.311,1321.355 C386.328,1321.321 386.378,1321.104 386.378,1321.087 C386.378,1321.003 386.311,1320.853 386.11,1320.853 C385.775,1320.853 384.386,1320.987 383.968,1321.02 C383.834,1321.037 383.599,1321.053 383.599,1321.405 C383.599,1321.639 383.834,1321.639 384.035,1321.639 C384.838,1321.639 384.838,1321.756 384.838,1321.89 C384.838,1322.008 384.671,1322.677 384.57,1323.062 L384.185,1324.602 C384.035,1325.171 383.114,1328.836 383.081,1329.054 C382.997,1329.456 382.997,1329.673 382.997,1329.874 C382.997,1331.564 384.068,1332.636 385.457,1332.636 C387.549,1332.636 389.775,1330.359 389.775,1327.882 C389.775,1325.924 388.42,1325.087 387.265,1325.087 C386.395,1325.087 385.658,1325.573 385.156,1326.008 z M385.474,1332.167 C384.654,1332.167 384.185,1331.447 384.185,1330.46 C384.185,1329.84 384.336,1329.271 384.805,1327.38 C384.905,1327.062 384.905,1327.029 385.223,1326.66 C385.859,1325.924 386.612,1325.556 387.215,1325.556 C387.867,1325.556 388.436,1326.041 388.436,1327.179 C388.436,1327.865 388.068,1329.573 387.566,1330.543 C387.164,1331.364 386.328,1332.167 385.474,1332.167 z" fill="#4E4E4E"/>
      <path d="M377.653,1341.84 C377.05,1341.941 376.799,1342.409 376.799,1342.778 C376.799,1343.229 377.151,1343.397 377.452,1343.397 C377.82,1343.397 378.406,1343.129 378.406,1342.326 C378.406,1341.188 377.1,1340.87 376.197,1340.87 C373.686,1340.87 371.36,1343.179 371.36,1345.506 C371.36,1346.945 372.364,1348.418 374.456,1348.418 C377.284,1348.418 378.607,1346.761 378.607,1346.527 C378.607,1346.426 378.456,1346.242 378.322,1346.242 C378.222,1346.242 378.188,1346.276 378.054,1346.41 C376.749,1347.949 374.791,1347.949 374.489,1347.949 C373.284,1347.949 372.749,1347.129 372.749,1346.092 C372.749,1345.606 372.983,1343.782 373.853,1342.627 C374.489,1341.807 375.36,1341.338 376.197,1341.338 C376.431,1341.338 377.234,1341.372 377.653,1341.84 z" fill="#4E4E4E"/>
      <path d="M395.299,1324.407 L392.023,1324.407 L392.023,1325.363 L394.342,1325.363 L394.342,1347.361 L392.023,1347.361 L392.023,1348.317 L395.299,1348.317 z" fill="#4E4E4E"/>
      <path d="M399.042,1335.163 C398.975,1335.414 398.975,1335.498 398.975,1335.514 C398.975,1335.883 399.276,1336.05 399.544,1336.05 C400.146,1336.05 400.28,1335.498 400.347,1335.213 C400.381,1335.129 400.715,1333.79 401.117,1332.15 C401.636,1332.502 402.305,1332.636 402.908,1332.636 C404.347,1332.636 405.285,1331.464 405.318,1331.431 C405.636,1332.585 406.791,1332.636 407.042,1332.636 C407.645,1332.636 408.063,1332.267 408.364,1331.749 C408.732,1331.096 408.95,1330.142 408.95,1330.075 C408.95,1329.857 408.732,1329.857 408.682,1329.857 C408.448,1329.857 408.431,1329.924 408.314,1330.376 C408.113,1331.179 407.795,1332.167 407.092,1332.167 C406.657,1332.167 406.54,1331.799 406.54,1331.347 C406.54,1331.062 406.674,1330.46 406.791,1330.025 C406.908,1329.573 407.075,1328.886 407.159,1328.518 L407.544,1327.029 C407.645,1326.61 407.829,1325.874 407.829,1325.79 C407.829,1325.455 407.561,1325.255 407.276,1325.255 C407.092,1325.255 406.774,1325.338 406.59,1325.656 C406.54,1325.757 406.406,1326.292 406.322,1326.627 L405.971,1328.016 L405.452,1330.108 C405.335,1330.527 405.335,1330.56 405.184,1330.778 C404.665,1331.514 403.929,1332.167 402.975,1332.167 C401.602,1332.167 401.602,1330.979 401.602,1330.677 C401.602,1330.242 401.653,1330.025 401.887,1329.121 C402.054,1328.384 402.088,1328.267 402.255,1327.615 L402.49,1326.677 C402.573,1326.326 402.741,1325.69 402.741,1325.623 C402.741,1325.321 402.506,1325.087 402.172,1325.087 C401.569,1325.087 401.418,1325.673 401.368,1325.874 z" fill="#4E4E4E"/>
      <path d="M402.339,1341.355 C402.356,1341.288 402.372,1341.188 402.372,1341.104 C402.372,1341.087 402.372,1340.87 402.105,1340.87 C402.088,1340.87 401.134,1340.953 401.017,1340.953 C400.699,1340.987 400.397,1341.003 400.079,1341.037 C399.812,1341.054 399.611,1341.07 399.611,1341.422 C399.611,1341.656 399.845,1341.656 400.046,1341.656 C400.849,1341.656 400.849,1341.757 400.849,1341.907 C400.849,1342.008 400.766,1342.342 400.699,1342.56 L399.862,1345.941 C399.443,1347.615 399.36,1347.949 399.36,1348.016 C399.36,1348.251 399.611,1348.251 399.678,1348.251 L399.945,1348.251 C401.435,1348.016 403.561,1347.23 405.352,1345.64 C407.628,1343.614 407.963,1341.439 407.963,1341.405 C407.963,1341.104 407.728,1340.87 407.393,1340.87 C406.808,1340.87 406.691,1341.338 406.54,1341.807 C405.87,1344.183 403.628,1346.744 400.782,1347.581 z" fill="#4E4E4E"/>
    </g>
  </g>
</svg>
