<?xml version="1.0" encoding="UTF-8"?>
<!DOCTYPE svg PUBLIC "-//W3C//DTD SVG 1.1//EN" "http://www.w3.org/Graphics/SVG/1.1/DTD/svg11.dtd">
<svg version="1.1" xmlns="http://www.w3.org/2000/svg" xmlns:xlink="http://www.w3.org/1999/xlink" x="0" y="0" width="240.693" height="89.039" viewBox="0, 0, 240.693, 89.039">
  <g id="Layer_1" transform="translate(-85.039, -223.772)">
    <g>
      <path d="M199.268,227.272 L255.961,227.272 L255.961,312.311 L199.268,312.311 L199.268,227.272 z" fill="#FFFFFF"/>
      <path d="M199.268,227.272 L255.961,227.272 L255.961,312.311 L199.268,312.311 L199.268,227.272 z" fill-opacity="0" stroke="#000000" stroke-width="1"/>
    </g>
    <path d="M199.268,298.138 L113.886,298.138" fill-opacity="0" stroke="#000000" stroke-width="1"/>
    <path d="M227.82,262.333 L230.068,262.333 C230.546,262.333 230.785,262.333 230.785,261.855 C230.785,261.592 230.546,261.592 230.116,261.592 L228.011,261.592 C228.872,258.196 228.992,257.718 228.992,257.575 C228.992,257.168 228.705,256.929 228.298,256.929 C228.227,256.929 227.557,256.953 227.342,257.79 L226.409,261.592 L224.162,261.592 C223.684,261.592 223.445,261.592 223.445,262.046 C223.445,262.333 223.636,262.333 224.114,262.333 L226.218,262.333 C224.497,269.123 224.401,269.53 224.401,269.96 C224.401,271.251 225.31,272.16 226.601,272.16 C229.04,272.16 230.402,268.669 230.402,268.478 C230.402,268.239 230.211,268.239 230.116,268.239 C229.9,268.239 229.876,268.31 229.757,268.574 C228.729,271.06 227.461,271.634 226.649,271.634 C226.146,271.634 225.907,271.323 225.907,270.534 C225.907,269.96 225.955,269.793 226.051,269.386 z" fill="#4E4E4E" id="Layer_1"/>
    <g id="Layer_1">
      <path d="M99.059,229.497 C100.231,227.632 101.235,227.561 102.12,227.513 C102.407,227.489 102.43,227.083 102.43,227.059 C102.43,226.867 102.311,226.772 102.12,226.772 C101.498,226.772 100.805,226.843 100.159,226.843 C99.37,226.843 98.557,226.772 97.792,226.772 C97.648,226.772 97.338,226.772 97.338,227.226 C97.338,227.489 97.553,227.513 97.72,227.513 C98.366,227.561 98.82,227.8 98.82,228.302 C98.82,228.661 98.461,229.187 98.461,229.211 L91.121,240.879 L89.495,228.23 C89.495,227.824 90.045,227.513 91.145,227.513 C91.48,227.513 91.743,227.513 91.743,227.035 C91.743,226.819 91.551,226.772 91.408,226.772 C90.451,226.772 89.423,226.843 88.443,226.843 C88.013,226.843 87.558,226.819 87.128,226.819 C86.698,226.819 86.243,226.772 85.837,226.772 C85.669,226.772 85.382,226.772 85.382,227.226 C85.382,227.513 85.598,227.513 85.98,227.513 C87.319,227.513 87.343,227.728 87.415,228.326 L89.304,243.078 C89.375,243.557 89.471,243.628 89.782,243.628 C90.165,243.628 90.26,243.509 90.451,243.198 z" fill="#4E4E4E"/>
      <path d="M103.599,236.046 C103.599,235.594 103.566,235.577 103.097,235.577 C102.026,236.631 100.503,236.648 99.817,236.648 L99.817,237.251 C100.218,237.251 101.323,237.251 102.244,236.782 L102.244,245.318 C102.244,245.87 102.244,246.088 100.57,246.088 L99.934,246.088 L99.934,246.69 C100.235,246.674 102.294,246.623 102.913,246.623 C103.432,246.623 105.541,246.674 105.909,246.69 L105.909,246.088 L105.273,246.088 C103.599,246.088 103.599,245.87 103.599,245.318 z" fill="#4E4E4E"/>
    </g>
    <g id="Layer_1">
      <path d="M98.791,259.655 C99.963,257.79 100.967,257.718 101.852,257.67 C102.139,257.647 102.163,257.24 102.163,257.216 C102.163,257.025 102.043,256.929 101.852,256.929 C101.23,256.929 100.537,257.001 99.891,257.001 C99.102,257.001 98.289,256.929 97.524,256.929 C97.381,256.929 97.07,256.929 97.07,257.384 C97.07,257.647 97.285,257.67 97.452,257.67 C98.098,257.718 98.552,257.957 98.552,258.46 C98.552,258.818 98.194,259.344 98.194,259.368 L90.853,271.036 L89.227,258.388 C89.227,257.981 89.777,257.67 90.877,257.67 C91.212,257.67 91.475,257.67 91.475,257.192 C91.475,256.977 91.284,256.929 91.14,256.929 C90.184,256.929 89.156,257.001 88.175,257.001 C87.745,257.001 87.291,256.977 86.86,256.977 C86.43,256.977 85.975,256.929 85.569,256.929 C85.402,256.929 85.115,256.929 85.115,257.384 C85.115,257.67 85.33,257.67 85.712,257.67 C87.051,257.67 87.075,257.886 87.147,258.483 L89.036,273.236 C89.108,273.714 89.203,273.786 89.514,273.786 C89.897,273.786 89.992,273.666 90.184,273.356 z" fill="#4E4E4E"/>
      <path d="M106.177,273.802 L105.608,273.802 C105.557,274.17 105.39,275.158 105.173,275.325 C105.039,275.425 103.75,275.425 103.516,275.425 L100.436,275.425 C102.193,273.869 102.779,273.4 103.783,272.613 C105.022,271.626 106.177,270.588 106.177,268.998 C106.177,266.973 104.403,265.734 102.26,265.734 C100.185,265.734 98.779,267.191 98.779,268.73 C98.779,269.584 99.499,269.668 99.666,269.668 C100.068,269.668 100.553,269.383 100.553,268.781 C100.553,268.479 100.436,267.894 99.566,267.894 C100.084,266.705 101.223,266.337 102.009,266.337 C103.683,266.337 104.553,267.643 104.553,268.998 C104.553,270.454 103.516,271.609 102.98,272.212 L98.946,276.195 C98.779,276.346 98.779,276.379 98.779,276.848 L105.675,276.848 z" fill="#4E4E4E"/>
    </g>
    <g id="Layer_1">
      <path d="M98.716,286.19 C99.888,284.325 100.892,284.254 101.777,284.206 C102.063,284.182 102.087,283.775 102.087,283.752 C102.087,283.56 101.968,283.465 101.777,283.465 C101.155,283.465 100.461,283.536 99.816,283.536 C99.027,283.536 98.214,283.465 97.449,283.465 C97.305,283.465 96.994,283.465 96.994,283.919 C96.994,284.182 97.21,284.206 97.377,284.206 C98.023,284.254 98.477,284.493 98.477,284.995 C98.477,285.353 98.118,285.88 98.118,285.903 L90.778,297.572 L89.152,284.923 C89.152,284.517 89.702,284.206 90.802,284.206 C91.136,284.206 91.399,284.206 91.399,283.728 C91.399,283.512 91.208,283.465 91.065,283.465 C90.108,283.465 89.08,283.536 88.1,283.536 C87.67,283.536 87.215,283.512 86.785,283.512 C86.354,283.512 85.9,283.465 85.494,283.465 C85.326,283.465 85.039,283.465 85.039,283.919 C85.039,284.206 85.255,284.206 85.637,284.206 C86.976,284.206 87,284.421 87.072,285.019 L88.961,299.771 C89.032,300.25 89.128,300.321 89.439,300.321 C89.821,300.321 89.917,300.202 90.108,299.891 z" fill="#4E4E4E"/>
      <path d="M102.218,297.793 C103.524,297.793 104.461,298.697 104.461,300.488 C104.461,302.563 103.256,303.182 102.285,303.182 C101.616,303.182 100.143,302.998 99.44,302.011 C100.227,301.977 100.411,301.425 100.411,301.074 C100.411,300.538 100.009,300.153 99.49,300.153 C99.022,300.153 98.553,300.438 98.553,301.124 C98.553,302.697 100.294,303.718 102.319,303.718 C104.645,303.718 106.252,302.161 106.252,300.488 C106.252,299.182 105.181,297.877 103.34,297.492 C105.097,296.856 105.733,295.601 105.733,294.58 C105.733,293.257 104.21,292.27 102.352,292.27 C100.495,292.27 99.072,293.174 99.072,294.513 C99.072,295.082 99.44,295.4 99.942,295.4 C100.461,295.4 100.796,295.015 100.796,294.546 C100.796,294.061 100.461,293.709 99.942,293.676 C100.528,292.939 101.683,292.755 102.302,292.755 C103.055,292.755 104.11,293.123 104.11,294.58 C104.11,295.283 103.875,296.052 103.44,296.571 C102.888,297.207 102.419,297.241 101.582,297.291 C101.164,297.324 101.131,297.324 101.047,297.341 C101.013,297.341 100.879,297.375 100.879,297.559 C100.879,297.793 101.03,297.793 101.315,297.793 z" fill="#4E4E4E"/>
    </g>
    <path d="M198.925,269.791 C170.922,269.791 170.236,273.414 156.062,257.429 C141.889,241.445 142.575,241.445 113.886,241.445" fill-opacity="0" stroke="#000000" stroke-width="1"/>
    <path d="M198.925,241.797 C170.922,241.797 170.236,238.175 156.062,254.159 C141.889,270.144 142.575,270.144 113.886,270.144" fill-opacity="0" stroke="#000000" stroke-width="1"/>
    <path d="M255.618,255.618 L283.622,255.618" fill-opacity="0" stroke="#000000" stroke-width="1"/>
    <path d="M255.618,283.965 L283.621,283.965" fill-opacity="0" stroke="#000000" stroke-width="1"/>
    <g id="Layer_1">
      <path d="M316.892,243.718 C317.49,242.666 318.063,241.806 319.57,241.686 C319.785,241.662 320.024,241.662 320.024,241.208 C320.024,241.112 319.928,240.945 319.737,240.945 C319.163,240.945 318.494,241.017 317.896,241.017 C317.083,241.017 316.198,240.945 315.409,240.945 C315.266,240.945 314.955,240.945 314.955,241.399 C314.955,241.662 315.17,241.686 315.314,241.686 C315.888,241.71 316.724,241.901 316.724,242.619 C316.724,242.882 316.605,243.073 316.414,243.408 L309.958,254.669 L309.073,242.81 C309.049,242.332 309.001,241.71 310.747,241.686 C311.153,241.686 311.392,241.686 311.392,241.208 C311.392,240.969 311.129,240.945 311.034,240.945 C310.077,240.945 309.073,241.017 308.117,241.017 C307.567,241.017 306.156,240.945 305.606,240.945 C305.463,240.945 305.152,240.945 305.152,241.423 C305.152,241.686 305.391,241.686 305.726,241.686 C306.778,241.686 306.945,241.83 306.993,242.284 L307.136,244.125 L301.087,254.669 L300.179,242.547 C300.179,242.26 300.179,241.71 301.996,241.686 C302.235,241.686 302.498,241.686 302.498,241.208 C302.498,240.945 302.211,240.945 302.163,240.945 C301.207,240.945 300.202,241.017 299.222,241.017 C298.385,241.017 297.525,240.945 296.712,240.945 C296.592,240.945 296.281,240.945 296.281,241.399 C296.281,241.686 296.496,241.686 296.879,241.686 C298.074,241.686 298.098,241.901 298.146,242.571 L299.222,257.18 C299.246,257.61 299.27,257.802 299.605,257.802 C299.892,257.802 299.963,257.658 300.179,257.299 L307.208,245.105 L308.093,257.18 C308.141,257.682 308.188,257.802 308.475,257.802 C308.786,257.802 308.93,257.563 309.049,257.347 z" fill="#4E4E4E"/>
      <path d="M323.155,250.219 C323.155,249.767 323.121,249.75 322.653,249.75 C321.581,250.805 320.058,250.821 319.372,250.821 L319.372,251.424 C319.774,251.424 320.878,251.424 321.799,250.955 L321.799,259.491 C321.799,260.043 321.799,260.261 320.125,260.261 L319.489,260.261 L319.489,260.864 C319.79,260.847 321.849,260.797 322.468,260.797 C322.987,260.797 325.096,260.847 325.464,260.864 L325.464,260.261 L324.828,260.261 C323.155,260.261 323.155,260.043 323.155,259.491 z" fill="#4E4E4E"/>
    </g>
    <g id="Layer_1">
      <path d="M316.624,272.417 C317.222,271.365 317.796,270.504 319.302,270.385 C319.517,270.361 319.756,270.361 319.756,269.907 C319.756,269.811 319.661,269.644 319.469,269.644 C318.895,269.644 318.226,269.715 317.628,269.715 C316.815,269.715 315.931,269.644 315.142,269.644 C314.998,269.644 314.687,269.644 314.687,270.098 C314.687,270.361 314.902,270.385 315.046,270.385 C315.62,270.409 316.457,270.6 316.457,271.317 C316.457,271.58 316.337,271.772 316.146,272.106 L309.69,283.368 L308.805,271.509 C308.781,271.03 308.734,270.409 310.479,270.385 C310.886,270.385 311.125,270.385 311.125,269.907 C311.125,269.668 310.862,269.644 310.766,269.644 C309.81,269.644 308.805,269.715 307.849,269.715 C307.299,269.715 305.888,269.644 305.338,269.644 C305.195,269.644 304.884,269.644 304.884,270.122 C304.884,270.385 305.123,270.385 305.458,270.385 C306.51,270.385 306.677,270.528 306.725,270.983 L306.869,272.824 L300.819,283.368 L299.911,271.246 C299.911,270.959 299.911,270.409 301.728,270.385 C301.967,270.385 302.23,270.385 302.23,269.907 C302.23,269.644 301.943,269.644 301.895,269.644 C300.939,269.644 299.935,269.715 298.954,269.715 C298.117,269.715 297.257,269.644 296.444,269.644 C296.324,269.644 296.013,269.644 296.013,270.098 C296.013,270.385 296.229,270.385 296.611,270.385 C297.807,270.385 297.831,270.6 297.878,271.27 L298.954,285.879 C298.978,286.309 299.002,286.5 299.337,286.5 C299.624,286.5 299.696,286.357 299.911,285.998 L306.94,273.804 L307.825,285.879 C307.873,286.381 307.921,286.5 308.208,286.5 C308.518,286.5 308.662,286.261 308.781,286.046 z" fill="#4E4E4E"/>
      <path d="M325.732,286.516 L325.163,286.516 C325.113,286.884 324.946,287.872 324.728,288.039 C324.594,288.14 323.305,288.14 323.071,288.14 L319.991,288.14 C321.749,286.583 322.335,286.115 323.339,285.328 C324.577,284.34 325.732,283.303 325.732,281.713 C325.732,279.687 323.958,278.449 321.816,278.449 C319.74,278.449 318.334,279.905 318.334,281.445 C318.334,282.298 319.054,282.382 319.221,282.382 C319.623,282.382 320.108,282.098 320.108,281.495 C320.108,281.194 319.991,280.608 319.121,280.608 C319.64,279.42 320.778,279.051 321.565,279.051 C323.238,279.051 324.109,280.357 324.109,281.713 C324.109,283.169 323.071,284.324 322.535,284.926 L318.502,288.91 C318.334,289.06 318.334,289.094 318.334,289.562 L325.23,289.562 z" fill="#4E4E4E"/>
    </g>
    <g id="Layer_1">
      <path d="M146.22,225.254 C145.838,225.254 145.503,225.254 145.168,225.589 C144.786,225.948 144.738,226.354 144.738,226.521 C144.738,227.095 145.168,227.358 145.623,227.358 C146.316,227.358 146.962,226.784 146.962,225.828 C146.962,224.656 145.838,223.772 144.14,223.772 C140.912,223.772 137.732,227.191 137.732,230.562 C137.732,232.714 139.119,234.603 141.606,234.603 C145.025,234.603 147.033,232.069 147.033,231.782 C147.033,231.638 146.89,231.471 146.746,231.471 C146.627,231.471 146.579,231.519 146.436,231.71 C144.547,234.077 141.94,234.077 141.654,234.077 C140.147,234.077 139.502,232.905 139.502,231.471 C139.502,230.49 139.98,228.171 140.793,226.689 C141.534,225.326 142.849,224.298 144.164,224.298 C144.977,224.298 145.886,224.609 146.22,225.254 z" fill="#4E4E4E"/>
      <path d="M152.705,227.283 C152.705,226.831 152.672,226.815 152.203,226.815 C151.132,227.869 149.609,227.886 148.923,227.886 L148.923,228.488 C149.324,228.488 150.429,228.488 151.35,228.02 L151.35,236.556 C151.35,237.108 151.35,237.325 149.676,237.325 L149.04,237.325 L149.04,237.928 C149.341,237.911 151.4,237.861 152.019,237.861 C152.538,237.861 154.647,237.911 155.015,237.928 L155.015,237.325 L154.379,237.325 C152.705,237.325 152.705,237.108 152.705,236.556 z" fill="#4E4E4E"/>
      <path d="M160.16,237.66 C160.16,238.581 159.993,239.652 158.855,240.723 C158.788,240.79 158.738,240.84 158.738,240.924 C158.738,241.041 158.872,241.158 158.972,241.158 C159.206,241.158 160.629,239.819 160.629,237.828 C160.629,236.79 160.227,236.003 159.457,236.003 C158.905,236.003 158.503,236.438 158.503,236.957 C158.503,237.493 158.888,237.928 159.474,237.928 C159.876,237.928 160.144,237.66 160.16,237.66 z" fill="#4E4E4E"/>
      <path d="M170.762,234.882 L170.193,234.882 C170.143,235.25 169.975,236.238 169.758,236.405 C169.624,236.505 168.335,236.505 168.101,236.505 L165.021,236.505 C166.778,234.949 167.364,234.48 168.368,233.694 C169.607,232.706 170.762,231.668 170.762,230.078 C170.762,228.053 168.988,226.815 166.845,226.815 C164.77,226.815 163.364,228.271 163.364,229.811 C163.364,230.664 164.084,230.748 164.251,230.748 C164.653,230.748 165.138,230.463 165.138,229.861 C165.138,229.559 165.021,228.974 164.151,228.974 C164.669,227.785 165.808,227.417 166.594,227.417 C168.268,227.417 169.138,228.723 169.138,230.078 C169.138,231.534 168.101,232.689 167.565,233.292 L163.531,237.275 C163.364,237.426 163.364,237.459 163.364,237.928 L170.26,237.928 z" fill="#4E4E4E"/>
    </g>
  </g>
</svg>
