<?xml version="1.0" encoding="UTF-8"?>
<!DOCTYPE svg PUBLIC "-//W3C//DTD SVG 1.1//EN" "http://www.w3.org/Graphics/SVG/1.1/DTD/svg11.dtd">
<svg version="1.1" xmlns="http://www.w3.org/2000/svg" xmlns:xlink="http://www.w3.org/1999/xlink" x="0" y="0" width="558.076" height="87.039" viewBox="0, 0, 558.076, 87.039">
  <g id="Layer_1" transform="translate(-14.173, -1189.551)">
    <g>
      <path d="M43.02,1191.051 L43.02,1247.744 L71.463,1233.571 L71.463,1205.224 L43.02,1191.051 z" fill="#FFFFFF"/>
      <path d="M43.02,1191.051 L43.02,1247.744 L71.463,1233.571 L71.463,1205.224 L43.02,1191.051 z" fill-opacity="0" stroke="#000000" stroke-width="1"/>
    </g>
    <g>
      <path d="M37.846,1233.571 L43.02,1233.571" fill-opacity="0" stroke="#000000" stroke-width="1"/>
      <path d="M37.846,1230.571 L29.846,1233.571 L37.846,1236.571 z" fill="#000000" fill-opacity="1" stroke="#000000" stroke-width="1" stroke-opacity="1"/>
    </g>
    <g>
      <path d="M113.886,1219.398 L113.886,1276.091 L142.329,1261.917 L142.329,1233.571 L113.886,1219.398 z" fill="#FFFFFF"/>
      <path d="M113.886,1219.398 L113.886,1276.091 L142.329,1261.917 L142.329,1233.571 L113.886,1219.398 z" fill-opacity="0" stroke="#000000" stroke-width="1"/>
    </g>
    <g>
      <path d="M80.366,1219.398 L85.539,1219.398" fill-opacity="0" stroke="#000000" stroke-width="1"/>
      <path d="M80.366,1216.398 L72.366,1219.398 L80.366,1222.398 z" fill="#000000" fill-opacity="1" stroke="#000000" stroke-width="1" stroke-opacity="1"/>
    </g>
    <g>
      <path d="M37.846,1261.917 L113.886,1261.917" fill-opacity="0" stroke="#000000" stroke-width="1"/>
      <path d="M37.846,1258.917 L29.846,1261.917 L37.846,1264.917 z" fill="#000000" fill-opacity="1" stroke="#000000" stroke-width="1" stroke-opacity="1"/>
    </g>
    <path d="M85.539,1219.398 C113.886,1219.398 85.443,1233.571 113.886,1233.571" fill-opacity="0" stroke="#000000" stroke-width="1"/>
    <g>
      <path d="M151.232,1247.744 L156.406,1247.744" fill-opacity="0" stroke="#000000" stroke-width="1"/>
      <path d="M151.232,1244.744 L143.232,1247.744 L151.232,1250.744 z" fill="#000000" fill-opacity="1" stroke="#000000" stroke-width="1" stroke-opacity="1"/>
    </g>
    <g id="Layer_1">
      <path d="M50.744,1213.207 C50.863,1212.705 51.102,1211.796 51.102,1211.677 C51.102,1211.27 50.816,1211.031 50.409,1211.031 C50.337,1211.031 49.668,1211.055 49.453,1211.892 L46.01,1225.736 C45.938,1226.023 45.938,1226.071 45.938,1226.119 C45.938,1226.477 46.201,1226.764 46.607,1226.764 C47.109,1226.764 47.396,1226.334 47.444,1226.262 C47.54,1226.047 47.851,1224.804 48.759,1221.121 C49.524,1221.767 50.6,1221.863 51.079,1221.863 C52.752,1221.863 53.685,1220.787 54.259,1220.117 C54.474,1221.193 55.358,1221.863 56.411,1221.863 C57.247,1221.863 57.797,1221.313 58.18,1220.547 C58.586,1219.687 58.897,1218.228 58.897,1218.18 C58.897,1217.941 58.682,1217.941 58.61,1217.941 C58.371,1217.941 58.347,1218.037 58.276,1218.372 C57.869,1219.926 57.439,1221.337 56.458,1221.337 C55.813,1221.337 55.741,1220.715 55.741,1220.237 C55.741,1219.711 56.028,1218.587 56.219,1217.75 L56.889,1215.168 C56.96,1214.809 57.2,1213.901 57.295,1213.542 C57.415,1212.992 57.654,1212.083 57.654,1211.94 C57.654,1211.509 57.319,1211.294 56.96,1211.294 C56.841,1211.294 56.219,1211.318 56.028,1212.131 L54.904,1216.602 C54.617,1217.798 54.354,1218.802 54.282,1219.041 C54.259,1219.161 53.111,1221.337 51.174,1221.337 C49.979,1221.337 49.405,1220.547 49.405,1219.256 C49.405,1218.563 49.572,1217.893 49.74,1217.224 z" fill="#4E4E4E"/>
      <path d="M65.235,1214.543 C65.235,1214.091 65.201,1214.074 64.733,1214.074 C63.661,1215.129 62.138,1215.145 61.452,1215.145 L61.452,1215.748 C61.854,1215.748 62.958,1215.748 63.879,1215.279 L63.879,1223.815 C63.879,1224.367 63.879,1224.585 62.205,1224.585 L61.569,1224.585 L61.569,1225.188 C61.87,1225.171 63.929,1225.121 64.548,1225.121 C65.067,1225.121 67.176,1225.171 67.544,1225.188 L67.544,1224.585 L66.908,1224.585 C65.235,1224.585 65.235,1224.367 65.235,1223.815 z" fill="#4E4E4E"/>
    </g>
    <g id="Layer_1">
      <path d="M120.801,1241.553 C120.921,1241.051 121.16,1240.143 121.16,1240.023 C121.16,1239.617 120.873,1239.378 120.466,1239.378 C120.395,1239.378 119.725,1239.402 119.51,1240.238 L116.067,1254.083 C115.995,1254.369 115.995,1254.417 115.995,1254.465 C115.995,1254.824 116.258,1255.111 116.665,1255.111 C117.167,1255.111 117.454,1254.68 117.501,1254.609 C117.597,1254.393 117.908,1253.15 118.816,1249.468 C119.582,1250.113 120.658,1250.209 121.136,1250.209 C122.809,1250.209 123.742,1249.133 124.316,1248.464 C124.531,1249.54 125.416,1250.209 126.468,1250.209 C127.305,1250.209 127.855,1249.659 128.237,1248.894 C128.644,1248.033 128.954,1246.575 128.954,1246.527 C128.954,1246.288 128.739,1246.288 128.667,1246.288 C128.428,1246.288 128.404,1246.383 128.333,1246.718 C127.926,1248.272 127.496,1249.683 126.516,1249.683 C125.87,1249.683 125.798,1249.061 125.798,1248.583 C125.798,1248.057 126.085,1246.933 126.276,1246.096 L126.946,1243.514 C127.018,1243.156 127.257,1242.247 127.352,1241.888 C127.472,1241.338 127.711,1240.43 127.711,1240.286 C127.711,1239.856 127.376,1239.641 127.018,1239.641 C126.898,1239.641 126.276,1239.665 126.085,1240.478 L124.961,1244.949 C124.674,1246.144 124.411,1247.149 124.34,1247.388 C124.316,1247.507 123.168,1249.683 121.231,1249.683 C120.036,1249.683 119.462,1248.894 119.462,1247.603 C119.462,1246.909 119.629,1246.24 119.797,1245.57 z" fill="#4E4E4E"/>
      <path d="M138.137,1250.488 L137.568,1250.488 C137.518,1250.856 137.351,1251.844 137.133,1252.011 C136.999,1252.111 135.71,1252.111 135.476,1252.111 L132.396,1252.111 C134.154,1250.555 134.74,1250.086 135.744,1249.3 C136.982,1248.312 138.137,1247.274 138.137,1245.684 C138.137,1243.659 136.363,1242.421 134.221,1242.421 C132.145,1242.421 130.739,1243.877 130.739,1245.417 C130.739,1246.27 131.459,1246.354 131.626,1246.354 C132.028,1246.354 132.514,1246.069 132.514,1245.467 C132.514,1245.165 132.396,1244.58 131.526,1244.58 C132.045,1243.391 133.183,1243.023 133.97,1243.023 C135.643,1243.023 136.514,1244.329 136.514,1245.684 C136.514,1247.14 135.476,1248.295 134.94,1248.898 L130.907,1252.881 C130.739,1253.032 130.739,1253.065 130.739,1253.534 L137.635,1253.534 z" fill="#4E4E4E"/>
    </g>
    <g>
      <path d="M37.846,1205.224 L43.02,1205.224" fill-opacity="0" stroke="#000000" stroke-width="1"/>
      <path d="M37.846,1202.224 L29.846,1205.224 L37.846,1208.224 z" fill="#000000" fill-opacity="1" stroke="#000000" stroke-width="1" stroke-opacity="1"/>
    </g>
    <path d="M22.135,1192.082 C21.705,1191.197 21.012,1190.551 19.936,1190.551 C17.138,1190.551 14.173,1194.066 14.173,1197.557 C14.173,1199.805 15.488,1201.383 17.353,1201.383 C17.831,1201.383 19.027,1201.287 20.462,1199.589 C20.653,1200.594 21.49,1201.383 22.637,1201.383 C23.474,1201.383 24.024,1200.833 24.407,1200.068 C24.813,1199.207 25.124,1197.748 25.124,1197.7 C25.124,1197.461 24.909,1197.461 24.837,1197.461 C24.598,1197.461 24.574,1197.557 24.502,1197.892 C24.096,1199.446 23.666,1200.857 22.685,1200.857 C22.04,1200.857 21.968,1200.235 21.968,1199.757 C21.968,1199.231 22.016,1199.039 22.279,1197.987 C22.542,1196.983 22.59,1196.744 22.805,1195.835 L23.666,1192.488 C23.833,1191.818 23.833,1191.771 23.833,1191.675 C23.833,1191.269 23.546,1191.029 23.14,1191.029 C22.566,1191.029 22.207,1191.556 22.135,1192.082 z M20.581,1198.274 C20.462,1198.705 20.462,1198.752 20.103,1199.159 C19.051,1200.474 18.071,1200.857 17.401,1200.857 C16.206,1200.857 15.871,1199.542 15.871,1198.609 C15.871,1197.413 16.636,1194.473 17.186,1193.373 C17.927,1191.962 19.003,1191.077 19.96,1191.077 C21.514,1191.077 21.848,1193.038 21.848,1193.181 C21.848,1193.325 21.801,1193.468 21.777,1193.588 z" fill="#4E4E4E" id="Layer_1"/>
    <path d="M18.764,1219.161 C18.764,1219.137 18.764,1218.898 18.453,1218.898 C17.903,1218.898 16.158,1219.089 15.536,1219.137 C15.345,1219.161 15.082,1219.185 15.082,1219.615 C15.082,1219.902 15.297,1219.902 15.656,1219.902 C16.803,1219.902 16.851,1220.069 16.851,1220.308 C16.851,1220.476 16.636,1221.289 16.516,1221.791 L14.556,1229.586 C14.269,1230.781 14.173,1231.164 14.173,1232 C14.173,1234.272 15.44,1235.754 17.21,1235.754 C20.031,1235.754 22.972,1232.192 22.972,1228.749 C22.972,1226.573 21.705,1224.923 19.792,1224.923 C18.692,1224.923 17.712,1225.616 16.995,1226.358 z M16.516,1228.199 C16.66,1227.673 16.66,1227.625 16.875,1227.362 C18.047,1225.808 19.123,1225.449 19.744,1225.449 C20.605,1225.449 21.251,1226.166 21.251,1227.697 C21.251,1229.107 20.462,1231.857 20.031,1232.766 C19.242,1234.368 18.142,1235.228 17.21,1235.228 C16.397,1235.228 15.608,1234.583 15.608,1232.813 C15.608,1232.359 15.608,1231.905 15.99,1230.399 z" fill="#4E4E4E" id="Layer_1"/>
    <path d="M22.661,1248.727 C22.279,1248.727 21.944,1248.727 21.609,1249.061 C21.227,1249.42 21.179,1249.826 21.179,1249.994 C21.179,1250.568 21.609,1250.831 22.064,1250.831 C22.757,1250.831 23.403,1250.257 23.403,1249.3 C23.403,1248.129 22.279,1247.244 20.581,1247.244 C17.353,1247.244 14.173,1250.663 14.173,1254.035 C14.173,1256.187 15.56,1258.075 18.047,1258.075 C21.466,1258.075 23.474,1255.541 23.474,1255.254 C23.474,1255.111 23.331,1254.943 23.187,1254.943 C23.068,1254.943 23.02,1254.991 22.877,1255.182 C20.988,1257.549 18.381,1257.549 18.095,1257.549 C16.588,1257.549 15.943,1256.378 15.943,1254.943 C15.943,1253.963 16.421,1251.644 17.234,1250.161 C17.975,1248.798 19.29,1247.77 20.605,1247.77 C21.418,1247.77 22.327,1248.081 22.661,1248.727 z" fill="#4E4E4E" id="Layer_1"/>
    <path d="M92.363,1201.858 C93.057,1201.858 94.826,1201.81 96.021,1201.308 C97.695,1200.59 97.815,1199.18 97.815,1198.845 C97.815,1197.793 96.906,1196.813 95.256,1196.813 C92.602,1196.813 88.992,1199.132 88.992,1203.316 C88.992,1205.755 90.403,1207.644 92.746,1207.644 C96.165,1207.644 98.173,1205.109 98.173,1204.823 C98.173,1204.679 98.03,1204.512 97.886,1204.512 C97.767,1204.512 97.719,1204.559 97.576,1204.751 C95.687,1207.118 93.081,1207.118 92.794,1207.118 C90.929,1207.118 90.713,1205.109 90.713,1204.344 C90.713,1204.057 90.737,1203.316 91.096,1201.858 z M91.239,1201.332 C92.172,1197.697 94.635,1197.339 95.256,1197.339 C96.38,1197.339 97.026,1198.032 97.026,1198.845 C97.026,1201.332 93.2,1201.332 92.22,1201.332 z" fill="#4E4E4E" id="Layer_1"/>
    <path d="M175.399,1233.334 C175.399,1233.31 175.399,1233.071 175.088,1233.071 C174.73,1233.071 172.458,1233.286 172.052,1233.334 C171.86,1233.358 171.717,1233.478 171.717,1233.789 C171.717,1234.075 171.932,1234.075 172.291,1234.075 C173.438,1234.075 173.486,1234.243 173.486,1234.482 L173.414,1234.96 L171.98,1240.627 C171.549,1239.742 170.856,1239.097 169.78,1239.097 C166.983,1239.097 164.018,1242.611 164.018,1246.102 C164.018,1248.35 165.333,1249.928 167.198,1249.928 C167.676,1249.928 168.872,1249.832 170.306,1248.135 C170.497,1249.139 171.334,1249.928 172.482,1249.928 C173.319,1249.928 173.869,1249.378 174.251,1248.613 C174.658,1247.752 174.969,1246.294 174.969,1246.246 C174.969,1246.007 174.753,1246.007 174.682,1246.007 C174.443,1246.007 174.419,1246.102 174.347,1246.437 C173.94,1247.991 173.51,1249.402 172.53,1249.402 C171.884,1249.402 171.812,1248.78 171.812,1248.302 C171.812,1247.728 171.86,1247.561 171.956,1247.154 z M170.426,1246.82 C170.306,1247.25 170.306,1247.298 169.947,1247.704 C168.895,1249.019 167.915,1249.402 167.246,1249.402 C166.05,1249.402 165.715,1248.087 165.715,1247.154 C165.715,1245.959 166.48,1243.018 167.03,1241.918 C167.772,1240.507 168.848,1239.623 169.804,1239.623 C171.358,1239.623 171.693,1241.583 171.693,1241.727 C171.693,1241.87 171.645,1242.014 171.621,1242.133 z" fill="#4E4E4E" id="Layer_1"/>
    <g id="Layer_1">
      <path d="M199.339,1234.183 C199.698,1234.183 200.152,1234.183 200.152,1233.705 C200.152,1233.227 199.698,1233.227 199.363,1233.227 L185.041,1233.227 C184.706,1233.227 184.252,1233.227 184.252,1233.705 C184.252,1234.183 184.706,1234.183 185.065,1234.183 z M199.363,1238.822 C199.698,1238.822 200.152,1238.822 200.152,1238.344 C200.152,1237.866 199.698,1237.866 199.339,1237.866 L185.065,1237.866 C184.706,1237.866 184.252,1237.866 184.252,1238.344 C184.252,1238.822 184.706,1238.822 185.041,1238.822 z" fill="#4E4E4E"/>
      <path d="M250.835,1252.763 L253.728,1245.111 L253.13,1245.111 C252.197,1247.598 249.663,1249.224 246.913,1249.941 C246.411,1250.061 244.068,1250.683 239.477,1250.683 L225.059,1250.683 L237.23,1236.408 C237.397,1236.217 237.445,1236.145 237.445,1236.026 C237.445,1235.978 237.445,1235.906 237.277,1235.667 L226.135,1220.436 L239.238,1220.436 C242.442,1220.436 244.618,1220.771 244.833,1220.819 C246.124,1221.01 248.204,1221.416 250.093,1222.612 C250.691,1222.995 252.317,1224.07 253.13,1226.007 L253.728,1226.007 L250.835,1219.288 L222.573,1219.288 C222.023,1219.288 221.999,1219.312 221.927,1219.456 C221.903,1219.527 221.903,1219.982 221.903,1220.245 L234.552,1237.556 L222.166,1252.069 C221.927,1252.356 221.927,1252.476 221.927,1252.5 C221.927,1252.763 222.142,1252.763 222.573,1252.763 z" fill="#4E4E4E"/>
      <path d="M214.963,1264.15 L216.604,1264.15 C216.938,1264.15 217.156,1264.15 217.156,1263.782 C217.156,1263.547 216.938,1263.547 216.637,1263.547 L215.081,1263.547 C215.466,1261.422 215.599,1260.652 215.733,1260.167 C215.817,1259.798 216.185,1259.447 216.587,1259.447 C216.604,1259.447 217.056,1259.447 217.374,1259.648 C216.687,1259.865 216.637,1260.468 216.637,1260.568 C216.637,1260.937 216.922,1261.188 217.307,1261.188 C217.759,1261.188 218.261,1260.803 218.261,1260.167 C218.261,1259.397 217.441,1258.978 216.587,1258.978 C215.85,1258.978 215.03,1259.397 214.578,1260.234 C214.244,1260.853 214.11,1261.606 213.758,1263.547 L212.436,1263.547 C212.101,1263.547 211.884,1263.547 211.884,1263.916 C211.884,1264.15 212.101,1264.15 212.403,1264.15 L213.641,1264.15 C213.624,1264.25 212.57,1270.276 212.168,1272.067 C212.085,1272.435 211.8,1273.707 210.997,1273.707 C210.98,1273.707 210.578,1273.707 210.26,1273.506 C210.947,1273.289 210.997,1272.686 210.997,1272.586 C210.997,1272.217 210.712,1271.966 210.327,1271.966 C209.875,1271.966 209.373,1272.351 209.373,1272.987 C209.373,1273.74 210.16,1274.176 210.997,1274.176 C212.068,1274.176 212.804,1273.071 213.005,1272.703 C213.608,1271.581 213.993,1269.523 214.026,1269.322 z" fill="#4E4E4E"/>
      <path d="M221.844,1270.493 C221.844,1271.414 221.677,1272.485 220.539,1273.556 C220.472,1273.623 220.421,1273.673 220.421,1273.757 C220.421,1273.874 220.555,1273.991 220.656,1273.991 C220.89,1273.991 222.313,1272.652 222.313,1270.661 C222.313,1269.623 221.911,1268.836 221.141,1268.836 C220.589,1268.836 220.187,1269.272 220.187,1269.79 C220.187,1270.326 220.572,1270.761 221.158,1270.761 C221.56,1270.761 221.827,1270.493 221.844,1270.493 z" fill="#4E4E4E"/>
      <path d="M228.189,1263.865 C228.206,1263.799 228.223,1263.698 228.223,1263.615 C228.223,1263.598 228.223,1263.38 227.955,1263.38 C227.938,1263.38 226.984,1263.464 226.867,1263.464 C226.549,1263.497 226.248,1263.514 225.93,1263.547 C225.662,1263.564 225.461,1263.581 225.461,1263.932 C225.461,1264.167 225.695,1264.167 225.896,1264.167 C226.699,1264.167 226.699,1264.267 226.699,1264.418 C226.699,1264.518 226.616,1264.853 226.549,1265.071 L225.712,1268.452 C225.294,1270.125 225.21,1270.46 225.21,1270.527 C225.21,1270.761 225.461,1270.761 225.528,1270.761 L225.796,1270.761 C227.285,1270.527 229.411,1269.74 231.202,1268.15 C233.478,1266.125 233.813,1263.949 233.813,1263.916 C233.813,1263.615 233.578,1263.38 233.244,1263.38 C232.658,1263.38 232.541,1263.849 232.39,1264.317 C231.721,1266.694 229.478,1269.255 226.633,1270.092 z" fill="#4E4E4E"/>
      <path d="M238.345,1265.551 C238.345,1265.192 238.309,1265.192 237.914,1265.192 C237.066,1265.957 235.739,1265.957 235.499,1265.957 L235.296,1265.957 L235.296,1266.483 L235.499,1266.483 C235.774,1266.483 236.551,1266.447 237.245,1266.148 L237.245,1272.126 C237.245,1272.496 237.245,1272.628 235.978,1272.628 L235.38,1272.628 L235.38,1273.154 C236.037,1273.106 237.101,1273.106 237.795,1273.106 C238.488,1273.106 239.552,1273.106 240.21,1273.154 L240.21,1272.628 L239.612,1272.628 C238.345,1272.628 238.345,1272.496 238.345,1272.126 z" fill="#4E4E4E"/>
      <path d="M246.449,1270.493 C246.449,1271.414 246.282,1272.485 245.144,1273.556 C245.077,1273.623 245.027,1273.673 245.027,1273.757 C245.027,1273.874 245.161,1273.991 245.261,1273.991 C245.495,1273.991 246.918,1272.652 246.918,1270.661 C246.918,1269.623 246.516,1268.836 245.746,1268.836 C245.194,1268.836 244.792,1269.272 244.792,1269.79 C244.792,1270.326 245.177,1270.761 245.763,1270.761 C246.165,1270.761 246.433,1270.493 246.449,1270.493 z" fill="#4E4E4E"/>
      <path d="M252.798,1263.865 C252.814,1263.799 252.831,1263.698 252.831,1263.615 C252.831,1263.598 252.831,1263.38 252.563,1263.38 C252.547,1263.38 251.593,1263.464 251.475,1263.464 C251.157,1263.497 250.856,1263.514 250.538,1263.547 C250.27,1263.564 250.07,1263.581 250.07,1263.932 C250.07,1264.167 250.304,1264.167 250.505,1264.167 C251.308,1264.167 251.308,1264.267 251.308,1264.418 C251.308,1264.518 251.224,1264.853 251.157,1265.071 L250.321,1268.452 C249.902,1270.125 249.819,1270.46 249.819,1270.527 C249.819,1270.761 250.07,1270.761 250.137,1270.761 L250.404,1270.761 C251.894,1270.527 254.02,1269.74 255.81,1268.15 C258.087,1266.125 258.421,1263.949 258.421,1263.916 C258.421,1263.615 258.187,1263.38 257.852,1263.38 C257.267,1263.38 257.149,1263.849 256.999,1264.317 C256.329,1266.694 254.086,1269.255 251.241,1270.092 z" fill="#4E4E4E"/>
      <path d="M265.223,1270.847 L264.721,1270.847 C264.685,1271.074 264.566,1271.815 264.375,1271.935 C264.279,1272.006 263.275,1272.006 263.095,1272.006 L260.752,1272.006 C261.541,1271.421 262.426,1270.751 263.143,1270.273 C264.219,1269.532 265.223,1268.838 265.223,1267.571 C265.223,1266.041 263.777,1265.192 262.067,1265.192 C260.453,1265.192 259.27,1266.124 259.27,1267.296 C259.27,1267.918 259.796,1268.025 259.963,1268.025 C260.286,1268.025 260.668,1267.81 260.668,1267.32 C260.668,1266.89 260.358,1266.65 259.987,1266.615 C260.322,1266.077 261.015,1265.718 261.816,1265.718 C262.976,1265.718 263.944,1266.411 263.944,1267.583 C263.944,1268.587 263.251,1269.352 262.33,1270.129 L259.413,1272.604 C259.294,1272.712 259.282,1272.712 259.27,1272.795 L259.27,1273.154 L264.829,1273.154 z" fill="#4E4E4E"/>
      <path d="M273.613,1247.98 L273.613,1247.023 L271.293,1247.023 L271.293,1225.026 L273.613,1225.026 L273.613,1224.069 L270.337,1224.069 L270.337,1247.98 z" fill="#4E4E4E"/>
      <path d="M281.374,1234.231 L283.694,1234.231 C285.487,1234.231 285.678,1234.614 285.678,1235.307 C285.678,1235.474 285.678,1235.761 285.511,1236.479 C285.463,1236.598 285.439,1236.694 285.439,1236.742 C285.439,1236.933 285.583,1237.029 285.726,1237.029 C285.965,1237.029 285.965,1236.957 286.085,1236.527 L287.4,1231.338 C287.472,1231.075 287.472,1231.027 287.472,1230.955 C287.472,1230.908 287.424,1230.693 287.185,1230.693 C286.946,1230.693 286.922,1230.812 286.826,1231.195 C286.324,1233.06 285.774,1233.49 283.742,1233.49 L281.566,1233.49 L283.096,1227.417 C283.311,1226.58 283.335,1226.484 284.387,1226.484 L287.543,1226.484 C290.484,1226.484 291.034,1227.273 291.034,1229.114 C291.034,1229.664 291.034,1229.76 290.962,1230.406 C290.915,1230.716 290.915,1230.764 290.915,1230.836 C290.915,1230.955 290.986,1231.123 291.202,1231.123 C291.465,1231.123 291.488,1230.979 291.536,1230.525 L292.015,1226.389 C292.086,1225.743 291.967,1225.743 291.369,1225.743 L279.653,1225.743 C279.175,1225.743 278.936,1225.743 278.936,1226.221 C278.936,1226.484 279.151,1226.484 279.605,1226.484 C280.49,1226.484 281.159,1226.484 281.159,1226.915 C281.159,1227.01 281.159,1227.058 281.04,1227.489 L277.884,1240.137 C277.644,1241.069 277.597,1241.261 275.708,1241.261 C275.301,1241.261 275.038,1241.261 275.038,1241.715 C275.038,1242.002 275.325,1242.002 275.397,1242.002 C276.09,1242.002 277.86,1241.93 278.553,1241.93 C279.342,1241.93 281.327,1242.002 282.116,1242.002 C282.331,1242.002 282.618,1242.002 282.618,1241.548 C282.618,1241.356 282.474,1241.309 282.474,1241.285 C282.403,1241.261 282.355,1241.261 281.805,1241.261 C281.279,1241.261 281.159,1241.261 280.561,1241.213 C279.868,1241.141 279.796,1241.046 279.796,1240.735 C279.796,1240.687 279.796,1240.543 279.892,1240.185 z" fill="#4E4E4E"/>
      <path d="M299.915,1224.12 C299.564,1223.567 298.995,1223.132 298.191,1223.132 C296.049,1223.132 293.873,1225.492 293.873,1227.902 C293.873,1229.526 294.961,1230.681 296.4,1230.681 C297.304,1230.681 298.108,1230.162 298.777,1229.509 C299.095,1230.513 300.066,1230.681 300.501,1230.681 C301.104,1230.681 301.522,1230.312 301.823,1229.794 C302.192,1229.141 302.409,1228.187 302.409,1228.12 C302.409,1227.902 302.192,1227.902 302.141,1227.902 C301.907,1227.902 301.89,1227.969 301.773,1228.421 C301.572,1229.224 301.254,1230.212 300.551,1230.212 C300.116,1230.212 299.999,1229.844 299.999,1229.392 C299.999,1229.107 300.133,1228.505 300.25,1228.07 C300.367,1227.618 300.535,1226.932 300.618,1226.563 L300.953,1225.291 C301.053,1224.856 301.254,1224.069 301.254,1223.986 C301.254,1223.618 300.953,1223.45 300.685,1223.45 C300.401,1223.45 300.016,1223.651 299.915,1224.12 z M298.844,1228.421 C298.727,1228.89 298.359,1229.224 297.991,1229.542 C297.84,1229.676 297.17,1230.212 296.451,1230.212 C295.831,1230.212 295.229,1229.777 295.229,1228.589 C295.229,1227.701 295.714,1225.86 296.099,1225.191 C296.869,1223.852 297.723,1223.601 298.191,1223.601 C299.363,1223.601 299.681,1224.873 299.681,1225.057 C299.681,1225.124 299.647,1225.241 299.631,1225.291 z" fill="#4E4E4E"/>
      <path d="M306.756,1230.245 C306.756,1231.166 306.588,1232.237 305.45,1233.308 C305.383,1233.375 305.333,1233.425 305.333,1233.509 C305.333,1233.626 305.467,1233.744 305.567,1233.744 C305.802,1233.744 307.224,1232.405 307.224,1230.413 C307.224,1229.375 306.823,1228.589 306.053,1228.589 C305.5,1228.589 305.099,1229.024 305.099,1229.542 C305.099,1230.078 305.484,1230.513 306.07,1230.513 C306.471,1230.513 306.739,1230.245 306.756,1230.245 z" fill="#4E4E4E"/>
      <path d="M313.328,1219.4 C313.345,1219.366 313.395,1219.149 313.395,1219.132 C313.395,1219.048 313.328,1218.898 313.128,1218.898 C312.793,1218.898 311.404,1219.031 310.985,1219.065 C310.851,1219.082 310.617,1219.099 310.617,1219.45 C310.617,1219.684 310.851,1219.684 311.052,1219.684 C311.856,1219.684 311.856,1219.802 311.856,1219.935 C311.856,1220.052 311.688,1220.722 311.588,1221.107 L311.203,1222.647 C311.052,1223.216 310.132,1226.881 310.098,1227.099 C310.014,1227.5 310.014,1227.718 310.014,1227.919 C310.014,1229.609 311.086,1230.681 312.475,1230.681 C314.567,1230.681 316.793,1228.404 316.793,1225.927 C316.793,1223.969 315.437,1223.132 314.282,1223.132 C313.412,1223.132 312.676,1223.618 312.174,1224.053 z M312.492,1230.212 C311.671,1230.212 311.203,1229.492 311.203,1228.505 C311.203,1227.885 311.353,1227.316 311.822,1225.425 C311.922,1225.107 311.922,1225.074 312.241,1224.705 C312.876,1223.969 313.63,1223.601 314.232,1223.601 C314.885,1223.601 315.454,1224.086 315.454,1225.224 C315.454,1225.911 315.086,1227.618 314.584,1228.589 C314.182,1229.409 313.345,1230.212 312.492,1230.212 z" fill="#4E4E4E"/>
      <path d="M320.855,1230.245 C320.855,1231.166 320.688,1232.237 319.55,1233.308 C319.483,1233.375 319.432,1233.425 319.432,1233.509 C319.432,1233.626 319.566,1233.744 319.667,1233.744 C319.901,1233.744 321.324,1232.405 321.324,1230.413 C321.324,1229.375 320.922,1228.589 320.152,1228.589 C319.6,1228.589 319.198,1229.024 319.198,1229.542 C319.198,1230.078 319.583,1230.513 320.169,1230.513 C320.571,1230.513 320.838,1230.245 320.855,1230.245 z" fill="#4E4E4E"/>
      <path d="M330.34,1224.103 C329.737,1224.203 329.486,1224.672 329.486,1225.04 C329.486,1225.492 329.838,1225.659 330.139,1225.659 C330.507,1225.659 331.093,1225.392 331.093,1224.588 C331.093,1223.45 329.788,1223.132 328.884,1223.132 C326.373,1223.132 324.047,1225.442 324.047,1227.768 C324.047,1229.208 325.051,1230.681 327.143,1230.681 C329.972,1230.681 331.294,1229.024 331.294,1228.789 C331.294,1228.689 331.143,1228.505 331.009,1228.505 C330.909,1228.505 330.876,1228.538 330.742,1228.672 C329.436,1230.212 327.478,1230.212 327.177,1230.212 C325.972,1230.212 325.436,1229.392 325.436,1228.354 C325.436,1227.869 325.67,1226.044 326.541,1224.89 C327.177,1224.069 328.047,1223.601 328.884,1223.601 C329.118,1223.601 329.922,1223.634 330.34,1224.103 z" fill="#4E4E4E"/>
      <path d="M299.09,1238.103 C299.107,1238.069 299.157,1237.852 299.157,1237.835 C299.157,1237.751 299.09,1237.601 298.889,1237.601 C298.554,1237.601 297.165,1237.735 296.747,1237.768 C296.613,1237.785 296.379,1237.802 296.379,1238.153 C296.379,1238.387 296.613,1238.387 296.814,1238.387 C297.617,1238.387 297.617,1238.505 297.617,1238.639 C297.617,1238.756 297.584,1238.856 297.55,1239.007 L296.596,1242.823 C296.245,1242.271 295.676,1241.835 294.872,1241.835 C292.73,1241.835 290.554,1244.195 290.554,1246.605 C290.554,1248.229 291.642,1249.384 293.081,1249.384 C293.985,1249.384 294.788,1248.865 295.458,1248.212 C295.776,1249.216 296.747,1249.384 297.182,1249.384 C297.784,1249.384 298.203,1249.016 298.504,1248.497 C298.872,1247.844 299.09,1246.89 299.09,1246.823 C299.09,1246.605 298.872,1246.605 298.822,1246.605 C298.588,1246.605 298.571,1246.672 298.454,1247.124 C298.253,1247.928 297.935,1248.915 297.232,1248.915 C296.797,1248.915 296.68,1248.547 296.68,1248.095 C296.68,1247.777 296.713,1247.626 296.763,1247.409 z M295.525,1247.124 C295.408,1247.593 295.04,1247.928 294.671,1248.246 C294.521,1248.38 293.851,1248.915 293.132,1248.915 C292.512,1248.915 291.91,1248.48 291.91,1247.292 C291.91,1246.405 292.395,1244.563 292.78,1243.894 C293.55,1242.555 294.404,1242.304 294.872,1242.304 C296.044,1242.304 296.362,1243.576 296.362,1243.76 C296.362,1243.827 296.328,1243.944 296.312,1243.994 z" fill="#4E4E4E"/>
      <path d="M336.532,1224.069 L333.257,1224.069 L333.257,1225.026 L335.576,1225.026 L335.576,1247.023 L333.257,1247.023 L333.257,1247.98 L336.532,1247.98 z" fill="#4E4E4E"/>
      <path d="M343.121,1226.697 C343.589,1226.697 344.911,1226.664 345.815,1226.346 C347.054,1225.911 347.288,1225.107 347.288,1224.605 C347.288,1223.684 346.368,1223.132 345.213,1223.132 C343.204,1223.132 340.493,1224.672 340.493,1227.534 C340.493,1229.224 341.547,1230.681 343.505,1230.681 C346.334,1230.681 347.656,1229.024 347.656,1228.789 C347.656,1228.689 347.506,1228.505 347.372,1228.505 C347.271,1228.505 347.238,1228.538 347.104,1228.672 C345.798,1230.212 343.84,1230.212 343.539,1230.212 C342.535,1230.212 341.865,1229.542 341.865,1228.187 C341.865,1227.952 341.865,1227.618 342.066,1226.697 z M342.2,1226.229 C342.886,1223.802 344.744,1223.601 345.213,1223.601 C345.949,1223.601 346.568,1223.969 346.568,1224.605 C346.568,1226.229 343.74,1226.229 343.02,1226.229 z" fill="#4E4E4E"/>
      <path d="M349.347,1233.208 C349.28,1233.459 349.28,1233.543 349.28,1233.559 C349.28,1233.928 349.581,1234.095 349.849,1234.095 C350.451,1234.095 350.585,1233.543 350.652,1233.258 C350.686,1233.174 351.02,1231.835 351.422,1230.195 C351.941,1230.547 352.61,1230.681 353.213,1230.681 C354.652,1230.681 355.59,1229.509 355.623,1229.475 C355.941,1230.63 357.096,1230.681 357.347,1230.681 C357.95,1230.681 358.368,1230.312 358.669,1229.794 C359.038,1229.141 359.255,1228.187 359.255,1228.12 C359.255,1227.902 359.038,1227.902 358.987,1227.902 C358.753,1227.902 358.736,1227.969 358.619,1228.421 C358.418,1229.224 358.1,1230.212 357.397,1230.212 C356.962,1230.212 356.845,1229.844 356.845,1229.392 C356.845,1229.107 356.979,1228.505 357.096,1228.07 C357.213,1227.618 357.381,1226.932 357.464,1226.563 L357.849,1225.074 C357.95,1224.655 358.134,1223.919 358.134,1223.835 C358.134,1223.5 357.866,1223.3 357.581,1223.3 C357.397,1223.3 357.079,1223.383 356.895,1223.701 C356.845,1223.802 356.711,1224.337 356.627,1224.672 L356.276,1226.061 L355.757,1228.153 C355.64,1228.572 355.64,1228.605 355.489,1228.823 C354.97,1229.559 354.234,1230.212 353.28,1230.212 C351.908,1230.212 351.908,1229.024 351.908,1228.722 C351.908,1228.287 351.958,1228.07 352.192,1227.166 C352.359,1226.429 352.393,1226.312 352.56,1225.659 L352.795,1224.722 C352.878,1224.371 353.046,1223.735 353.046,1223.668 C353.046,1223.366 352.811,1223.132 352.477,1223.132 C351.874,1223.132 351.723,1223.718 351.673,1223.919 z" fill="#4E4E4E"/>
      <path d="M364.83,1225.3 C364.83,1224.942 364.794,1224.942 364.399,1224.942 C363.55,1225.707 362.223,1225.707 361.984,1225.707 L361.781,1225.707 L361.781,1226.233 L361.984,1226.233 C362.259,1226.233 363.036,1226.197 363.73,1225.898 L363.73,1231.875 C363.73,1232.246 363.73,1232.378 362.462,1232.378 L361.865,1232.378 L361.865,1232.904 C362.522,1232.856 363.586,1232.856 364.28,1232.856 C364.973,1232.856 366.037,1232.856 366.695,1232.904 L366.695,1232.378 L366.097,1232.378 C364.83,1232.378 364.83,1232.246 364.83,1231.875 z" fill="#4E4E4E"/>
      <path d="M370.306,1233.208 C370.239,1233.459 370.239,1233.543 370.239,1233.559 C370.239,1233.928 370.541,1234.095 370.809,1234.095 C371.411,1234.095 371.545,1233.543 371.612,1233.258 C371.645,1233.174 371.98,1231.835 372.382,1230.195 C372.901,1230.547 373.57,1230.681 374.173,1230.681 C375.612,1230.681 376.549,1229.509 376.583,1229.475 C376.901,1230.63 378.056,1230.681 378.307,1230.681 C378.909,1230.681 379.328,1230.312 379.629,1229.794 C379.997,1229.141 380.215,1228.187 380.215,1228.12 C380.215,1227.902 379.997,1227.902 379.947,1227.902 C379.713,1227.902 379.696,1227.969 379.579,1228.421 C379.378,1229.224 379.06,1230.212 378.357,1230.212 C377.922,1230.212 377.805,1229.844 377.805,1229.392 C377.805,1229.107 377.939,1228.505 378.056,1228.07 C378.173,1227.618 378.34,1226.932 378.424,1226.563 L378.809,1225.074 C378.909,1224.655 379.093,1223.919 379.093,1223.835 C379.093,1223.5 378.826,1223.3 378.541,1223.3 C378.357,1223.3 378.039,1223.383 377.855,1223.701 C377.805,1223.802 377.671,1224.337 377.587,1224.672 L377.236,1226.061 L376.717,1228.153 C376.6,1228.572 376.6,1228.605 376.449,1228.823 C375.93,1229.559 375.194,1230.212 374.24,1230.212 C372.867,1230.212 372.867,1229.024 372.867,1228.722 C372.867,1228.287 372.917,1228.07 373.152,1227.166 C373.319,1226.429 373.353,1226.312 373.52,1225.659 L373.754,1224.722 C373.838,1224.371 374.005,1223.735 374.005,1223.668 C374.005,1223.366 373.771,1223.132 373.436,1223.132 C372.834,1223.132 372.683,1223.718 372.633,1223.919 z" fill="#4E4E4E"/>
      <path d="M388.07,1230.596 L387.568,1230.596 C387.532,1230.823 387.412,1231.565 387.221,1231.684 C387.125,1231.756 386.121,1231.756 385.942,1231.756 L383.599,1231.756 C384.388,1231.17 385.272,1230.501 385.99,1230.022 C387.066,1229.281 388.07,1228.588 388.07,1227.321 C388.07,1225.79 386.623,1224.942 384.914,1224.942 C383.3,1224.942 382.116,1225.874 382.116,1227.046 C382.116,1227.667 382.642,1227.775 382.81,1227.775 C383.132,1227.775 383.515,1227.56 383.515,1227.069 C383.515,1226.639 383.204,1226.4 382.833,1226.364 C383.168,1225.826 383.862,1225.468 384.663,1225.468 C385.822,1225.468 386.791,1226.161 386.791,1227.333 C386.791,1228.337 386.097,1229.102 385.177,1229.879 L382.26,1232.354 C382.14,1232.461 382.128,1232.461 382.116,1232.545 L382.116,1232.904 L387.675,1232.904 z" fill="#4E4E4E"/>
      <path d="M346.183,1242.605 L347.824,1242.605 C348.158,1242.605 348.376,1242.605 348.376,1242.237 C348.376,1242.003 348.158,1242.003 347.857,1242.003 L346.301,1242.003 C346.686,1239.877 346.819,1239.107 346.953,1238.622 C347.037,1238.254 347.405,1237.902 347.807,1237.902 C347.824,1237.902 348.276,1237.902 348.594,1238.103 C347.907,1238.321 347.857,1238.923 347.857,1239.024 C347.857,1239.392 348.142,1239.643 348.527,1239.643 C348.979,1239.643 349.481,1239.258 349.481,1238.622 C349.481,1237.852 348.661,1237.433 347.807,1237.433 C347.07,1237.433 346.25,1237.852 345.798,1238.689 C345.464,1239.308 345.33,1240.061 344.978,1242.003 L343.656,1242.003 C343.321,1242.003 343.104,1242.003 343.104,1242.371 C343.104,1242.605 343.321,1242.605 343.623,1242.605 L344.861,1242.605 C344.844,1242.706 343.79,1248.731 343.388,1250.522 C343.305,1250.89 343.02,1252.162 342.217,1252.162 C342.2,1252.162 341.798,1252.162 341.48,1251.961 C342.167,1251.744 342.217,1251.141 342.217,1251.041 C342.217,1250.672 341.932,1250.422 341.547,1250.422 C341.095,1250.422 340.593,1250.806 340.593,1251.443 C340.593,1252.196 341.38,1252.631 342.217,1252.631 C343.288,1252.631 344.024,1251.526 344.225,1251.158 C344.828,1250.036 345.213,1247.978 345.246,1247.777 z" fill="#4E4E4E"/>
      <path d="M354.771,1242.321 C354.788,1242.254 354.805,1242.153 354.805,1242.07 C354.805,1242.053 354.805,1241.835 354.537,1241.835 C354.52,1241.835 353.566,1241.919 353.449,1241.919 C353.131,1241.953 352.83,1241.969 352.512,1242.003 C352.244,1242.019 352.043,1242.036 352.043,1242.388 C352.043,1242.622 352.277,1242.622 352.478,1242.622 C353.282,1242.622 353.282,1242.722 353.282,1242.873 C353.282,1242.974 353.198,1243.308 353.131,1243.526 L352.294,1246.907 C351.876,1248.58 351.792,1248.915 351.792,1248.982 C351.792,1249.216 352.043,1249.216 352.11,1249.216 L352.378,1249.216 C353.868,1248.982 355.993,1248.195 357.784,1246.605 C360.06,1244.58 360.395,1242.404 360.395,1242.371 C360.395,1242.07 360.161,1241.835 359.826,1241.835 C359.24,1241.835 359.123,1242.304 358.972,1242.773 C358.303,1245.149 356.06,1247.71 353.215,1248.547 z" fill="#4E4E4E"/>
      <path d="M364.916,1244.003 C364.916,1243.645 364.88,1243.645 364.486,1243.645 C363.637,1244.41 362.31,1244.41 362.071,1244.41 L361.867,1244.41 L361.867,1244.936 L362.071,1244.936 C362.346,1244.936 363.123,1244.9 363.816,1244.601 L363.816,1250.579 C363.816,1250.949 363.816,1251.081 362.549,1251.081 L361.951,1251.081 L361.951,1251.607 C362.609,1251.559 363.673,1251.559 364.366,1251.559 C365.059,1251.559 366.123,1251.559 366.781,1251.607 L366.781,1251.081 L366.183,1251.081 C364.916,1251.081 364.916,1250.949 364.916,1250.579 z" fill="#4E4E4E"/>
      <path d="M373.692,1242.321 C373.709,1242.254 373.726,1242.153 373.726,1242.07 C373.726,1242.053 373.726,1241.835 373.458,1241.835 C373.441,1241.835 372.487,1241.919 372.37,1241.919 C372.052,1241.953 371.751,1241.969 371.433,1242.003 C371.165,1242.019 370.964,1242.036 370.964,1242.388 C370.964,1242.622 371.199,1242.622 371.399,1242.622 C372.203,1242.622 372.203,1242.722 372.203,1242.873 C372.203,1242.974 372.119,1243.308 372.052,1243.526 L371.215,1246.907 C370.797,1248.58 370.713,1248.915 370.713,1248.982 C370.713,1249.216 370.964,1249.216 371.031,1249.216 L371.299,1249.216 C372.789,1248.982 374.914,1248.195 376.705,1246.605 C378.981,1244.58 379.316,1242.404 379.316,1242.371 C379.316,1242.07 379.082,1241.835 378.747,1241.835 C378.161,1241.835 378.044,1242.304 377.893,1242.773 C377.224,1245.149 374.981,1247.71 372.136,1248.547 z" fill="#4E4E4E"/>
      <path d="M386.119,1249.299 L385.616,1249.299 C385.581,1249.527 385.461,1250.268 385.27,1250.387 C385.174,1250.459 384.17,1250.459 383.991,1250.459 L381.647,1250.459 C382.436,1249.873 383.321,1249.204 384.038,1248.726 C385.114,1247.984 386.119,1247.291 386.119,1246.024 C386.119,1244.494 384.672,1243.645 382.962,1243.645 C381.348,1243.645 380.165,1244.577 380.165,1245.749 C380.165,1246.37 380.691,1246.478 380.858,1246.478 C381.181,1246.478 381.564,1246.263 381.564,1245.773 C381.564,1245.342 381.253,1245.103 380.882,1245.067 C381.217,1244.529 381.91,1244.171 382.711,1244.171 C383.871,1244.171 384.839,1244.864 384.839,1246.036 C384.839,1247.04 384.146,1247.805 383.225,1248.582 L380.308,1251.057 C380.189,1251.164 380.177,1251.164 380.165,1251.248 L380.165,1251.607 L385.724,1251.607 z" fill="#4E4E4E"/>
    </g>
    <g>
      <path d="M439.87,1219.398 L439.87,1276.091 L468.313,1261.917 L468.313,1233.571 L439.87,1219.398 z" fill="#FFFFFF"/>
      <path d="M439.87,1219.398 L439.87,1276.091 L468.313,1261.917 L468.313,1233.571 L439.87,1219.398 z" fill-opacity="0" stroke="#000000" stroke-width="1"/>
    </g>
    <g>
      <path d="M434.697,1261.917 L439.87,1261.917" fill-opacity="0" stroke="#000000" stroke-width="1"/>
      <path d="M434.697,1258.917 L426.697,1261.917 L434.697,1264.917 z" fill="#000000" fill-opacity="1" stroke="#000000" stroke-width="1" stroke-opacity="1"/>
    </g>
    <g>
      <path d="M510.736,1191.051 L510.736,1247.744 L539.179,1233.571 L539.179,1205.224 L510.736,1191.051 z" fill="#FFFFFF"/>
      <path d="M510.736,1191.051 L510.736,1247.744 L539.179,1233.571 L539.179,1205.224 L510.736,1191.051 z" fill-opacity="0" stroke="#000000" stroke-width="1"/>
    </g>
    <g>
      <path d="M477.217,1247.744 L482.39,1247.744" fill-opacity="0" stroke="#000000" stroke-width="1"/>
      <path d="M477.217,1244.744 L469.217,1247.744 L477.217,1250.744 z" fill="#000000" fill-opacity="1" stroke="#000000" stroke-width="1" stroke-opacity="1"/>
    </g>
    <g>
      <path d="M434.697,1205.224 L510.736,1205.224" fill-opacity="0" stroke="#000000" stroke-width="1"/>
      <path d="M434.697,1202.224 L426.697,1205.224 L434.697,1208.224 z" fill="#000000" fill-opacity="1" stroke="#000000" stroke-width="1" stroke-opacity="1"/>
    </g>
    <path d="M482.39,1247.744 C510.736,1247.744 482.293,1233.571 510.736,1233.571" fill-opacity="0" stroke="#000000" stroke-width="1"/>
    <g>
      <path d="M548.083,1219.398 L553.256,1219.398" fill-opacity="0" stroke="#000000" stroke-width="1"/>
      <path d="M548.083,1216.398 L540.083,1219.398 L548.083,1222.398 z" fill="#000000" fill-opacity="1" stroke="#000000" stroke-width="1" stroke-opacity="1"/>
    </g>
    <g>
      <path d="M434.697,1233.571 L439.87,1233.571" fill-opacity="0" stroke="#000000" stroke-width="1"/>
      <path d="M434.697,1230.571 L426.697,1233.571 L434.697,1236.571 z" fill="#000000" fill-opacity="1" stroke="#000000" stroke-width="1" stroke-opacity="1"/>
    </g>
    <path d="M418.986,1192.082 C418.555,1191.197 417.862,1190.551 416.786,1190.551 C413.989,1190.551 411.024,1194.066 411.024,1197.557 C411.024,1199.805 412.339,1201.383 414.204,1201.383 C414.682,1201.383 415.877,1201.287 417.312,1199.589 C417.503,1200.594 418.34,1201.383 419.488,1201.383 C420.325,1201.383 420.875,1200.833 421.257,1200.068 C421.664,1199.207 421.975,1197.748 421.975,1197.7 C421.975,1197.461 421.759,1197.461 421.688,1197.461 C421.449,1197.461 421.425,1197.557 421.353,1197.892 C420.946,1199.446 420.516,1200.857 419.536,1200.857 C418.89,1200.857 418.818,1200.235 418.818,1199.757 C418.818,1199.231 418.866,1199.039 419.129,1197.987 C419.392,1196.983 419.44,1196.744 419.655,1195.835 L420.516,1192.488 C420.683,1191.818 420.683,1191.771 420.683,1191.675 C420.683,1191.269 420.396,1191.029 419.99,1191.029 C419.416,1191.029 419.057,1191.556 418.986,1192.082 z M417.432,1198.274 C417.312,1198.705 417.312,1198.752 416.953,1199.159 C415.901,1200.474 414.921,1200.857 414.252,1200.857 C413.056,1200.857 412.721,1199.542 412.721,1198.609 C412.721,1197.413 413.486,1194.473 414.036,1193.373 C414.778,1191.962 415.854,1191.077 416.81,1191.077 C418.364,1191.077 418.699,1193.038 418.699,1193.181 C418.699,1193.325 418.651,1193.468 418.627,1193.588 z" fill="#4E4E4E" id="Layer_1"/>
    <path d="M415.614,1219.161 C415.614,1219.137 415.614,1218.898 415.304,1218.898 C414.754,1218.898 413.008,1219.089 412.387,1219.137 C412.195,1219.161 411.932,1219.185 411.932,1219.615 C411.932,1219.902 412.147,1219.902 412.506,1219.902 C413.654,1219.902 413.702,1220.069 413.702,1220.308 C413.702,1220.476 413.486,1221.289 413.367,1221.791 L411.406,1229.586 C411.119,1230.781 411.024,1231.164 411.024,1232 C411.024,1234.272 412.291,1235.754 414.06,1235.754 C416.882,1235.754 419.823,1232.192 419.823,1228.749 C419.823,1226.573 418.555,1224.923 416.643,1224.923 C415.543,1224.923 414.562,1225.616 413.845,1226.358 z M413.367,1228.199 C413.51,1227.673 413.51,1227.625 413.725,1227.362 C414.897,1225.808 415.973,1225.449 416.595,1225.449 C417.456,1225.449 418.101,1226.166 418.101,1227.697 C418.101,1229.107 417.312,1231.857 416.882,1232.766 C416.093,1234.368 414.993,1235.228 414.06,1235.228 C413.247,1235.228 412.458,1234.583 412.458,1232.813 C412.458,1232.359 412.458,1231.905 412.841,1230.399 z" fill="#4E4E4E" id="Layer_1"/>
    <path d="M419.512,1248.727 C419.129,1248.727 418.794,1248.727 418.46,1249.061 C418.077,1249.42 418.029,1249.826 418.029,1249.994 C418.029,1250.568 418.46,1250.831 418.914,1250.831 C419.607,1250.831 420.253,1250.257 420.253,1249.3 C420.253,1248.129 419.129,1247.244 417.432,1247.244 C414.204,1247.244 411.024,1250.663 411.024,1254.035 C411.024,1256.187 412.41,1258.075 414.897,1258.075 C418.316,1258.075 420.325,1255.541 420.325,1255.254 C420.325,1255.111 420.181,1254.943 420.038,1254.943 C419.918,1254.943 419.87,1254.991 419.727,1255.182 C417.838,1257.549 415.232,1257.549 414.945,1257.549 C413.439,1257.549 412.793,1256.378 412.793,1254.943 C412.793,1253.963 413.271,1251.644 414.084,1250.161 C414.825,1248.798 416.14,1247.77 417.456,1247.77 C418.268,1247.77 419.177,1248.081 419.512,1248.727 z" fill="#4E4E4E" id="Layer_1"/>
    <path d="M572.249,1204.988 C572.249,1204.964 572.249,1204.725 571.939,1204.725 C571.58,1204.725 569.308,1204.94 568.902,1204.988 C568.711,1205.012 568.567,1205.131 568.567,1205.442 C568.567,1205.729 568.782,1205.729 569.141,1205.729 C570.289,1205.729 570.337,1205.896 570.337,1206.135 L570.265,1206.614 L568.83,1212.28 C568.4,1211.396 567.706,1210.75 566.63,1210.75 C563.833,1210.75 560.868,1214.265 560.868,1217.756 C560.868,1220.003 562.183,1221.582 564.048,1221.582 C564.526,1221.582 565.722,1221.486 567.157,1219.788 C567.348,1220.792 568.185,1221.582 569.332,1221.582 C570.169,1221.582 570.719,1221.032 571.102,1220.266 C571.508,1219.406 571.819,1217.947 571.819,1217.899 C571.819,1217.66 571.604,1217.66 571.532,1217.66 C571.293,1217.66 571.269,1217.756 571.197,1218.091 C570.791,1219.645 570.361,1221.056 569.38,1221.056 C568.735,1221.056 568.663,1220.434 568.663,1219.956 C568.663,1219.382 568.711,1219.214 568.806,1218.808 z M567.276,1218.473 C567.157,1218.904 567.157,1218.951 566.798,1219.358 C565.746,1220.673 564.766,1221.056 564.096,1221.056 C562.901,1221.056 562.566,1219.74 562.566,1218.808 C562.566,1217.612 563.331,1214.672 563.881,1213.572 C564.622,1212.161 565.698,1211.276 566.654,1211.276 C568.209,1211.276 568.543,1213.237 568.543,1213.38 C568.543,1213.524 568.495,1213.667 568.472,1213.787 z" fill="#4E4E4E" id="Layer_1"/>
    <g id="Layer_1">
      <path d="M448.82,1239.641 C448.82,1239.617 448.82,1239.378 448.51,1239.378 C447.96,1239.378 446.214,1239.569 445.593,1239.617 C445.401,1239.641 445.138,1239.665 445.138,1240.095 C445.138,1240.382 445.353,1240.382 445.712,1240.382 C446.86,1240.382 446.908,1240.549 446.908,1240.788 C446.908,1240.956 446.621,1242.079 446.453,1242.725 L444.995,1248.583 C444.899,1248.942 444.732,1249.611 444.732,1249.659 C444.732,1249.922 444.971,1249.946 445.114,1249.946 L445.449,1249.946 C447.123,1249.659 449.729,1248.727 452.192,1246.431 C455.348,1243.49 455.994,1240.238 455.994,1240.023 C455.994,1239.617 455.707,1239.378 455.3,1239.378 C455.109,1239.378 454.559,1239.473 454.368,1240.167 C452.837,1245.594 449.203,1248.272 446.477,1249.157 z" fill="#4E4E4E"/>
      <path d="M460.882,1242.889 C460.882,1242.437 460.848,1242.421 460.38,1242.421 C459.309,1243.475 457.786,1243.492 457.099,1243.492 L457.099,1244.094 C457.501,1244.094 458.606,1244.094 459.526,1243.626 L459.526,1252.161 C459.526,1252.714 459.526,1252.931 457.852,1252.931 L457.216,1252.931 L457.216,1253.534 C457.518,1253.517 459.576,1253.467 460.196,1253.467 C460.715,1253.467 462.823,1253.517 463.192,1253.534 L463.192,1252.931 L462.556,1252.931 C460.882,1252.931 460.882,1252.714 460.882,1252.161 z" fill="#4E4E4E"/>
    </g>
    <g id="Layer_1">
      <path d="M519.049,1214.536 C519.049,1214.512 519.049,1214.273 518.738,1214.273 C518.188,1214.273 516.442,1214.464 515.821,1214.512 C515.629,1214.536 515.366,1214.559 515.366,1214.99 C515.366,1215.277 515.582,1215.277 515.94,1215.277 C517.088,1215.277 517.136,1215.444 517.136,1215.683 C517.136,1215.851 516.849,1216.974 516.681,1217.62 L515.223,1223.478 C515.127,1223.837 514.96,1224.506 514.96,1224.554 C514.96,1224.817 515.199,1224.841 515.343,1224.841 L515.677,1224.841 C517.351,1224.554 519.957,1223.621 522.42,1221.326 C525.576,1218.385 526.222,1215.133 526.222,1214.918 C526.222,1214.512 525.935,1214.273 525.528,1214.273 C525.337,1214.273 524.787,1214.368 524.596,1215.062 C523.065,1220.489 519.431,1223.167 516.705,1224.052 z" fill="#4E4E4E"/>
      <path d="M533.955,1225.383 L533.386,1225.383 C533.336,1225.751 533.169,1226.738 532.951,1226.906 C532.817,1227.006 531.528,1227.006 531.294,1227.006 L528.215,1227.006 C529.972,1225.45 530.558,1224.981 531.562,1224.194 C532.8,1223.207 533.955,1222.169 533.955,1220.579 C533.955,1218.554 532.181,1217.315 530.039,1217.315 C527.963,1217.315 526.558,1218.772 526.558,1220.311 C526.558,1221.165 527.277,1221.249 527.445,1221.249 C527.846,1221.249 528.332,1220.964 528.332,1220.362 C528.332,1220.06 528.215,1219.474 527.344,1219.474 C527.863,1218.286 529.001,1217.918 529.788,1217.918 C531.461,1217.918 532.332,1219.224 532.332,1220.579 C532.332,1222.035 531.294,1223.19 530.759,1223.793 L526.725,1227.776 C526.558,1227.927 526.558,1227.96 526.558,1228.429 L533.453,1228.429 z" fill="#4E4E4E"/>
    </g>
    <path d="M503.571,1254.537 L505.627,1254.537 C506.105,1254.537 506.344,1254.537 506.344,1254.059 C506.344,1253.796 506.105,1253.796 505.699,1253.796 L503.714,1253.796 L504.216,1251.07 C504.312,1250.568 504.647,1248.87 504.79,1248.583 C505.005,1248.129 505.412,1247.77 505.914,1247.77 C506.01,1247.77 506.631,1247.77 507.086,1248.201 C506.034,1248.296 505.794,1249.133 505.794,1249.492 C505.794,1250.042 506.225,1250.329 506.679,1250.329 C507.301,1250.329 507.994,1249.802 507.994,1248.894 C507.994,1247.794 506.894,1247.244 505.914,1247.244 C505.101,1247.244 503.595,1247.675 502.877,1250.042 C502.734,1250.544 502.662,1250.783 502.088,1253.796 L500.439,1253.796 C499.984,1253.796 499.721,1253.796 499.721,1254.25 C499.721,1254.537 499.936,1254.537 500.391,1254.537 L501.969,1254.537 L500.176,1263.981 C499.745,1266.301 499.339,1268.476 498.095,1268.476 C498,1268.476 497.402,1268.476 496.948,1268.046 C498.048,1267.974 498.263,1267.114 498.263,1266.755 C498.263,1266.205 497.832,1265.918 497.378,1265.918 C496.756,1265.918 496.063,1266.444 496.063,1267.353 C496.063,1268.429 497.115,1269.002 498.095,1269.002 C499.41,1269.002 500.367,1267.592 500.797,1266.683 C501.562,1265.177 502.112,1262.284 502.136,1262.116 z" fill="#4E4E4E" id="Layer_1"/>
  </g>
</svg>
