<?xml version="1.0" encoding="UTF-8"?>
<!DOCTYPE svg PUBLIC "-//W3C//DTD SVG 1.1//EN" "http://www.w3.org/Graphics/SVG/1.1/DTD/svg11.dtd">
<svg version="1.1" xmlns="http://www.w3.org/2000/svg" xmlns:xlink="http://www.w3.org/1999/xlink" x="0" y="0" width="288.52" height="115.386" viewBox="0, 0, 288.52, 115.386">
  <g id="Layer_1" transform="translate(-41.894, -887.614)">
    <g>
      <path d="M127.902,889.114 L127.902,945.807 L156.344,931.634 L156.344,903.287 L127.902,889.114 z" fill="#FFFFFF"/>
      <path d="M127.902,889.114 L127.902,945.807 L156.344,931.634 L156.344,903.287 L127.902,889.114 z" fill-opacity="0" stroke="#000000" stroke-width="1"/>
    </g>
    <g>
      <path d="M80.209,903.271 L127.902,903.271" fill-opacity="0" stroke="#000000" stroke-width="1"/>
      <path d="M80.209,900.271 L72.209,903.271 L80.209,906.271 z" fill="#000000" fill-opacity="1" stroke="#000000" stroke-width="1" stroke-opacity="1"/>
    </g>
    <g>
      <path d="M80.209,931.634 L127.902,931.634" fill-opacity="0" stroke="#000000" stroke-width="1"/>
      <path d="M80.209,928.634 L72.209,931.634 L80.209,934.634 z" fill="#000000" fill-opacity="1" stroke="#000000" stroke-width="1" stroke-opacity="1"/>
    </g>
    <g>
      <path d="M198.768,917.461 L198.768,974.154 L227.211,959.98 L227.211,931.634 L198.768,917.461 z" fill="#FFFFFF"/>
      <path d="M198.768,917.461 L198.768,974.154 L227.211,959.98 L227.211,931.634 L198.768,917.461 z" fill-opacity="0" stroke="#000000" stroke-width="1"/>
    </g>
    <g>
      <path d="M165.248,917.461 L170.421,917.461" fill-opacity="0" stroke="#000000" stroke-width="1"/>
      <path d="M165.248,914.461 L157.248,917.461 L165.248,920.461 z" fill="#000000" fill-opacity="1" stroke="#000000" stroke-width="1" stroke-opacity="1"/>
    </g>
    <g>
      <path d="M122.728,959.98 L198.768,959.98" fill-opacity="0" stroke="#000000" stroke-width="1"/>
      <path d="M122.728,956.98 L114.728,959.98 L122.728,962.98 z" fill="#000000" fill-opacity="1" stroke="#000000" stroke-width="1" stroke-opacity="1"/>
    </g>
    <path d="M170.421,917.461 C198.768,917.461 170.325,931.634 198.768,931.634" fill-opacity="0" stroke="#000000" stroke-width="1"/>
    <g>
      <path d="M236.114,945.807 L241.287,945.807" fill-opacity="0" stroke="#000000" stroke-width="1"/>
      <path d="M236.114,942.807 L228.114,945.807 L236.114,948.807 z" fill="#000000" fill-opacity="1" stroke="#000000" stroke-width="1" stroke-opacity="1"/>
    </g>
    <g>
      <path d="M269.634,945.807 L269.634,1002.5 L298.077,988.327 L298.077,959.98 L269.634,945.807 z" fill="#FFFFFF"/>
      <path d="M269.634,945.807 L269.634,1002.5 L298.077,988.327 L298.077,959.98 L269.634,945.807 z" fill-opacity="0" stroke="#000000" stroke-width="1"/>
    </g>
    <g>
      <path d="M122.728,988.327 L269.634,988.327" fill-opacity="0" stroke="#000000" stroke-width="1"/>
      <path d="M122.728,985.327 L114.728,988.327 L122.728,991.327 z" fill="#000000" fill-opacity="1" stroke="#000000" stroke-width="1" stroke-opacity="1"/>
    </g>
    <path d="M241.288,945.807 C269.634,945.807 241.191,959.98 269.634,959.98" fill-opacity="0" stroke="#000000" stroke-width="1"/>
    <g>
      <path d="M309.154,974.154 L314.327,974.154" fill-opacity="0" stroke="#000000" stroke-width="1"/>
      <path d="M309.154,971.154 L301.154,974.154 L309.154,977.154 z" fill="#000000" fill-opacity="1" stroke="#000000" stroke-width="1" stroke-opacity="1"/>
    </g>
    <g id="Layer_1">
      <path d="M50.324,890.144 C49.894,889.26 49.201,888.614 48.125,888.614 C45.327,888.614 42.362,892.129 42.362,895.62 C42.362,897.867 43.677,899.445 45.542,899.445 C46.02,899.445 47.216,899.35 48.651,897.652 C48.842,898.656 49.679,899.445 50.826,899.445 C51.663,899.445 52.213,898.896 52.596,898.13 C53.002,897.27 53.313,895.811 53.313,895.763 C53.313,895.524 53.098,895.524 53.026,895.524 C52.787,895.524 52.763,895.62 52.691,895.955 C52.285,897.509 51.855,898.919 50.874,898.919 C50.229,898.919 50.157,898.298 50.157,897.82 C50.157,897.294 50.205,897.102 50.468,896.05 C50.731,895.046 50.779,894.807 50.994,893.898 L51.855,890.551 C52.022,889.881 52.022,889.834 52.022,889.738 C52.022,889.331 51.735,889.092 51.329,889.092 C50.755,889.092 50.396,889.618 50.324,890.144 z M48.77,896.337 C48.651,896.768 48.651,896.815 48.292,897.222 C47.24,898.537 46.26,898.919 45.59,898.919 C44.395,898.919 44.06,897.604 44.06,896.672 C44.06,895.476 44.825,892.535 45.375,891.436 C46.116,890.025 47.192,889.14 48.148,889.14 C49.703,889.14 50.037,891.101 50.037,891.244 C50.037,891.388 49.99,891.531 49.966,891.651 z" fill="#4E4E4E"/>
      <path d="M59.651,892.126 C59.651,891.674 59.618,891.657 59.149,891.657 C58.078,892.711 56.555,892.728 55.869,892.728 L55.869,893.331 C56.27,893.331 57.375,893.331 58.295,892.862 L58.295,901.398 C58.295,901.95 58.295,902.168 56.622,902.168 L55.986,902.168 L55.986,902.771 C56.287,902.754 58.346,902.704 58.965,902.704 C59.484,902.704 61.593,902.754 61.961,902.771 L61.961,902.168 L61.325,902.168 C59.651,902.168 59.651,901.95 59.651,901.398 z" fill="#4E4E4E"/>
    </g>
    <g id="Layer_1">
      <path d="M50.057,918.491 C49.626,917.606 48.933,916.961 47.857,916.961 C45.059,916.961 42.094,920.475 42.094,923.966 C42.094,926.214 43.409,927.792 45.274,927.792 C45.753,927.792 46.948,927.696 48.383,925.999 C48.574,927.003 49.411,927.792 50.559,927.792 C51.395,927.792 51.945,927.242 52.328,926.477 C52.734,925.616 53.045,924.158 53.045,924.11 C53.045,923.871 52.83,923.871 52.758,923.871 C52.519,923.871 52.495,923.966 52.424,924.301 C52.017,925.855 51.587,927.266 50.606,927.266 C49.961,927.266 49.889,926.644 49.889,926.166 C49.889,925.64 49.937,925.449 50.2,924.397 C50.463,923.392 50.511,923.153 50.726,922.245 L51.587,918.897 C51.754,918.228 51.754,918.18 51.754,918.084 C51.754,917.678 51.467,917.439 51.061,917.439 C50.487,917.439 50.128,917.965 50.057,918.491 z M48.502,924.684 C48.383,925.114 48.383,925.162 48.024,925.568 C46.972,926.883 45.992,927.266 45.322,927.266 C44.127,927.266 43.792,925.951 43.792,925.018 C43.792,923.823 44.557,920.882 45.107,919.782 C45.848,918.371 46.924,917.487 47.881,917.487 C49.435,917.487 49.77,919.447 49.77,919.591 C49.77,919.734 49.722,919.878 49.698,919.997 z" fill="#4E4E4E"/>
      <path d="M62.229,928.071 L61.66,928.071 C61.609,928.439 61.442,929.426 61.224,929.594 C61.091,929.694 59.802,929.694 59.567,929.694 L56.488,929.694 C58.245,928.138 58.831,927.669 59.835,926.882 C61.074,925.895 62.229,924.857 62.229,923.267 C62.229,921.242 60.454,920.003 58.312,920.003 C56.237,920.003 54.831,921.46 54.831,922.999 C54.831,923.853 55.551,923.937 55.718,923.937 C56.12,923.937 56.605,923.652 56.605,923.05 C56.605,922.748 56.488,922.163 55.617,922.163 C56.136,920.974 57.274,920.606 58.061,920.606 C59.735,920.606 60.605,921.911 60.605,923.267 C60.605,924.723 59.567,925.878 59.032,926.481 L54.998,930.464 C54.831,930.615 54.831,930.648 54.831,931.117 L61.727,931.117 z" fill="#4E4E4E"/>
    </g>
    <path d="M329.6,969.72 C329.218,969.72 328.883,969.72 328.548,970.055 C328.166,970.414 328.118,970.82 328.118,970.988 C328.118,971.561 328.548,971.824 329.003,971.824 C329.696,971.824 330.341,971.251 330.341,970.294 C330.341,969.123 329.218,968.238 327.52,968.238 C324.292,968.238 321.112,971.657 321.112,975.028 C321.112,977.18 322.499,979.069 324.986,979.069 C328.405,979.069 330.413,976.535 330.413,976.248 C330.413,976.104 330.27,975.937 330.126,975.937 C330.007,975.937 329.959,975.985 329.815,976.176 C327.927,978.543 325.32,978.543 325.033,978.543 C323.527,978.543 322.881,977.372 322.881,975.937 C322.881,974.957 323.36,972.637 324.173,971.155 C324.914,969.792 326.229,968.764 327.544,968.764 C328.357,968.764 329.266,969.075 329.6,969.72 z" fill="#4E4E4E" id="Layer_1"/>
    <g id="Layer_1">
      <path d="M172.422,895.107 C173.115,895.107 174.885,895.059 176.08,894.557 C177.754,893.84 177.874,892.429 177.874,892.094 C177.874,891.042 176.965,890.062 175.315,890.062 C172.661,890.062 169.051,892.381 169.051,896.565 C169.051,899.004 170.461,900.893 172.805,900.893 C176.224,900.893 178.232,898.359 178.232,898.072 C178.232,897.928 178.089,897.761 177.945,897.761 C177.826,897.761 177.778,897.809 177.634,898 C175.746,900.367 173.139,900.367 172.852,900.367 C170.987,900.367 170.772,898.359 170.772,897.594 C170.772,897.307 170.796,896.565 171.155,895.107 z M171.298,894.581 C172.231,890.946 174.693,890.588 175.315,890.588 C176.439,890.588 177.085,891.281 177.085,892.094 C177.085,894.581 173.259,894.581 172.279,894.581 z" fill="#4E4E4E"/>
      <path d="M184.691,893.573 C184.691,893.121 184.658,893.105 184.189,893.105 C183.118,894.159 181.595,894.176 180.909,894.176 L180.909,894.778 C181.31,894.778 182.415,894.778 183.336,894.31 L183.336,902.846 C183.336,903.398 183.336,903.616 181.662,903.616 L181.026,903.616 L181.026,904.218 C181.327,904.201 183.386,904.151 184.005,904.151 C184.524,904.151 186.633,904.201 187.001,904.218 L187.001,903.616 L186.365,903.616 C184.691,903.616 184.691,903.398 184.691,902.846 z" fill="#4E4E4E"/>
    </g>
    <g id="Layer_1">
      <path d="M243.894,923.51 C244.588,923.51 246.357,923.462 247.553,922.96 C249.226,922.243 249.346,920.832 249.346,920.497 C249.346,919.445 248.437,918.465 246.788,918.465 C244.133,918.465 240.523,920.784 240.523,924.969 C240.523,927.407 241.934,929.296 244.277,929.296 C247.696,929.296 249.705,926.762 249.705,926.475 C249.705,926.331 249.561,926.164 249.418,926.164 C249.298,926.164 249.25,926.212 249.107,926.403 C247.218,928.77 244.612,928.77 244.325,928.77 C242.46,928.77 242.245,926.762 242.245,925.997 C242.245,925.71 242.268,924.969 242.627,923.51 z M242.771,922.984 C243.703,919.35 246.166,918.991 246.788,918.991 C247.911,918.991 248.557,919.684 248.557,920.497 C248.557,922.984 244.731,922.984 243.751,922.984 z" fill="#4E4E4E"/>
      <path d="M259.009,929.575 L258.44,929.575 C258.39,929.943 258.222,930.931 258.005,931.098 C257.871,931.199 256.582,931.199 256.348,931.199 L253.268,931.199 C255.026,929.642 255.611,929.173 256.616,928.387 C257.854,927.399 259.009,926.362 259.009,924.772 C259.009,922.746 257.235,921.508 255.093,921.508 C253.017,921.508 251.611,922.964 251.611,924.504 C251.611,925.357 252.331,925.441 252.498,925.441 C252.9,925.441 253.385,925.156 253.385,924.554 C253.385,924.253 253.268,923.667 252.398,923.667 C252.917,922.479 254.055,922.11 254.841,922.11 C256.515,922.11 257.385,923.416 257.385,924.772 C257.385,926.228 256.348,927.383 255.812,927.985 L251.779,931.969 C251.611,932.119 251.611,932.153 251.611,932.621 L258.507,932.621 z" fill="#4E4E4E"/>
    </g>
    <g id="Layer_1">
      <path d="M135.626,911.27 C135.745,910.768 135.984,909.859 135.984,909.74 C135.984,909.333 135.697,909.094 135.291,909.094 C135.219,909.094 134.55,909.118 134.335,909.955 L130.891,923.799 C130.82,924.086 130.82,924.134 130.82,924.181 C130.82,924.54 131.083,924.827 131.489,924.827 C131.991,924.827 132.278,924.397 132.326,924.325 C132.422,924.11 132.733,922.866 133.641,919.184 C134.406,919.83 135.482,919.925 135.96,919.925 C137.634,919.925 138.567,918.849 139.14,918.18 C139.356,919.256 140.24,919.925 141.292,919.925 C142.129,919.925 142.679,919.375 143.062,918.61 C143.468,917.75 143.779,916.291 143.779,916.243 C143.779,916.004 143.564,916.004 143.492,916.004 C143.253,916.004 143.229,916.1 143.157,916.435 C142.751,917.989 142.321,919.399 141.34,919.399 C140.695,919.399 140.623,918.778 140.623,918.3 C140.623,917.773 140.91,916.65 141.101,915.813 L141.771,913.231 C141.842,912.872 142.081,911.963 142.177,911.605 C142.297,911.055 142.536,910.146 142.536,910.003 C142.536,909.572 142.201,909.357 141.842,909.357 C141.723,909.357 141.101,909.381 140.91,910.194 L139.786,914.665 C139.499,915.861 139.236,916.865 139.164,917.104 C139.14,917.224 137.993,919.399 136.056,919.399 C134.861,919.399 134.287,918.61 134.287,917.319 C134.287,916.626 134.454,915.956 134.621,915.287 z" fill="#4E4E4E"/>
      <path d="M150.117,912.606 C150.117,912.154 150.083,912.137 149.614,912.137 C148.543,913.191 147.02,913.208 146.334,913.208 L146.334,913.811 C146.736,913.811 147.84,913.811 148.761,913.342 L148.761,921.878 C148.761,922.43 148.761,922.648 147.087,922.648 L146.451,922.648 L146.451,923.25 C146.752,923.234 148.811,923.183 149.43,923.183 C149.949,923.183 152.058,923.234 152.426,923.25 L152.426,922.648 L151.79,922.648 C150.117,922.648 150.117,922.43 150.117,921.878 z" fill="#4E4E4E"/>
    </g>
    <g id="Layer_1">
      <path d="M205.683,939.616 C205.803,939.114 206.042,938.206 206.042,938.086 C206.042,937.68 205.755,937.441 205.348,937.441 C205.276,937.441 204.607,937.465 204.392,938.301 L200.949,952.145 C200.877,952.432 200.877,952.48 200.877,952.528 C200.877,952.887 201.14,953.174 201.546,953.174 C202.049,953.174 202.336,952.743 202.383,952.671 C202.479,952.456 202.79,951.213 203.698,947.531 C204.464,948.176 205.539,948.272 206.018,948.272 C207.691,948.272 208.624,947.196 209.198,946.526 C209.413,947.602 210.298,948.272 211.35,948.272 C212.187,948.272 212.736,947.722 213.119,946.957 C213.526,946.096 213.836,944.638 213.836,944.59 C213.836,944.351 213.621,944.351 213.549,944.351 C213.31,944.351 213.286,944.446 213.215,944.781 C212.808,946.335 212.378,947.746 211.397,947.746 C210.752,947.746 210.68,947.124 210.68,946.646 C210.68,946.12 210.967,944.996 211.158,944.159 L211.828,941.577 C211.9,941.218 212.139,940.31 212.234,939.951 C212.354,939.401 212.593,938.493 212.593,938.349 C212.593,937.919 212.258,937.704 211.9,937.704 C211.78,937.704 211.158,937.728 210.967,938.54 L209.843,943.012 C209.556,944.207 209.293,945.211 209.222,945.451 C209.198,945.57 208.05,947.746 206.113,947.746 C204.918,947.746 204.344,946.957 204.344,945.666 C204.344,944.972 204.511,944.303 204.679,943.633 z" fill="#4E4E4E"/>
      <path d="M223.019,948.551 L222.45,948.551 C222.4,948.919 222.232,949.906 222.015,950.074 C221.881,950.174 220.592,950.174 220.358,950.174 L217.278,950.174 C219.036,948.618 219.621,948.149 220.626,947.362 C221.864,946.375 223.019,945.337 223.019,943.747 C223.019,941.722 221.245,940.483 219.103,940.483 C217.027,940.483 215.621,941.94 215.621,943.479 C215.621,944.333 216.341,944.417 216.508,944.417 C216.91,944.417 217.395,944.132 217.395,943.53 C217.395,943.228 217.278,942.643 216.408,942.643 C216.927,941.454 218.065,941.086 218.852,941.086 C220.525,941.086 221.396,942.391 221.396,943.747 C221.396,945.203 220.358,946.358 219.822,946.961 L215.789,950.944 C215.621,951.095 215.621,951.128 215.621,951.597 L222.517,951.597 z" fill="#4E4E4E"/>
    </g>
    <g id="Layer_1">
      <path d="M277.015,967.963 C277.134,967.461 277.374,966.552 277.374,966.433 C277.374,966.026 277.087,965.787 276.68,965.787 C276.608,965.787 275.939,965.811 275.724,966.648 L272.281,980.492 C272.209,980.779 272.209,980.827 272.209,980.874 C272.209,981.233 272.472,981.52 272.878,981.52 C273.38,981.52 273.667,981.09 273.715,981.018 C273.811,980.803 274.122,979.559 275.03,975.877 C275.795,976.523 276.871,976.618 277.35,976.618 C279.023,976.618 279.956,975.542 280.53,974.873 C280.745,975.949 281.63,976.618 282.682,976.618 C283.518,976.618 284.068,976.068 284.451,975.303 C284.857,974.443 285.168,972.984 285.168,972.936 C285.168,972.697 284.953,972.697 284.881,972.697 C284.642,972.697 284.618,972.793 284.547,973.128 C284.14,974.682 283.71,976.092 282.729,976.092 C282.084,976.092 282.012,975.471 282.012,974.993 C282.012,974.466 282.299,973.343 282.49,972.506 L283.16,969.924 C283.232,969.565 283.471,968.656 283.566,968.298 C283.686,967.748 283.925,966.839 283.925,966.696 C283.925,966.265 283.59,966.05 283.232,966.05 C283.112,966.05 282.49,966.074 282.299,966.887 L281.175,971.358 C280.888,972.554 280.625,973.558 280.554,973.797 C280.53,973.917 279.382,976.092 277.445,976.092 C276.25,976.092 275.676,975.303 275.676,974.012 C275.676,973.319 275.843,972.649 276.011,971.98 z" fill="#4E4E4E"/>
      <path d="M290.468,974.353 C291.774,974.353 292.711,975.257 292.711,977.048 C292.711,979.123 291.506,979.743 290.535,979.743 C289.865,979.743 288.393,979.558 287.69,978.571 C288.476,978.537 288.66,977.985 288.66,977.634 C288.66,977.098 288.259,976.713 287.74,976.713 C287.271,976.713 286.803,976.998 286.803,977.684 C286.803,979.257 288.543,980.278 290.568,980.278 C292.895,980.278 294.502,978.722 294.502,977.048 C294.502,975.742 293.431,974.437 291.589,974.052 C293.347,973.416 293.983,972.161 293.983,971.14 C293.983,969.817 292.46,968.83 290.602,968.83 C288.744,968.83 287.321,969.734 287.321,971.073 C287.321,971.642 287.69,971.96 288.192,971.96 C288.711,971.96 289.045,971.575 289.045,971.106 C289.045,970.621 288.711,970.269 288.192,970.236 C288.778,969.499 289.932,969.315 290.552,969.315 C291.305,969.315 292.359,969.684 292.359,971.14 C292.359,971.843 292.125,972.613 291.69,973.131 C291.138,973.767 290.669,973.801 289.832,973.851 C289.414,973.885 289.38,973.885 289.296,973.901 C289.263,973.901 289.129,973.935 289.129,974.119 C289.129,974.353 289.28,974.353 289.564,974.353 z" fill="#4E4E4E"/>
    </g>
    <g>
      <path d="M85.382,945.807 C99.555,945.807 113.728,945.807 113.728,959.98 C113.728,974.154 99.555,974.154 85.382,974.154" fill-opacity="0" stroke="#000000" stroke-width="1"/>
      <path d="M85.382,945.807 L85.382,974.154" fill-opacity="0" stroke="#000000" stroke-width="1"/>
    </g>
    <g>
      <path d="M85.382,974.154 C99.555,974.154 113.728,974.154 113.728,988.327 C113.728,1002.5 99.555,1002.5 85.382,1002.5" fill-opacity="0" stroke="#000000" stroke-width="1"/>
      <path d="M85.382,974.154 L85.382,1002.5" fill-opacity="0" stroke="#000000" stroke-width="1"/>
    </g>
    <g>
      <path d="M76.382,959.98 L71.209,959.98" fill-opacity="0" stroke="#000000" stroke-width="1"/>
      <path d="M76.382,962.98 L84.382,959.98 L76.382,956.98 z" fill="#000000" fill-opacity="1" stroke="#000000" stroke-width="1" stroke-opacity="1"/>
    </g>
    <g>
      <path d="M76.382,988.327 L71.209,988.327" fill-opacity="0" stroke="#000000" stroke-width="1"/>
      <path d="M76.382,991.327 L84.382,988.327 L76.382,985.327 z" fill="#000000" fill-opacity="1" stroke="#000000" stroke-width="1" stroke-opacity="1"/>
    </g>
    <g id="Layer_1">
      <path d="M51.687,946.048 L51.687,945.307 L43.056,945.307 L43.056,946.048 z" fill="#4E4E4E"/>
      <path d="M49.981,950.376 C49.551,949.491 48.857,948.846 47.781,948.846 C44.984,948.846 42.019,952.361 42.019,955.852 C42.019,958.099 43.334,959.677 45.199,959.677 C45.677,959.677 46.873,959.581 48.307,957.884 C48.499,958.888 49.336,959.677 50.483,959.677 C51.32,959.677 51.87,959.127 52.253,958.362 C52.659,957.501 52.97,956.043 52.97,955.995 C52.97,955.756 52.755,955.756 52.683,955.756 C52.444,955.756 52.42,955.852 52.348,956.186 C51.942,957.74 51.511,959.151 50.531,959.151 C49.886,959.151 49.814,958.529 49.814,958.051 C49.814,957.525 49.862,957.334 50.125,956.282 C50.388,955.278 50.435,955.039 50.651,954.13 L51.511,950.783 C51.679,950.113 51.679,950.065 51.679,949.97 C51.679,949.563 51.392,949.324 50.985,949.324 C50.412,949.324 50.053,949.85 49.981,950.376 z M48.427,956.569 C48.307,956.999 48.307,957.047 47.949,957.453 C46.897,958.769 45.916,959.151 45.247,959.151 C44.051,959.151 43.717,957.836 43.717,956.904 C43.717,955.708 44.482,952.767 45.032,951.667 C45.773,950.256 46.849,949.372 47.805,949.372 C49.36,949.372 49.694,951.332 49.694,951.476 C49.694,951.619 49.646,951.763 49.623,951.882 z" fill="#4E4E4E"/>
      <path d="M58.27,957.412 C59.576,957.412 60.513,958.316 60.513,960.107 C60.513,962.182 59.308,962.801 58.337,962.801 C57.668,962.801 56.195,962.617 55.492,961.63 C56.279,961.596 56.463,961.044 56.463,960.692 C56.463,960.157 56.061,959.772 55.542,959.772 C55.074,959.772 54.605,960.056 54.605,960.743 C54.605,962.316 56.346,963.337 58.371,963.337 C60.697,963.337 62.304,961.78 62.304,960.107 C62.304,958.801 61.233,957.496 59.392,957.111 C61.149,956.475 61.785,955.219 61.785,954.198 C61.785,952.876 60.262,951.889 58.404,951.889 C56.546,951.889 55.124,952.792 55.124,954.131 C55.124,954.701 55.492,955.018 55.994,955.018 C56.513,955.018 56.848,954.634 56.848,954.165 C56.848,953.68 56.513,953.328 55.994,953.295 C56.58,952.558 57.735,952.374 58.354,952.374 C59.107,952.374 60.162,952.742 60.162,954.198 C60.162,954.901 59.927,955.671 59.492,956.19 C58.94,956.826 58.471,956.86 57.634,956.91 C57.216,956.943 57.182,956.943 57.099,956.96 C57.065,956.96 56.931,956.993 56.931,957.178 C56.931,957.412 57.082,957.412 57.367,957.412 z" fill="#4E4E4E"/>
    </g>
    <g id="Layer_1">
      <path d="M51.562,974.395 L51.562,973.654 L42.93,973.654 L42.93,974.395 z" fill="#4E4E4E"/>
      <path d="M49.856,978.722 C49.425,977.838 48.732,977.192 47.656,977.192 C44.858,977.192 41.894,980.707 41.894,984.198 C41.894,986.445 43.209,988.024 45.074,988.024 C45.552,988.024 46.747,987.928 48.182,986.23 C48.373,987.235 49.21,988.024 50.358,988.024 C51.195,988.024 51.745,987.474 52.127,986.708 C52.534,985.848 52.844,984.389 52.844,984.341 C52.844,984.102 52.629,984.102 52.558,984.102 C52.318,984.102 52.295,984.198 52.223,984.533 C51.816,986.087 51.386,987.498 50.406,987.498 C49.76,987.498 49.688,986.876 49.688,986.398 C49.688,985.872 49.736,985.68 49.999,984.628 C50.262,983.624 50.31,983.385 50.525,982.476 L51.386,979.129 C51.553,978.459 51.553,978.412 51.553,978.316 C51.553,977.91 51.266,977.67 50.86,977.67 C50.286,977.67 49.927,978.196 49.856,978.722 z M48.301,984.915 C48.182,985.346 48.182,985.393 47.823,985.8 C46.771,987.115 45.791,987.498 45.121,987.498 C43.926,987.498 43.591,986.182 43.591,985.25 C43.591,984.054 44.356,981.114 44.906,980.014 C45.647,978.603 46.723,977.718 47.68,977.718 C49.234,977.718 49.569,979.679 49.569,979.822 C49.569,979.966 49.521,980.109 49.497,980.229 z" fill="#4E4E4E"/>
      <path d="M62.429,988.604 L62.429,988.001 L60.572,988.001 L60.572,980.536 C60.572,980.185 60.572,980.068 60.203,980.068 C60.003,980.068 59.936,980.068 59.768,980.302 L54.228,988.001 L54.228,988.604 L59.149,988.604 L59.149,989.976 C59.149,990.545 59.149,990.746 57.793,990.746 L57.341,990.746 L57.341,991.349 C58.178,991.315 59.249,991.282 59.852,991.282 C60.471,991.282 61.542,991.315 62.379,991.349 L62.379,990.746 L61.927,990.746 C60.572,990.746 60.572,990.545 60.572,989.976 L60.572,988.604 z M59.266,981.875 L59.266,988.001 L54.848,988.001 z" fill="#4E4E4E"/>
    </g>
    <g id="Layer_1">
      <path d="M86.034,959.064 C87.325,957.677 88.018,957.079 88.879,956.338 C88.879,956.314 90.362,955.047 91.222,954.186 C93.494,951.963 94.02,950.815 94.02,950.719 C94.02,950.48 93.805,950.48 93.757,950.48 C93.589,950.48 93.518,950.528 93.398,950.743 C92.681,951.891 92.179,952.274 91.605,952.274 C91.031,952.274 90.744,951.915 90.385,951.508 C89.931,950.958 89.525,950.48 88.736,950.48 C86.942,950.48 85.843,952.704 85.843,953.206 C85.843,953.326 85.914,953.469 86.129,953.469 C86.345,953.469 86.392,953.349 86.44,953.206 C86.895,952.106 88.281,952.082 88.473,952.082 C88.975,952.082 89.429,952.25 89.979,952.441 C90.935,952.8 91.198,952.8 91.82,952.8 C90.959,953.828 88.951,955.549 88.497,955.932 L86.345,957.94 C84.719,959.542 83.882,960.905 83.882,961.073 C83.882,961.312 84.121,961.312 84.169,961.312 C84.36,961.312 84.408,961.264 84.551,961.001 C85.101,960.164 85.819,959.518 86.584,959.518 C87.134,959.518 87.373,959.734 87.971,960.427 C88.377,960.929 88.807,961.312 89.501,961.312 C91.868,961.312 93.255,958.275 93.255,957.629 C93.255,957.51 93.159,957.39 92.968,957.39 C92.753,957.39 92.705,957.534 92.633,957.701 C92.083,959.255 90.553,959.71 89.764,959.71 C89.286,959.71 88.855,959.566 88.353,959.399 C87.54,959.088 87.181,958.992 86.679,958.992 C86.632,958.992 86.249,958.992 86.034,959.064 z" fill="#4E4E4E"/>
      <path d="M101.038,958.243 C100.687,957.691 100.118,957.255 99.314,957.255 C97.172,957.255 94.996,959.615 94.996,962.026 C94.996,963.649 96.084,964.804 97.524,964.804 C98.427,964.804 99.231,964.285 99.9,963.632 C100.218,964.637 101.189,964.804 101.624,964.804 C102.227,964.804 102.645,964.436 102.946,963.917 C103.315,963.264 103.532,962.31 103.532,962.243 C103.532,962.026 103.315,962.026 103.264,962.026 C103.03,962.026 103.013,962.093 102.896,962.544 C102.695,963.348 102.377,964.335 101.674,964.335 C101.239,964.335 101.122,963.967 101.122,963.515 C101.122,963.231 101.256,962.628 101.373,962.193 C101.49,961.741 101.658,961.055 101.741,960.687 L102.076,959.415 C102.177,958.979 102.377,958.193 102.377,958.109 C102.377,957.741 102.076,957.574 101.808,957.574 C101.524,957.574 101.139,957.774 101.038,958.243 z M99.967,962.544 C99.85,963.013 99.482,963.348 99.114,963.666 C98.963,963.8 98.294,964.335 97.574,964.335 C96.955,964.335 96.352,963.9 96.352,962.712 C96.352,961.825 96.837,959.984 97.222,959.314 C97.992,957.975 98.846,957.724 99.314,957.724 C100.486,957.724 100.804,958.996 100.804,959.18 C100.804,959.247 100.771,959.364 100.754,959.415 z" fill="#4E4E4E"/>
      <path d="M108.291,963.07 C109.391,963.07 110.12,963.751 110.12,964.935 C110.12,966.154 109.367,966.8 108.303,966.8 C108.171,966.8 106.749,966.8 106.139,966.178 C106.629,966.106 106.773,965.736 106.773,965.449 C106.773,965.007 106.438,964.72 106.043,964.72 C105.661,964.72 105.302,964.971 105.302,965.473 C105.302,966.716 106.713,967.29 108.339,967.29 C110.299,967.29 111.519,966.106 111.519,964.947 C111.519,963.966 110.646,963.13 109.283,962.819 C110.718,962.353 111.1,961.444 111.1,960.774 C111.1,959.794 109.881,959.065 108.375,959.065 C106.904,959.065 105.721,959.687 105.721,960.763 C105.721,961.324 106.175,961.468 106.402,961.468 C106.749,961.468 107.083,961.217 107.083,960.786 C107.083,960.511 106.94,960.177 106.51,960.105 C107.024,959.555 108.088,959.519 108.339,959.519 C109.211,959.519 109.833,959.961 109.833,960.774 C109.833,961.468 109.379,962.556 108.124,962.628 C107.789,962.639 107.741,962.651 107.43,962.663 C107.299,962.675 107.167,962.687 107.167,962.867 C107.167,963.07 107.287,963.07 107.502,963.07 z" fill="#4E4E4E"/>
    </g>
    <g id="Layer_1">
      <path d="M87.37,988.137 C88.662,986.75 89.355,986.153 90.216,985.411 C90.216,985.387 91.698,984.12 92.559,983.259 C94.83,981.036 95.356,979.888 95.356,979.792 C95.356,979.553 95.141,979.553 95.093,979.553 C94.926,979.553 94.854,979.601 94.735,979.816 C94.017,980.964 93.515,981.347 92.941,981.347 C92.368,981.347 92.081,980.988 91.722,980.581 C91.268,980.032 90.861,979.553 90.072,979.553 C88.279,979.553 87.179,981.777 87.179,982.279 C87.179,982.399 87.251,982.542 87.466,982.542 C87.681,982.542 87.729,982.423 87.777,982.279 C88.231,981.179 89.618,981.155 89.809,981.155 C90.311,981.155 90.766,981.323 91.316,981.514 C92.272,981.873 92.535,981.873 93.157,981.873 C92.296,982.901 90.287,984.622 89.833,985.005 L87.681,987.013 C86.055,988.615 85.218,989.978 85.218,990.146 C85.218,990.385 85.458,990.385 85.505,990.385 C85.697,990.385 85.745,990.337 85.888,990.074 C86.438,989.237 87.155,988.591 87.92,988.591 C88.47,988.591 88.709,988.807 89.307,989.5 C89.714,990.002 90.144,990.385 90.837,990.385 C93.204,990.385 94.591,987.348 94.591,986.703 C94.591,986.583 94.496,986.463 94.304,986.463 C94.089,986.463 94.041,986.607 93.97,986.774 C93.42,988.328 91.889,988.783 91.1,988.783 C90.622,988.783 90.192,988.639 89.69,988.472 C88.877,988.161 88.518,988.065 88.016,988.065 C87.968,988.065 87.586,988.065 87.37,988.137 z" fill="#4E4E4E"/>
      <path d="M102.375,987.316 C102.024,986.764 101.454,986.329 100.651,986.329 C98.509,986.329 96.333,988.689 96.333,991.099 C96.333,992.722 97.421,993.877 98.86,993.877 C99.764,993.877 100.567,993.358 101.237,992.705 C101.555,993.71 102.526,993.877 102.961,993.877 C103.563,993.877 103.982,993.509 104.283,992.99 C104.651,992.337 104.869,991.383 104.869,991.316 C104.869,991.099 104.651,991.099 104.601,991.099 C104.367,991.099 104.35,991.166 104.233,991.618 C104.032,992.421 103.714,993.408 103.011,993.408 C102.576,993.408 102.459,993.04 102.459,992.588 C102.459,992.304 102.593,991.701 102.71,991.266 C102.827,990.814 102.994,990.128 103.078,989.76 L103.413,988.488 C103.513,988.053 103.714,987.266 103.714,987.182 C103.714,986.814 103.413,986.647 103.145,986.647 C102.86,986.647 102.475,986.847 102.375,987.316 z M101.304,991.618 C101.187,992.086 100.818,992.421 100.45,992.739 C100.3,992.873 99.63,993.408 98.91,993.408 C98.291,993.408 97.689,992.973 97.689,991.785 C97.689,990.898 98.174,989.057 98.559,988.387 C99.329,987.048 100.182,986.797 100.651,986.797 C101.823,986.797 102.141,988.069 102.141,988.253 C102.141,988.32 102.107,988.438 102.09,988.488 z" fill="#4E4E4E"/>
      <path d="M113.059,994.151 L113.059,993.625 L111.564,993.625 L111.564,988.365 C111.564,988.078 111.552,988.006 111.241,988.006 C111.002,988.006 110.99,988.018 110.859,988.186 L106.436,993.625 L106.436,994.151 L110.417,994.151 L110.417,995.084 C110.417,995.455 110.417,995.574 109.376,995.574 L108.958,995.574 L108.958,996.1 C109.52,996.076 110.297,996.052 110.99,996.052 C111.684,996.052 112.449,996.076 113.023,996.1 L113.023,995.574 L112.604,995.574 C111.564,995.574 111.564,995.455 111.564,995.084 L111.564,994.151 z M110.512,989.298 L110.512,993.625 L106.997,993.625 z" fill="#4E4E4E"/>
    </g>
  </g>
</svg>
