<?xml version="1.0" encoding="UTF-8"?>
<!DOCTYPE svg PUBLIC "-//W3C//DTD SVG 1.1//EN" "http://www.w3.org/Graphics/SVG/1.1/DTD/svg11.dtd">
<svg version="1.1" xmlns="http://www.w3.org/2000/svg" xmlns:xlink="http://www.w3.org/1999/xlink" x="0" y="0" width="198.098" height="109.647" viewBox="0, 0, 198.098, 109.647">
  <g id="Layer_1" transform="translate(-127.634, -353.331)">
    <g>
      <path d="M199.268,354.831 L255.961,354.831 L255.961,439.87 L199.268,439.87 L199.268,354.831 z" fill="#FFFFFF"/>
      <path d="M199.268,354.831 L255.961,354.831 L255.961,439.87 L199.268,439.87 L199.268,354.831 z" fill-opacity="0" stroke="#000000" stroke-width="1"/>
    </g>
    <path d="M156.406,369.004 L199.268,369.004" fill-opacity="0" stroke="#000000" stroke-width="1"/>
    <path d="M199.268,397.35 L156.406,397.35" fill-opacity="0" stroke="#000000" stroke-width="1"/>
    <path d="M227.82,389.892 L230.068,389.892 C230.546,389.892 230.785,389.892 230.785,389.414 C230.785,389.151 230.546,389.151 230.116,389.151 L228.011,389.151 C228.872,385.756 228.992,385.277 228.992,385.134 C228.992,384.727 228.705,384.488 228.298,384.488 C228.227,384.488 227.557,384.512 227.342,385.349 L226.409,389.151 L224.162,389.151 C223.684,389.151 223.445,389.151 223.445,389.605 C223.445,389.892 223.636,389.892 224.114,389.892 L226.218,389.892 C224.497,396.682 224.401,397.089 224.401,397.519 C224.401,398.811 225.31,399.719 226.601,399.719 C229.04,399.719 230.402,396.228 230.402,396.037 C230.402,395.798 230.211,395.798 230.116,395.798 C229.9,395.798 229.876,395.87 229.757,396.133 C228.729,398.619 227.461,399.193 226.649,399.193 C226.146,399.193 225.907,398.882 225.907,398.093 C225.907,397.519 225.955,397.352 226.051,396.946 z" fill="#4E4E4E" id="Layer_1"/>
    <g id="Layer_1">
      <path d="M141.579,357.056 C142.75,355.191 143.755,355.12 144.639,355.072 C144.926,355.048 144.95,354.642 144.95,354.618 C144.95,354.426 144.831,354.331 144.639,354.331 C144.018,354.331 143.324,354.402 142.679,354.402 C141.89,354.402 141.077,354.331 140.312,354.331 C140.168,354.331 139.857,354.331 139.857,354.785 C139.857,355.048 140.072,355.072 140.24,355.072 C140.885,355.12 141.34,355.359 141.34,355.861 C141.34,356.22 140.981,356.746 140.981,356.77 L133.641,368.438 L132.015,355.789 C132.015,355.383 132.565,355.072 133.665,355.072 C133.999,355.072 134.262,355.072 134.262,354.594 C134.262,354.379 134.071,354.331 133.928,354.331 C132.971,354.331 131.943,354.402 130.963,354.402 C130.532,354.402 130.078,354.379 129.648,354.379 C129.217,354.379 128.763,354.331 128.356,354.331 C128.189,354.331 127.902,354.331 127.902,354.785 C127.902,355.072 128.117,355.072 128.5,355.072 C129.839,355.072 129.863,355.287 129.935,355.885 L131.823,370.638 C131.895,371.116 131.991,371.187 132.302,371.187 C132.684,371.187 132.78,371.068 132.971,370.757 z" fill="#4E4E4E"/>
      <path d="M146.119,363.605 C146.119,363.153 146.085,363.136 145.617,363.136 C144.546,364.19 143.023,364.207 142.336,364.207 L142.336,364.81 C142.738,364.81 143.843,364.81 144.763,364.341 L144.763,372.877 C144.763,373.429 144.763,373.647 143.09,373.647 L142.454,373.647 L142.454,374.249 C142.755,374.233 144.813,374.182 145.433,374.182 C145.952,374.182 148.06,374.233 148.429,374.249 L148.429,373.647 L147.793,373.647 C146.119,373.647 146.119,373.429 146.119,372.877 z" fill="#4E4E4E"/>
    </g>
    <g id="Layer_1">
      <path d="M141.311,387.214 C142.483,385.349 143.487,385.277 144.372,385.229 C144.658,385.206 144.682,384.799 144.682,384.775 C144.682,384.584 144.563,384.488 144.372,384.488 C143.75,384.488 143.056,384.56 142.411,384.56 C141.622,384.56 140.809,384.488 140.044,384.488 C139.9,384.488 139.59,384.488 139.59,384.943 C139.59,385.206 139.805,385.229 139.972,385.229 C140.618,385.277 141.072,385.516 141.072,386.019 C141.072,386.377 140.713,386.903 140.713,386.927 L133.373,398.595 L131.747,385.947 C131.747,385.54 132.297,385.229 133.397,385.229 C133.731,385.229 133.995,385.229 133.995,384.751 C133.995,384.536 133.803,384.488 133.66,384.488 C132.703,384.488 131.675,384.56 130.695,384.56 C130.265,384.56 129.81,384.536 129.38,384.536 C128.949,384.536 128.495,384.488 128.089,384.488 C127.921,384.488 127.634,384.488 127.634,384.943 C127.634,385.229 127.85,385.229 128.232,385.229 C129.571,385.229 129.595,385.445 129.667,386.042 L131.556,400.795 C131.627,401.273 131.723,401.345 132.034,401.345 C132.416,401.345 132.512,401.225 132.703,400.915 z" fill="#4E4E4E"/>
      <path d="M148.696,401.361 L148.127,401.361 C148.077,401.729 147.91,402.717 147.692,402.884 C147.558,402.984 146.27,402.984 146.035,402.984 L142.956,402.984 C144.713,401.428 145.299,400.959 146.303,400.172 C147.542,399.185 148.696,398.147 148.696,396.557 C148.696,394.532 146.922,393.294 144.78,393.294 C142.705,393.294 141.299,394.75 141.299,396.289 C141.299,397.143 142.018,397.227 142.186,397.227 C142.587,397.227 143.073,396.942 143.073,396.34 C143.073,396.038 142.956,395.453 142.085,395.453 C142.604,394.264 143.742,393.896 144.529,393.896 C146.203,393.896 147.073,395.202 147.073,396.557 C147.073,398.013 146.035,399.168 145.5,399.771 L141.466,403.754 C141.299,403.905 141.299,403.938 141.299,404.407 L148.194,404.407 z" fill="#4E4E4E"/>
    </g>
    <path d="M198.925,425.697 C170.579,425.697 156.406,425.697 156.406,439.87 C156.406,454.043 170.579,454.043 198.925,454.043 C227.272,454.043 283.965,454.043 283.965,454.043" fill-opacity="0" stroke="#000000" stroke-width="1"/>
    <path d="M255.618,382.468 L283.622,382.468" fill-opacity="0" stroke="#000000" stroke-width="1"/>
    <path d="M255.618,410.814 L283.621,410.814" fill-opacity="0" stroke="#000000" stroke-width="1"/>
    <g id="Layer_1">
      <path d="M316.892,370.569 C317.49,369.516 318.063,368.656 319.57,368.536 C319.785,368.512 320.024,368.512 320.024,368.058 C320.024,367.962 319.928,367.795 319.737,367.795 C319.163,367.795 318.494,367.867 317.896,367.867 C317.083,367.867 316.198,367.795 315.409,367.795 C315.266,367.795 314.955,367.795 314.955,368.249 C314.955,368.512 315.17,368.536 315.314,368.536 C315.888,368.56 316.724,368.751 316.724,369.469 C316.724,369.732 316.605,369.923 316.414,370.258 L309.958,381.519 L309.073,369.66 C309.049,369.182 309.001,368.56 310.747,368.536 C311.153,368.536 311.392,368.536 311.392,368.058 C311.392,367.819 311.129,367.795 311.034,367.795 C310.077,367.795 309.073,367.867 308.117,367.867 C307.567,367.867 306.156,367.795 305.606,367.795 C305.463,367.795 305.152,367.795 305.152,368.273 C305.152,368.536 305.391,368.536 305.726,368.536 C306.778,368.536 306.945,368.68 306.993,369.134 L307.136,370.975 L301.087,381.519 L300.179,369.397 C300.179,369.11 300.179,368.56 301.996,368.536 C302.235,368.536 302.498,368.536 302.498,368.058 C302.498,367.795 302.211,367.795 302.163,367.795 C301.207,367.795 300.202,367.867 299.222,367.867 C298.385,367.867 297.525,367.795 296.712,367.795 C296.592,367.795 296.281,367.795 296.281,368.249 C296.281,368.536 296.496,368.536 296.879,368.536 C298.074,368.536 298.098,368.751 298.146,369.421 L299.222,384.03 C299.246,384.46 299.27,384.652 299.605,384.652 C299.892,384.652 299.963,384.508 300.179,384.15 L307.208,371.955 L308.093,384.03 C308.141,384.532 308.188,384.652 308.475,384.652 C308.786,384.652 308.93,384.413 309.049,384.197 z" fill="#4E4E4E"/>
      <path d="M323.155,377.069 C323.155,376.617 323.121,376.6 322.653,376.6 C321.581,377.655 320.058,377.671 319.372,377.671 L319.372,378.274 C319.774,378.274 320.878,378.274 321.799,377.805 L321.799,386.341 C321.799,386.894 321.799,387.111 320.125,387.111 L319.489,387.111 L319.489,387.714 C319.79,387.697 321.849,387.647 322.468,387.647 C322.987,387.647 325.096,387.697 325.464,387.714 L325.464,387.111 L324.828,387.111 C323.155,387.111 323.155,386.894 323.155,386.341 z" fill="#4E4E4E"/>
    </g>
    <g id="Layer_1">
      <path d="M316.624,399.267 C317.222,398.215 317.796,397.355 319.302,397.235 C319.517,397.211 319.756,397.211 319.756,396.757 C319.756,396.661 319.661,396.494 319.469,396.494 C318.895,396.494 318.226,396.565 317.628,396.565 C316.815,396.565 315.931,396.494 315.142,396.494 C314.998,396.494 314.687,396.494 314.687,396.948 C314.687,397.211 314.902,397.235 315.046,397.235 C315.62,397.259 316.457,397.45 316.457,398.167 C316.457,398.43 316.337,398.622 316.146,398.957 L309.69,410.218 L308.805,398.359 C308.781,397.881 308.734,397.259 310.479,397.235 C310.886,397.235 311.125,397.235 311.125,396.757 C311.125,396.518 310.862,396.494 310.766,396.494 C309.81,396.494 308.805,396.565 307.849,396.565 C307.299,396.565 305.888,396.494 305.338,396.494 C305.195,396.494 304.884,396.494 304.884,396.972 C304.884,397.235 305.123,397.235 305.458,397.235 C306.51,397.235 306.677,397.378 306.725,397.833 L306.869,399.674 L300.819,410.218 L299.911,398.096 C299.911,397.809 299.911,397.259 301.728,397.235 C301.967,397.235 302.23,397.235 302.23,396.757 C302.23,396.494 301.943,396.494 301.895,396.494 C300.939,396.494 299.935,396.565 298.954,396.565 C298.117,396.565 297.257,396.494 296.444,396.494 C296.324,396.494 296.013,396.494 296.013,396.948 C296.013,397.235 296.229,397.235 296.611,397.235 C297.807,397.235 297.831,397.45 297.878,398.12 L298.954,412.729 C298.978,413.159 299.002,413.35 299.337,413.35 C299.624,413.35 299.696,413.207 299.911,412.848 L306.94,400.654 L307.825,412.729 C307.873,413.231 307.921,413.35 308.208,413.35 C308.518,413.35 308.662,413.111 308.781,412.896 z" fill="#4E4E4E"/>
      <path d="M325.732,413.366 L325.163,413.366 C325.113,413.734 324.946,414.722 324.728,414.889 C324.594,414.99 323.305,414.99 323.071,414.99 L319.991,414.99 C321.749,413.433 322.335,412.965 323.339,412.178 C324.577,411.19 325.732,410.153 325.732,408.563 C325.732,406.538 323.958,405.299 321.816,405.299 C319.74,405.299 318.334,406.755 318.334,408.295 C318.334,409.149 319.054,409.232 319.221,409.232 C319.623,409.232 320.108,408.948 320.108,408.345 C320.108,408.044 319.991,407.458 319.121,407.458 C319.64,406.27 320.778,405.902 321.565,405.902 C323.238,405.902 324.109,407.207 324.109,408.563 C324.109,410.019 323.071,411.174 322.535,411.776 L318.502,415.76 C318.334,415.91 318.334,415.944 318.334,416.412 L325.23,416.412 z" fill="#4E4E4E"/>
    </g>
    <path d="M147.734,430.098 C148.116,430.098 148.547,430.098 148.547,429.692 C148.547,429.357 148.26,429.357 147.853,429.357 L143.98,429.357 C144.554,427.325 145.893,425.938 148.068,425.938 L148.81,425.938 C149.216,425.938 149.599,425.938 149.599,425.532 C149.599,425.197 149.288,425.197 148.881,425.197 L148.045,425.197 C144.936,425.197 141.732,427.588 141.732,431.246 C141.732,433.876 143.526,435.765 146.06,435.765 C147.614,435.765 149.168,434.809 149.168,434.546 C149.168,434.474 149.144,434.211 148.929,434.211 C148.881,434.211 148.834,434.211 148.618,434.354 C147.877,434.833 146.993,435.239 146.108,435.239 C144.721,435.239 143.526,434.235 143.526,432.131 C143.526,431.294 143.717,430.385 143.789,430.098 z" fill="#4E4E4E" id="Layer_1"/>
    <g id="Layer_1">
      <path d="M297.44,439.87 L316.7,439.87" fill-opacity="0" stroke="#4E4E4E" stroke-width="0.955"/>
      <path d="M311.956,445.45 C313.127,443.585 314.132,443.513 315.016,443.465 C315.303,443.441 315.327,443.035 315.327,443.011 C315.327,442.82 315.208,442.724 315.016,442.724 C314.395,442.724 313.701,442.796 313.056,442.796 C312.267,442.796 311.454,442.724 310.689,442.724 C310.545,442.724 310.234,442.724 310.234,443.178 C310.234,443.441 310.449,443.465 310.617,443.465 C311.262,443.513 311.717,443.752 311.717,444.254 C311.717,444.613 311.358,445.139 311.358,445.163 L304.018,456.831 L302.392,444.183 C302.392,443.776 302.942,443.465 304.041,443.465 C304.376,443.465 304.639,443.465 304.639,442.987 C304.639,442.772 304.448,442.724 304.304,442.724 C303.348,442.724 302.32,442.796 301.34,442.796 C300.909,442.796 300.455,442.772 300.025,442.772 C299.594,442.772 299.14,442.724 298.733,442.724 C298.566,442.724 298.279,442.724 298.279,443.178 C298.279,443.465 298.494,443.465 298.877,443.465 C300.216,443.465 300.24,443.68 300.311,444.278 L302.2,459.031 C302.272,459.509 302.368,459.581 302.679,459.581 C303.061,459.581 303.157,459.461 303.348,459.15 z" fill="#4E4E4E"/>
      <path d="M320.772,457.052 C322.077,457.052 323.015,457.956 323.015,459.747 C323.015,461.823 321.809,462.442 320.839,462.442 C320.169,462.442 318.696,462.258 317.993,461.27 C318.78,461.237 318.964,460.684 318.964,460.333 C318.964,459.797 318.562,459.412 318.044,459.412 C317.575,459.412 317.106,459.697 317.106,460.383 C317.106,461.956 318.847,462.977 320.872,462.977 C323.199,462.977 324.805,461.421 324.805,459.747 C324.805,458.442 323.734,457.136 321.893,456.751 C323.651,456.115 324.287,454.86 324.287,453.839 C324.287,452.517 322.763,451.529 320.906,451.529 C319.048,451.529 317.625,452.433 317.625,453.772 C317.625,454.341 317.993,454.659 318.496,454.659 C319.014,454.659 319.349,454.274 319.349,453.806 C319.349,453.32 319.014,452.969 318.496,452.935 C319.081,452.199 320.236,452.015 320.855,452.015 C321.609,452.015 322.663,452.383 322.663,453.839 C322.663,454.542 322.429,455.312 321.994,455.831 C321.441,456.467 320.973,456.5 320.136,456.55 C319.717,456.584 319.684,456.584 319.6,456.601 C319.567,456.601 319.433,456.634 319.433,456.818 C319.433,457.052 319.583,457.052 319.868,457.052 z" fill="#4E4E4E"/>
    </g>
  </g>
</svg>
