<?xml version="1.0" encoding="UTF-8"?>
<!DOCTYPE svg PUBLIC "-//W3C//DTD SVG 1.1//EN" "http://www.w3.org/Graphics/SVG/1.1/DTD/svg11.dtd">
<svg version="1.1" xmlns="http://www.w3.org/2000/svg" xmlns:xlink="http://www.w3.org/1999/xlink" x="0" y="0" width="384.141" height="62.285" viewBox="0, 0, 384.141, 62.285">
  <g id="Layer_1" transform="translate(-42.52, -1104.512)">
    <path d="M50.482,1115.094 C50.051,1114.209 49.358,1113.563 48.282,1113.563 C45.485,1113.563 42.52,1117.078 42.52,1120.569 C42.52,1122.817 43.835,1124.395 45.7,1124.395 C46.178,1124.395 47.373,1124.299 48.808,1122.601 C48.999,1123.606 49.836,1124.395 50.984,1124.395 C51.821,1124.395 52.371,1123.845 52.753,1123.079 C53.16,1122.219 53.471,1120.76 53.471,1120.712 C53.471,1120.473 53.255,1120.473 53.184,1120.473 C52.945,1120.473 52.921,1120.569 52.849,1120.904 C52.442,1122.458 52.012,1123.869 51.032,1123.869 C50.386,1123.869 50.314,1123.247 50.314,1122.769 C50.314,1122.243 50.362,1122.051 50.625,1120.999 C50.888,1119.995 50.936,1119.756 51.151,1118.847 L52.012,1115.5 C52.179,1114.83 52.179,1114.783 52.179,1114.687 C52.179,1114.281 51.893,1114.041 51.486,1114.041 C50.912,1114.041 50.554,1114.568 50.482,1115.094 z M48.928,1121.286 C48.808,1121.717 48.808,1121.764 48.449,1122.171 C47.397,1123.486 46.417,1123.869 45.748,1123.869 C44.552,1123.869 44.217,1122.553 44.217,1121.621 C44.217,1120.425 44.982,1117.484 45.532,1116.385 C46.274,1114.974 47.35,1114.089 48.306,1114.089 C49.86,1114.089 50.195,1116.05 50.195,1116.193 C50.195,1116.337 50.147,1116.48 50.123,1116.6 z" fill="#4E4E4E" id="Layer_1"/>
    <path d="M48.186,1139.866 C48.186,1139.842 48.186,1139.603 47.876,1139.603 C47.326,1139.603 45.58,1139.794 44.959,1139.842 C44.767,1139.866 44.504,1139.89 44.504,1140.32 C44.504,1140.607 44.719,1140.607 45.078,1140.607 C46.226,1140.607 46.274,1140.775 46.274,1141.014 C46.274,1141.181 46.058,1141.994 45.939,1142.496 L43.978,1150.291 C43.691,1151.487 43.596,1151.869 43.596,1152.706 C43.596,1154.977 44.863,1156.46 46.632,1156.46 C49.454,1156.46 52.395,1152.897 52.395,1149.454 C52.395,1147.278 51.127,1145.629 49.215,1145.629 C48.115,1145.629 47.134,1146.322 46.417,1147.063 z M45.939,1148.904 C46.082,1148.378 46.082,1148.33 46.298,1148.067 C47.469,1146.513 48.545,1146.155 49.167,1146.155 C50.028,1146.155 50.673,1146.872 50.673,1148.402 C50.673,1149.813 49.884,1152.562 49.454,1153.471 C48.665,1155.073 47.565,1155.934 46.632,1155.934 C45.819,1155.934 45.03,1155.288 45.03,1153.519 C45.03,1153.065 45.03,1152.61 45.413,1151.104 z" fill="#4E4E4E" id="Layer_1"/>
    <path d="M199.076,1129.131 C198.693,1129.131 198.358,1129.131 198.024,1129.466 C197.641,1129.824 197.593,1130.231 197.593,1130.398 C197.593,1130.972 198.024,1131.235 198.478,1131.235 C199.171,1131.235 199.817,1130.661 199.817,1129.705 C199.817,1128.533 198.693,1127.648 196.995,1127.648 C193.768,1127.648 190.588,1131.068 190.588,1134.439 C190.588,1136.591 191.974,1138.48 194.461,1138.48 C197.88,1138.48 199.889,1135.945 199.889,1135.658 C199.889,1135.515 199.745,1135.348 199.602,1135.348 C199.482,1135.348 199.434,1135.395 199.291,1135.587 C197.402,1137.954 194.796,1137.954 194.509,1137.954 C193.002,1137.954 192.357,1136.782 192.357,1135.348 C192.357,1134.367 192.835,1132.048 193.648,1130.566 C194.389,1129.203 195.704,1128.175 197.019,1128.175 C197.832,1128.175 198.741,1128.485 199.076,1129.131 z" fill="#4E4E4E" id="Layer_1"/>
    <g>
      <path d="M142.232,1106.012 L142.232,1162.705 L170.675,1148.531 L170.675,1120.185 L142.232,1106.012 z" fill="#FFFFFF"/>
      <path d="M142.232,1106.012 L142.232,1162.705 L170.675,1148.531 L170.675,1120.185 L142.232,1106.012 z" fill-opacity="0" stroke="#000000" stroke-width="1"/>
    </g>
    <g>
      <path d="M137.059,1120.185 L142.232,1120.185" fill-opacity="0" stroke="#000000" stroke-width="1"/>
      <path d="M137.059,1117.185 L129.059,1120.185 L137.059,1123.185 z" fill="#000000" fill-opacity="1" stroke="#000000" stroke-width="1" stroke-opacity="1"/>
    </g>
    <g>
      <path d="M137.059,1148.531 L142.232,1148.531" fill-opacity="0" stroke="#000000" stroke-width="1"/>
      <path d="M137.059,1145.531 L129.059,1148.531 L137.059,1151.531 z" fill="#000000" fill-opacity="1" stroke="#000000" stroke-width="1" stroke-opacity="1"/>
    </g>
    <g>
      <path d="M179.579,1134.358 L184.752,1134.358" fill-opacity="0" stroke="#000000" stroke-width="1"/>
      <path d="M179.579,1131.358 L171.579,1134.358 L179.579,1137.358 z" fill="#000000" fill-opacity="1" stroke="#000000" stroke-width="1" stroke-opacity="1"/>
    </g>
    <path d="M153.711,1129.99 C153.831,1129.488 154.07,1128.579 154.07,1128.459 C154.07,1128.053 153.783,1127.814 153.377,1127.814 C153.305,1127.814 152.636,1127.838 152.42,1128.675 L148.977,1142.519 C148.906,1142.806 148.906,1142.853 148.906,1142.901 C148.906,1143.26 149.169,1143.547 149.575,1143.547 C150.077,1143.547 150.364,1143.116 150.412,1143.045 C150.508,1142.829 150.818,1141.586 151.727,1137.904 C152.492,1138.55 153.568,1138.645 154.046,1138.645 C155.72,1138.645 156.652,1137.569 157.226,1136.9 C157.441,1137.976 158.326,1138.645 159.378,1138.645 C160.215,1138.645 160.765,1138.095 161.148,1137.33 C161.554,1136.469 161.865,1135.011 161.865,1134.963 C161.865,1134.724 161.65,1134.724 161.578,1134.724 C161.339,1134.724 161.315,1134.82 161.243,1135.154 C160.837,1136.708 160.406,1138.119 159.426,1138.119 C158.78,1138.119 158.709,1137.497 158.709,1137.019 C158.709,1136.493 158.996,1135.37 159.187,1134.533 L159.856,1131.95 C159.928,1131.592 160.167,1130.683 160.263,1130.324 C160.382,1129.775 160.622,1128.866 160.622,1128.722 C160.622,1128.292 160.287,1128.077 159.928,1128.077 C159.809,1128.077 159.187,1128.101 158.996,1128.914 L157.872,1133.385 C157.585,1134.58 157.322,1135.585 157.25,1135.824 C157.226,1135.943 156.079,1138.119 154.142,1138.119 C152.946,1138.119 152.373,1137.33 152.373,1136.039 C152.373,1135.346 152.54,1134.676 152.707,1134.007 z" fill="#4E4E4E" id="Layer_1"/>
    <path d="M142.232,1120.537 C114.229,1120.537 113.543,1116.915 99.37,1132.9 C85.196,1148.884 85.882,1148.884 57.193,1148.884" fill-opacity="0" stroke="#000000" stroke-width="1"/>
    <path d="M142.232,1148.531 C114.229,1148.531 113.543,1152.154 99.37,1136.169 C85.196,1120.185 85.882,1120.185 57.193,1120.185" fill-opacity="0" stroke="#000000" stroke-width="1"/>
    <path d="M348.12,1134.246 C347.689,1133.361 346.996,1132.715 345.92,1132.715 C343.122,1132.715 340.158,1136.23 340.158,1139.721 C340.158,1141.969 341.473,1143.547 343.338,1143.547 C343.816,1143.547 345.011,1143.451 346.446,1141.754 C346.637,1142.758 347.474,1143.547 348.622,1143.547 C349.459,1143.547 350.009,1142.997 350.391,1142.232 C350.798,1141.371 351.108,1139.912 351.108,1139.865 C351.108,1139.625 350.893,1139.625 350.821,1139.625 C350.582,1139.625 350.558,1139.721 350.487,1140.056 C350.08,1141.61 349.65,1143.021 348.67,1143.021 C348.024,1143.021 347.952,1142.399 347.952,1141.921 C347.952,1141.395 348,1141.204 348.263,1140.151 C348.526,1139.147 348.574,1138.908 348.789,1138 L349.65,1134.652 C349.817,1133.983 349.817,1133.935 349.817,1133.839 C349.817,1133.433 349.53,1133.194 349.124,1133.194 C348.55,1133.194 348.191,1133.72 348.12,1134.246 z M346.565,1140.438 C346.446,1140.869 346.446,1140.917 346.087,1141.323 C345.035,1142.638 344.055,1143.021 343.385,1143.021 C342.19,1143.021 341.855,1141.706 341.855,1140.773 C341.855,1139.578 342.62,1136.637 343.17,1135.537 C343.911,1134.126 344.987,1133.241 345.944,1133.241 C347.498,1133.241 347.833,1135.202 347.833,1135.346 C347.833,1135.489 347.785,1135.632 347.761,1135.752 z" fill="#4E4E4E" id="Layer_1"/>
    <path d="M344.748,1105.775 C344.748,1105.751 344.748,1105.512 344.437,1105.512 C343.888,1105.512 342.142,1105.703 341.52,1105.751 C341.329,1105.775 341.066,1105.799 341.066,1106.229 C341.066,1106.516 341.281,1106.516 341.64,1106.516 C342.788,1106.516 342.835,1106.683 342.835,1106.922 C342.835,1107.09 342.62,1107.903 342.501,1108.405 L340.54,1116.2 C340.253,1117.395 340.158,1117.778 340.158,1118.615 C340.158,1120.886 341.425,1122.369 343.194,1122.369 C346.016,1122.369 348.956,1118.806 348.956,1115.363 C348.956,1113.187 347.689,1111.537 345.776,1111.537 C344.677,1111.537 343.696,1112.231 342.979,1112.972 z M342.501,1114.813 C342.644,1114.287 342.644,1114.239 342.859,1113.976 C344.031,1112.422 345.107,1112.063 345.729,1112.063 C346.589,1112.063 347.235,1112.781 347.235,1114.311 C347.235,1115.722 346.446,1118.471 346.016,1119.38 C345.226,1120.982 344.127,1121.843 343.194,1121.843 C342.381,1121.843 341.592,1121.197 341.592,1119.428 C341.592,1118.973 341.592,1118.519 341.975,1117.013 z" fill="#4E4E4E" id="Layer_1"/>
    <path d="M425.847,1129.131 C425.465,1129.131 425.13,1129.131 424.795,1129.466 C424.413,1129.824 424.365,1130.231 424.365,1130.398 C424.365,1130.972 424.795,1131.235 425.25,1131.235 C425.943,1131.235 426.589,1130.661 426.589,1129.705 C426.589,1128.533 425.465,1127.648 423.767,1127.648 C420.539,1127.648 417.359,1131.068 417.359,1134.439 C417.359,1136.591 418.746,1138.48 421.233,1138.48 C424.652,1138.48 426.66,1135.945 426.66,1135.658 C426.66,1135.515 426.517,1135.348 426.373,1135.348 C426.254,1135.348 426.206,1135.395 426.063,1135.587 C424.174,1137.954 421.567,1137.954 421.28,1137.954 C419.774,1137.954 419.129,1136.782 419.129,1135.348 C419.129,1134.367 419.607,1132.048 420.42,1130.566 C421.161,1129.203 422.476,1128.175 423.791,1128.175 C424.604,1128.175 425.513,1128.485 425.847,1129.131 z" fill="#4E4E4E" id="Layer_1"/>
    <g>
      <path d="M369.004,1106.012 L369.004,1162.705 L397.447,1148.531 L397.447,1120.185 L369.004,1106.012 z" fill="#FFFFFF"/>
      <path d="M369.004,1106.012 L369.004,1162.705 L397.447,1148.531 L397.447,1120.185 L369.004,1106.012 z" fill-opacity="0" stroke="#000000" stroke-width="1"/>
    </g>
    <g>
      <path d="M363.831,1120.185 L369.004,1120.185" fill-opacity="0" stroke="#000000" stroke-width="1"/>
      <path d="M363.831,1117.185 L355.831,1120.185 L363.831,1123.185 z" fill="#000000" fill-opacity="1" stroke="#000000" stroke-width="1" stroke-opacity="1"/>
    </g>
    <g>
      <path d="M363.831,1148.531 L369.004,1148.531" fill-opacity="0" stroke="#000000" stroke-width="1"/>
      <path d="M363.831,1145.531 L355.831,1148.531 L363.831,1151.531 z" fill="#000000" fill-opacity="1" stroke="#000000" stroke-width="1" stroke-opacity="1"/>
    </g>
    <g>
      <path d="M406.35,1134.358 L411.524,1134.358" fill-opacity="0" stroke="#000000" stroke-width="1"/>
      <path d="M406.35,1131.358 L398.35,1134.358 L406.35,1137.358 z" fill="#000000" fill-opacity="1" stroke="#000000" stroke-width="1" stroke-opacity="1"/>
    </g>
    <path d="M380.483,1129.99 C380.603,1129.488 380.842,1128.579 380.842,1128.459 C380.842,1128.053 380.555,1127.814 380.148,1127.814 C380.077,1127.814 379.407,1127.838 379.192,1128.675 L375.749,1142.519 C375.677,1142.806 375.677,1142.853 375.677,1142.901 C375.677,1143.26 375.94,1143.547 376.347,1143.547 C376.849,1143.547 377.136,1143.116 377.184,1143.045 C377.279,1142.829 377.59,1141.586 378.499,1137.904 C379.264,1138.55 380.34,1138.645 380.818,1138.645 C382.492,1138.645 383.424,1137.569 383.998,1136.9 C384.213,1137.976 385.098,1138.645 386.15,1138.645 C386.987,1138.645 387.537,1138.095 387.919,1137.33 C388.326,1136.469 388.637,1135.011 388.637,1134.963 C388.637,1134.724 388.421,1134.724 388.35,1134.724 C388.111,1134.724 388.087,1134.82 388.015,1135.154 C387.608,1136.708 387.178,1138.119 386.198,1138.119 C385.552,1138.119 385.48,1137.497 385.48,1137.019 C385.48,1136.493 385.767,1135.37 385.959,1134.533 L386.628,1131.95 C386.7,1131.592 386.939,1130.683 387.035,1130.324 C387.154,1129.775 387.393,1128.866 387.393,1128.722 C387.393,1128.292 387.058,1128.077 386.7,1128.077 C386.58,1128.077 385.959,1128.101 385.767,1128.914 L384.644,1133.385 C384.357,1134.58 384.094,1135.585 384.022,1135.824 C383.998,1135.943 382.85,1138.119 380.914,1138.119 C379.718,1138.119 379.144,1137.33 379.144,1136.039 C379.144,1135.346 379.312,1134.676 379.479,1134.007 z" fill="#4E4E4E" id="Layer_1"/>
    <g id="Layer_1">
      <path d="M226.678,1131.479 C227.036,1131.479 227.491,1131.479 227.491,1131.001 C227.491,1130.523 227.036,1130.523 226.702,1130.523 L212.379,1130.523 C212.045,1130.523 211.59,1130.523 211.59,1131.001 C211.59,1131.479 212.045,1131.479 212.403,1131.479 z M226.702,1136.118 C227.036,1136.118 227.491,1136.118 227.491,1135.64 C227.491,1135.161 227.036,1135.161 226.678,1135.161 L212.403,1135.161 C212.045,1135.161 211.59,1135.161 211.59,1135.64 C211.59,1136.118 212.045,1136.118 212.379,1136.118 z" fill="#4E4E4E"/>
      <path d="M265.76,1150.059 L268.653,1142.407 L268.056,1142.407 C267.123,1144.894 264.589,1146.52 261.839,1147.237 C261.337,1147.357 258.994,1147.978 254.403,1147.978 L239.985,1147.978 L252.155,1133.704 C252.323,1133.513 252.37,1133.441 252.37,1133.321 C252.37,1133.274 252.37,1133.202 252.203,1132.963 L241.061,1117.732 L254.164,1117.732 C257.368,1117.732 259.543,1118.067 259.759,1118.115 C261.05,1118.306 263.13,1118.712 265.019,1119.908 C265.617,1120.29 267.243,1121.366 268.056,1123.303 L268.653,1123.303 L265.76,1116.584 L237.498,1116.584 C236.948,1116.584 236.924,1116.608 236.853,1116.752 C236.829,1116.823 236.829,1117.278 236.829,1117.541 L249.477,1134.852 L237.092,1149.365 C236.853,1149.652 236.853,1149.772 236.853,1149.796 C236.853,1150.059 237.068,1150.059 237.498,1150.059 z" fill="#4E4E4E"/>
      <path d="M251.609,1159.901 C251.626,1159.834 251.643,1159.734 251.643,1159.65 C251.643,1159.634 251.643,1159.416 251.375,1159.416 C251.358,1159.416 250.404,1159.5 250.287,1159.5 C249.969,1159.533 249.668,1159.55 249.35,1159.583 C249.082,1159.6 248.881,1159.617 248.881,1159.968 C248.881,1160.203 249.115,1160.203 249.316,1160.203 C250.12,1160.203 250.12,1160.303 250.12,1160.454 C250.12,1160.554 250.036,1160.889 249.969,1161.106 L249.132,1164.487 C248.714,1166.161 248.63,1166.496 248.63,1166.563 C248.63,1166.797 248.881,1166.797 248.948,1166.797 L249.216,1166.797 C250.705,1166.563 252.831,1165.776 254.622,1164.186 C256.898,1162.161 257.233,1159.985 257.233,1159.952 C257.233,1159.65 256.999,1159.416 256.664,1159.416 C256.078,1159.416 255.961,1159.885 255.81,1160.353 C255.141,1162.73 252.898,1165.291 250.053,1166.128 z" fill="#4E4E4E"/>
      <path d="M276.125,1145.275 L276.125,1144.319 L273.806,1144.319 L273.806,1122.322 L276.125,1122.322 L276.125,1121.365 L272.85,1121.365 L272.85,1145.275 z" fill="#4E4E4E"/>
      <path d="M285.635,1124.617 C285.779,1124.043 285.85,1123.804 286.305,1123.732 C286.52,1123.708 287.285,1123.708 287.763,1123.708 C289.461,1123.708 292.115,1123.708 292.115,1126.076 C292.115,1126.888 291.732,1128.538 290.8,1129.471 C290.178,1130.092 288.911,1130.858 286.759,1130.858 L284.081,1130.858 z M289.078,1131.168 C291.493,1130.642 294.339,1128.969 294.339,1126.554 C294.339,1124.497 292.187,1122.967 289.054,1122.967 L282.24,1122.967 C281.762,1122.967 281.547,1122.967 281.547,1123.445 C281.547,1123.708 281.762,1123.708 282.216,1123.708 C282.264,1123.708 282.718,1123.708 283.125,1123.756 C283.555,1123.804 283.77,1123.828 283.77,1124.139 C283.77,1124.234 283.746,1124.306 283.675,1124.593 L280.471,1137.433 C280.232,1138.365 280.184,1138.557 278.295,1138.557 C277.865,1138.557 277.649,1138.557 277.649,1139.035 C277.649,1139.298 277.936,1139.298 277.984,1139.298 C278.654,1139.298 280.327,1139.226 280.997,1139.226 C281.666,1139.226 283.364,1139.298 284.033,1139.298 C284.225,1139.298 284.512,1139.298 284.512,1138.82 C284.512,1138.557 284.296,1138.557 283.842,1138.557 C282.957,1138.557 282.288,1138.557 282.288,1138.126 C282.288,1137.983 282.336,1137.863 282.36,1137.72 L283.938,1131.384 L286.783,1131.384 C288.959,1131.384 289.389,1132.723 289.389,1133.559 C289.389,1133.918 289.198,1134.659 289.054,1135.209 C288.887,1135.879 288.672,1136.763 288.672,1137.242 C288.672,1139.824 291.541,1139.824 291.852,1139.824 C293.884,1139.824 294.721,1137.409 294.721,1137.074 C294.721,1136.787 294.458,1136.787 294.434,1136.787 C294.219,1136.787 294.171,1136.955 294.123,1137.122 C293.526,1138.891 292.498,1139.298 291.948,1139.298 C291.159,1139.298 290.991,1138.772 290.991,1137.839 C290.991,1137.098 291.135,1135.879 291.23,1135.114 C291.278,1134.779 291.326,1134.325 291.326,1133.99 C291.326,1132.149 289.724,1131.407 289.078,1131.168 z" fill="#4E4E4E"/>
      <path d="M302.341,1123.016 C301.738,1123.117 301.487,1123.585 301.487,1123.954 C301.487,1124.406 301.839,1124.573 302.14,1124.573 C302.508,1124.573 303.094,1124.305 303.094,1123.502 C303.094,1122.364 301.788,1122.046 300.884,1122.046 C298.374,1122.046 296.047,1124.355 296.047,1126.682 C296.047,1128.121 297.052,1129.594 299.144,1129.594 C301.972,1129.594 303.295,1127.937 303.295,1127.703 C303.295,1127.602 303.144,1127.418 303.01,1127.418 C302.91,1127.418 302.876,1127.452 302.742,1127.586 C301.437,1129.125 299.479,1129.125 299.177,1129.125 C297.972,1129.125 297.437,1128.305 297.437,1127.268 C297.437,1126.782 297.671,1124.958 298.541,1123.803 C299.177,1122.983 300.048,1122.514 300.884,1122.514 C301.119,1122.514 301.922,1122.548 302.341,1123.016 z" fill="#4E4E4E"/>
      <path d="M301.888,1138.816 C301.537,1138.263 300.967,1137.828 300.164,1137.828 C298.022,1137.828 295.846,1140.188 295.846,1142.598 C295.846,1144.222 296.934,1145.376 298.373,1145.376 C299.277,1145.376 300.08,1144.858 300.75,1144.205 C301.068,1145.209 302.039,1145.376 302.474,1145.376 C303.076,1145.376 303.495,1145.008 303.796,1144.489 C304.164,1143.837 304.382,1142.883 304.382,1142.816 C304.382,1142.598 304.164,1142.598 304.114,1142.598 C303.88,1142.598 303.863,1142.665 303.746,1143.117 C303.545,1143.92 303.227,1144.908 302.524,1144.908 C302.089,1144.908 301.972,1144.54 301.972,1144.088 C301.972,1143.803 302.106,1143.201 302.223,1142.766 C302.34,1142.314 302.507,1141.627 302.591,1141.259 L302.926,1139.987 C303.026,1139.552 303.227,1138.765 303.227,1138.682 C303.227,1138.313 302.926,1138.146 302.658,1138.146 C302.373,1138.146 301.988,1138.347 301.888,1138.816 z M300.817,1143.117 C300.7,1143.586 300.331,1143.92 299.963,1144.238 C299.813,1144.372 299.143,1144.908 298.423,1144.908 C297.804,1144.908 297.202,1144.473 297.202,1143.284 C297.202,1142.397 297.687,1140.556 298.072,1139.887 C298.842,1138.548 299.695,1138.297 300.164,1138.297 C301.336,1138.297 301.654,1139.569 301.654,1139.753 C301.654,1139.82 301.62,1139.937 301.604,1139.987 z" fill="#4E4E4E"/>
      <path d="M309.616,1134.096 C309.632,1134.062 309.683,1133.845 309.683,1133.828 C309.683,1133.744 309.616,1133.594 309.415,1133.594 C309.08,1133.594 307.691,1133.727 307.272,1133.761 C307.138,1133.778 306.904,1133.794 306.904,1134.146 C306.904,1134.38 307.138,1134.38 307.339,1134.38 C308.143,1134.38 308.143,1134.497 308.143,1134.631 C308.143,1134.748 307.975,1135.418 307.875,1135.803 L307.49,1137.343 C307.339,1137.912 306.419,1141.577 306.385,1141.795 C306.302,1142.196 306.302,1142.414 306.302,1142.615 C306.302,1144.305 307.373,1145.376 308.762,1145.376 C310.854,1145.376 313.08,1143.1 313.08,1140.623 C313.08,1138.665 311.724,1137.828 310.57,1137.828 C309.699,1137.828 308.963,1138.313 308.461,1138.749 z M308.779,1144.908 C307.959,1144.908 307.49,1144.188 307.49,1143.201 C307.49,1142.581 307.641,1142.012 308.109,1140.121 C308.21,1139.803 308.21,1139.77 308.528,1139.401 C309.164,1138.665 309.917,1138.297 310.519,1138.297 C311.172,1138.297 311.741,1138.782 311.741,1139.92 C311.741,1140.606 311.373,1142.314 310.871,1143.284 C310.469,1144.104 309.632,1144.908 308.779,1144.908 z" fill="#4E4E4E"/>
      <path d="M318.602,1121.365 L315.326,1121.365 L315.326,1122.322 L317.646,1122.322 L317.646,1144.319 L315.326,1144.319 L315.326,1145.275 L318.602,1145.275 z" fill="#4E4E4E"/>
      <path d="M322.345,1132.121 C322.278,1132.372 322.278,1132.456 322.278,1132.473 C322.278,1132.841 322.579,1133.008 322.847,1133.008 C323.449,1133.008 323.583,1132.456 323.65,1132.172 C323.684,1132.088 324.018,1130.749 324.42,1129.109 C324.939,1129.46 325.609,1129.594 326.211,1129.594 C327.65,1129.594 328.588,1128.422 328.621,1128.389 C328.939,1129.544 330.094,1129.594 330.345,1129.594 C330.948,1129.594 331.366,1129.226 331.667,1128.707 C332.036,1128.054 332.253,1127.1 332.253,1127.033 C332.253,1126.816 332.036,1126.816 331.985,1126.816 C331.751,1126.816 331.734,1126.883 331.617,1127.334 C331.416,1128.138 331.098,1129.125 330.395,1129.125 C329.96,1129.125 329.843,1128.757 329.843,1128.305 C329.843,1128.021 329.977,1127.418 330.094,1126.983 C330.211,1126.531 330.379,1125.845 330.462,1125.477 L330.847,1123.987 C330.948,1123.569 331.132,1122.832 331.132,1122.749 C331.132,1122.414 330.864,1122.213 330.579,1122.213 C330.395,1122.213 330.077,1122.297 329.893,1122.615 C329.843,1122.715 329.709,1123.251 329.625,1123.585 L329.274,1124.975 L328.755,1127.067 C328.638,1127.485 328.638,1127.519 328.487,1127.736 C327.968,1128.473 327.232,1129.125 326.278,1129.125 C324.906,1129.125 324.906,1127.937 324.906,1127.636 C324.906,1127.201 324.956,1126.983 325.19,1126.079 C325.357,1125.343 325.391,1125.226 325.558,1124.573 L325.793,1123.636 C325.876,1123.284 326.044,1122.648 326.044,1122.581 C326.044,1122.28 325.809,1122.046 325.475,1122.046 C324.872,1122.046 324.721,1122.631 324.671,1122.832 z" fill="#4E4E4E"/>
      <path d="M325.642,1138.313 C325.659,1138.246 325.675,1138.146 325.675,1138.062 C325.675,1138.046 325.675,1137.828 325.408,1137.828 C325.391,1137.828 324.437,1137.912 324.32,1137.912 C324.002,1137.945 323.701,1137.962 323.382,1137.995 C323.115,1138.012 322.914,1138.029 322.914,1138.38 C322.914,1138.615 323.148,1138.615 323.349,1138.615 C324.152,1138.615 324.152,1138.715 324.152,1138.866 C324.152,1138.966 324.069,1139.301 324.002,1139.518 L323.165,1142.899 C322.746,1144.573 322.663,1144.908 322.663,1144.975 C322.663,1145.209 322.914,1145.209 322.981,1145.209 L323.249,1145.209 C324.738,1144.975 326.864,1144.188 328.655,1142.598 C330.931,1140.573 331.266,1138.397 331.266,1138.364 C331.266,1138.062 331.031,1137.828 330.697,1137.828 C330.111,1137.828 329.994,1138.297 329.843,1138.765 C329.174,1141.142 326.931,1143.703 324.085,1144.54 z" fill="#4E4E4E"/>
    </g>
  </g>
</svg>
