<?xml version="1.0" encoding="UTF-8"?>
<!DOCTYPE svg PUBLIC "-//W3C//DTD SVG 1.1//EN" "http://www.w3.org/Graphics/SVG/1.1/DTD/svg11.dtd">
<svg version="1.1" xmlns="http://www.w3.org/2000/svg" xmlns:xlink="http://www.w3.org/1999/xlink" x="0" y="0" width="417.136" height="64.2" viewBox="0, 0, 417.136, 64.2">
  <defs>
    <clipPath id="Clip_1">
      <path d="M504.812,724.956 L529.812,724.956 L529.812,660.756 L504.812,660.756 z"/>
    </clipPath>
  </defs>
  <g id="Layer_1" transform="translate(-112.676, -660.756)">
    <g>
      <path d="M156.406,666.642 L156.406,723.335 L184.848,709.161 L184.848,680.815 L156.406,666.642 z" fill="#FFFFFF"/>
      <path d="M156.406,666.642 L156.406,723.335 L184.848,709.161 L184.848,680.815 L156.406,666.642 z" fill-opacity="0" stroke="#000000" stroke-width="1"/>
    </g>
    <g>
      <path d="M151.232,680.815 L156.406,680.815" fill-opacity="0" stroke="#000000" stroke-width="1"/>
      <path d="M151.232,677.815 L143.232,680.815 L151.232,683.815 z" fill="#000000" fill-opacity="1" stroke="#000000" stroke-width="1" stroke-opacity="1"/>
    </g>
    <g>
      <path d="M151.232,709.161 L156.406,709.161" fill-opacity="0" stroke="#000000" stroke-width="1"/>
      <path d="M151.232,706.161 L143.232,709.161 L151.232,712.161 z" fill="#000000" fill-opacity="1" stroke="#000000" stroke-width="1" stroke-opacity="1"/>
    </g>
    <g>
      <path d="M193.752,694.988 L198.925,694.988" fill-opacity="0" stroke="#000000" stroke-width="1"/>
      <path d="M193.752,691.988 L185.752,694.988 L193.752,697.988 z" fill="#000000" fill-opacity="1" stroke="#000000" stroke-width="1" stroke-opacity="1"/>
    </g>
    <path d="M287.448,675.889 C287.018,675.004 286.324,674.358 285.249,674.358 C282.451,674.358 279.486,677.873 279.486,681.364 C279.486,683.612 280.801,685.19 282.666,685.19 C283.144,685.19 284.34,685.094 285.775,683.397 C285.966,684.401 286.803,685.19 287.95,685.19 C288.787,685.19 289.337,684.64 289.72,683.875 C290.126,683.014 290.437,681.555 290.437,681.508 C290.437,681.268 290.222,681.268 290.15,681.268 C289.911,681.268 289.887,681.364 289.815,681.699 C289.409,683.253 288.979,684.664 287.998,684.664 C287.353,684.664 287.281,684.042 287.281,683.564 C287.281,683.038 287.329,682.847 287.592,681.795 C287.855,680.79 287.903,680.551 288.118,679.643 L288.979,676.295 C289.146,675.626 289.146,675.578 289.146,675.482 C289.146,675.076 288.859,674.837 288.453,674.837 C287.879,674.837 287.52,675.363 287.448,675.889 z M285.894,682.081 C285.775,682.512 285.775,682.56 285.416,682.966 C284.364,684.281 283.384,684.664 282.714,684.664 C281.519,684.664 281.184,683.349 281.184,682.416 C281.184,681.221 281.949,678.28 282.499,677.18 C283.24,675.769 284.316,674.884 285.272,674.884 C286.827,674.884 287.161,676.845 287.161,676.989 C287.161,677.132 287.114,677.276 287.09,677.395 z" fill="#4E4E4E" id="Layer_1"/>
    <path d="M285.153,700.496 C285.153,700.472 285.153,700.233 284.842,700.233 C284.292,700.233 282.547,700.424 281.925,700.472 C281.734,700.496 281.471,700.52 281.471,700.95 C281.471,701.237 281.686,701.237 282.045,701.237 C283.192,701.237 283.24,701.405 283.24,701.644 C283.24,701.811 283.025,702.624 282.905,703.126 L280.945,710.921 C280.658,712.116 280.562,712.499 280.562,713.336 C280.562,715.607 281.829,717.09 283.599,717.09 C286.42,717.09 289.361,713.527 289.361,710.084 C289.361,707.908 288.094,706.258 286.181,706.258 C285.081,706.258 284.101,706.952 283.384,707.693 z M282.905,709.534 C283.049,709.008 283.049,708.96 283.264,708.697 C284.436,707.143 285.512,706.784 286.133,706.784 C286.994,706.784 287.64,707.502 287.64,709.032 C287.64,710.443 286.851,713.192 286.42,714.101 C285.631,715.703 284.531,716.564 283.599,716.564 C282.786,716.564 281.997,715.918 281.997,714.149 C281.997,713.695 281.997,713.24 282.379,711.734 z" fill="#4E4E4E" id="Layer_1"/>
    <path d="M369.464,689.926 C369.081,689.926 368.747,689.926 368.412,690.261 C368.029,690.62 367.982,691.026 367.982,691.193 C367.982,691.767 368.412,692.03 368.866,692.03 C369.56,692.03 370.205,691.456 370.205,690.5 C370.205,689.328 369.081,688.444 367.384,688.444 C364.156,688.444 360.976,691.863 360.976,695.234 C360.976,697.386 362.363,699.275 364.849,699.275 C368.268,699.275 370.277,696.741 370.277,696.454 C370.277,696.31 370.133,696.143 369.99,696.143 C369.87,696.143 369.823,696.191 369.679,696.382 C367.79,698.749 365.184,698.749 364.897,698.749 C363.391,698.749 362.745,697.578 362.745,696.143 C362.745,695.163 363.223,692.843 364.036,691.361 C364.778,689.998 366.093,688.97 367.408,688.97 C368.221,688.97 369.129,689.281 369.464,689.926 z" fill="#4E4E4E" id="Layer_1"/>
    <g id="Layer_1">
      <path d="M210.31,686.84 C210.454,686.266 210.526,686.027 210.98,685.955 C211.195,685.931 211.96,685.931 212.438,685.931 C214.136,685.931 216.79,685.931 216.79,688.298 C216.79,689.111 216.408,690.761 215.475,691.693 C214.853,692.315 213.586,693.08 211.434,693.08 L208.756,693.08 z M213.754,693.391 C216.168,692.865 219.014,691.191 219.014,688.776 C219.014,686.72 216.862,685.19 213.73,685.19 L206.915,685.19 C206.437,685.19 206.222,685.19 206.222,685.668 C206.222,685.931 206.437,685.931 206.891,685.931 C206.939,685.931 207.393,685.931 207.8,685.979 C208.23,686.027 208.445,686.051 208.445,686.361 C208.445,686.457 208.422,686.529 208.35,686.816 L205.146,699.656 C204.907,700.588 204.859,700.779 202.97,700.779 C202.54,700.779 202.324,700.779 202.324,701.258 C202.324,701.521 202.611,701.521 202.659,701.521 C203.329,701.521 205.002,701.449 205.672,701.449 C206.341,701.449 208.039,701.521 208.708,701.521 C208.9,701.521 209.187,701.521 209.187,701.042 C209.187,700.779 208.971,700.779 208.517,700.779 C207.633,700.779 206.963,700.779 206.963,700.349 C206.963,700.205 207.011,700.086 207.035,699.942 L208.613,693.606 L211.458,693.606 C213.634,693.606 214.064,694.945 214.064,695.782 C214.064,696.141 213.873,696.882 213.73,697.432 C213.562,698.101 213.347,698.986 213.347,699.464 C213.347,702.047 216.216,702.047 216.527,702.047 C218.559,702.047 219.396,699.632 219.396,699.297 C219.396,699.01 219.133,699.01 219.109,699.01 C218.894,699.01 218.846,699.177 218.799,699.345 C218.201,701.114 217.173,701.521 216.623,701.521 C215.834,701.521 215.666,700.995 215.666,700.062 C215.666,699.321 215.81,698.101 215.905,697.336 C215.953,697.001 216.001,696.547 216.001,696.212 C216.001,694.371 214.399,693.63 213.754,693.391 z" fill="#4E4E4E"/>
      <path d="M226.831,698.698 C226.228,698.799 225.977,699.267 225.977,699.635 C225.977,700.087 226.329,700.255 226.63,700.255 C226.998,700.255 227.584,699.987 227.584,699.184 C227.584,698.045 226.279,697.727 225.375,697.727 C222.864,697.727 220.538,700.037 220.538,702.364 C220.538,703.803 221.542,705.276 223.634,705.276 C226.463,705.276 227.785,703.619 227.785,703.385 C227.785,703.284 227.634,703.1 227.5,703.1 C227.4,703.1 227.367,703.134 227.233,703.267 C225.927,704.807 223.969,704.807 223.668,704.807 C222.463,704.807 221.927,703.987 221.927,702.949 C221.927,702.464 222.161,700.64 223.032,699.485 C223.668,698.665 224.538,698.196 225.375,698.196 C225.609,698.196 226.413,698.23 226.831,698.698 z" fill="#4E4E4E"/>
    </g>
    <g id="Layer_1">
      <path d="M121.988,670.008 C122.132,669.434 122.203,669.195 122.658,669.123 C122.873,669.099 123.638,669.099 124.116,669.099 C125.814,669.099 128.468,669.099 128.468,671.466 C128.468,672.279 128.085,673.929 127.153,674.861 C126.531,675.483 125.264,676.248 123.112,676.248 L120.434,676.248 z M125.431,676.559 C127.846,676.033 130.691,674.359 130.691,671.944 C130.691,669.888 128.54,668.358 125.407,668.358 L118.593,668.358 C118.115,668.358 117.899,668.358 117.899,668.836 C117.899,669.099 118.115,669.099 118.569,669.099 C118.617,669.099 119.071,669.099 119.478,669.147 C119.908,669.195 120.123,669.219 120.123,669.529 C120.123,669.625 120.099,669.697 120.027,669.984 L116.824,682.823 C116.584,683.756 116.537,683.947 114.648,683.947 C114.217,683.947 114.002,683.947 114.002,684.425 C114.002,684.688 114.289,684.688 114.337,684.688 C115.006,684.688 116.68,684.617 117.35,684.617 C118.019,684.617 119.717,684.688 120.386,684.688 C120.577,684.688 120.864,684.688 120.864,684.21 C120.864,683.947 120.649,683.947 120.195,683.947 C119.31,683.947 118.641,683.947 118.641,683.517 C118.641,683.373 118.689,683.254 118.712,683.11 L120.291,676.774 L123.136,676.774 C125.312,676.774 125.742,678.113 125.742,678.95 C125.742,679.309 125.551,680.05 125.407,680.6 C125.24,681.269 125.025,682.154 125.025,682.632 C125.025,685.214 127.894,685.214 128.205,685.214 C130.237,685.214 131.074,682.799 131.074,682.465 C131.074,682.178 130.811,682.178 130.787,682.178 C130.572,682.178 130.524,682.345 130.476,682.513 C129.879,684.282 128.85,684.688 128.3,684.688 C127.511,684.688 127.344,684.162 127.344,683.23 C127.344,682.489 127.487,681.269 127.583,680.504 C127.631,680.169 127.679,679.715 127.679,679.38 C127.679,677.539 126.077,676.798 125.431,676.559 z" fill="#4E4E4E"/>
      <path d="M138.238,681.883 C137.887,681.331 137.318,680.895 136.515,680.895 C134.372,680.895 132.196,683.255 132.196,685.665 C132.196,687.289 133.284,688.444 134.724,688.444 C135.627,688.444 136.431,687.925 137.1,687.272 C137.418,688.276 138.389,688.444 138.824,688.444 C139.427,688.444 139.845,688.076 140.146,687.557 C140.515,686.904 140.732,685.95 140.732,685.883 C140.732,685.665 140.515,685.665 140.464,685.665 C140.23,685.665 140.213,685.732 140.096,686.184 C139.895,686.988 139.577,687.975 138.874,687.975 C138.439,687.975 138.322,687.607 138.322,687.155 C138.322,686.87 138.456,686.268 138.573,685.833 C138.69,685.381 138.858,684.695 138.941,684.326 L139.276,683.054 C139.377,682.619 139.577,681.833 139.577,681.749 C139.577,681.381 139.276,681.213 139.008,681.213 C138.724,681.213 138.339,681.414 138.238,681.883 z M137.167,686.184 C137.05,686.653 136.682,686.988 136.314,687.306 C136.163,687.44 135.494,687.975 134.774,687.975 C134.155,687.975 133.552,687.54 133.552,686.352 C133.552,685.465 134.037,683.623 134.422,682.954 C135.192,681.615 136.046,681.364 136.515,681.364 C137.686,681.364 138.004,682.636 138.004,682.82 C138.004,682.887 137.971,683.004 137.954,683.054 z" fill="#4E4E4E"/>
    </g>
    <g id="Layer_1">
      <path d="M120.662,696.596 C120.805,696.022 120.877,695.783 121.331,695.711 C121.547,695.687 122.312,695.687 122.79,695.687 C124.487,695.687 127.142,695.687 127.142,698.054 C127.142,698.867 126.759,700.517 125.826,701.449 C125.205,702.071 123.938,702.836 121.786,702.836 L119.108,702.836 z M124.105,703.147 C126.52,702.621 129.365,700.947 129.365,698.532 C129.365,696.476 127.213,694.946 124.081,694.946 L117.267,694.946 C116.788,694.946 116.573,694.946 116.573,695.424 C116.573,695.687 116.788,695.687 117.243,695.687 C117.29,695.687 117.745,695.687 118.151,695.735 C118.582,695.783 118.797,695.807 118.797,696.117 C118.797,696.213 118.773,696.285 118.701,696.572 L115.497,709.411 C115.258,710.344 115.21,710.535 113.321,710.535 C112.891,710.535 112.676,710.535 112.676,711.013 C112.676,711.276 112.963,711.276 113.011,711.276 C113.68,711.276 115.354,711.205 116.023,711.205 C116.693,711.205 118.39,711.276 119.06,711.276 C119.251,711.276 119.538,711.276 119.538,710.798 C119.538,710.535 119.323,710.535 118.869,710.535 C117.984,710.535 117.314,710.535 117.314,710.105 C117.314,709.961 117.362,709.842 117.386,709.698 L118.964,703.362 L121.81,703.362 C123.985,703.362 124.416,704.701 124.416,705.538 C124.416,705.897 124.224,706.638 124.081,707.188 C123.914,707.857 123.698,708.742 123.698,709.22 C123.698,711.802 126.568,711.802 126.878,711.802 C128.911,711.802 129.748,709.388 129.748,709.053 C129.748,708.766 129.485,708.766 129.461,708.766 C129.246,708.766 129.198,708.933 129.15,709.101 C128.552,710.87 127.524,711.276 126.974,711.276 C126.185,711.276 126.018,710.75 126.018,709.818 C126.018,709.077 126.161,707.857 126.257,707.092 C126.305,706.757 126.352,706.303 126.352,705.968 C126.352,704.127 124.75,703.386 124.105,703.147 z" fill="#4E4E4E"/>
      <path d="M134.268,703.751 C134.284,703.718 134.335,703.5 134.335,703.483 C134.335,703.399 134.268,703.249 134.067,703.249 C133.732,703.249 132.343,703.383 131.924,703.416 C131.791,703.433 131.556,703.45 131.556,703.801 C131.556,704.036 131.791,704.036 131.991,704.036 C132.795,704.036 132.795,704.153 132.795,704.287 C132.795,704.404 132.627,705.073 132.527,705.458 L132.142,706.998 C131.991,707.567 131.071,711.232 131.037,711.45 C130.954,711.852 130.954,712.069 130.954,712.27 C130.954,713.961 132.025,715.032 133.414,715.032 C135.506,715.032 137.732,712.756 137.732,710.278 C137.732,708.32 136.377,707.483 135.222,707.483 C134.351,707.483 133.615,707.969 133.113,708.404 z M133.431,714.563 C132.611,714.563 132.142,713.843 132.142,712.856 C132.142,712.237 132.293,711.668 132.761,709.776 C132.862,709.458 132.862,709.425 133.18,709.057 C133.816,708.32 134.569,707.952 135.171,707.952 C135.824,707.952 136.393,708.437 136.393,709.576 C136.393,710.262 136.025,711.969 135.523,712.94 C135.121,713.76 134.284,714.563 133.431,714.563 z" fill="#4E4E4E"/>
    </g>
    <path d="M167.885,690.62 C168.004,690.117 168.243,689.209 168.243,689.089 C168.243,688.683 167.956,688.444 167.55,688.444 C167.478,688.444 166.809,688.468 166.594,689.305 L163.15,703.149 C163.079,703.435 163.079,703.483 163.079,703.531 C163.079,703.89 163.342,704.177 163.748,704.177 C164.25,704.177 164.537,703.746 164.585,703.675 C164.681,703.459 164.992,702.216 165.9,698.534 C166.665,699.18 167.741,699.275 168.219,699.275 C169.893,699.275 170.826,698.199 171.4,697.53 C171.615,698.606 172.499,699.275 173.551,699.275 C174.388,699.275 174.938,698.725 175.321,697.96 C175.727,697.099 176.038,695.641 176.038,695.593 C176.038,695.354 175.823,695.354 175.751,695.354 C175.512,695.354 175.488,695.449 175.416,695.784 C175.01,697.338 174.58,698.749 173.599,698.749 C172.954,698.749 172.882,698.127 172.882,697.649 C172.882,697.123 173.169,695.999 173.36,695.163 L174.03,692.58 C174.101,692.222 174.34,691.313 174.436,690.954 C174.556,690.404 174.795,689.496 174.795,689.352 C174.795,688.922 174.46,688.707 174.101,688.707 C173.982,688.707 173.36,688.731 173.169,689.544 L172.045,694.015 C171.758,695.21 171.495,696.215 171.423,696.454 C171.4,696.573 170.252,698.749 168.315,698.749 C167.12,698.749 166.546,697.96 166.546,696.669 C166.546,695.976 166.713,695.306 166.88,694.637 z" fill="#4E4E4E" id="Layer_1"/>
    <g>
      <path d="M312.621,666.807 L312.621,723.5 L341.063,709.327 L341.063,680.98 L312.621,666.807 z" fill="#FFFFFF"/>
      <path d="M312.621,666.807 L312.621,723.5 L341.063,709.327 L341.063,680.98 L312.621,666.807 z" fill-opacity="0" stroke="#000000" stroke-width="1"/>
    </g>
    <g>
      <path d="M307.447,680.98 L312.621,680.98" fill-opacity="0" stroke="#000000" stroke-width="1"/>
      <path d="M307.447,677.98 L299.447,680.98 L307.447,683.98 z" fill="#000000" fill-opacity="1" stroke="#000000" stroke-width="1" stroke-opacity="1"/>
    </g>
    <g>
      <path d="M307.447,709.327 L312.621,709.327" fill-opacity="0" stroke="#000000" stroke-width="1"/>
      <path d="M307.447,706.327 L299.447,709.327 L307.447,712.327 z" fill="#000000" fill-opacity="1" stroke="#000000" stroke-width="1" stroke-opacity="1"/>
    </g>
    <g>
      <path d="M349.967,695.154 L355.14,695.154" fill-opacity="0" stroke="#000000" stroke-width="1"/>
      <path d="M349.967,692.154 L341.967,695.154 L349.967,698.154 z" fill="#000000" fill-opacity="1" stroke="#000000" stroke-width="1" stroke-opacity="1"/>
    </g>
    <path d="M324.1,690.785 C324.219,690.283 324.458,689.374 324.458,689.255 C324.458,688.848 324.171,688.609 323.765,688.609 C323.693,688.609 323.024,688.633 322.809,689.47 L319.366,703.314 C319.294,703.601 319.294,703.649 319.294,703.696 C319.294,704.055 319.557,704.342 319.963,704.342 C320.465,704.342 320.752,703.912 320.8,703.84 C320.896,703.625 321.207,702.381 322.115,698.699 C322.88,699.345 323.956,699.44 324.435,699.44 C326.108,699.44 327.041,698.365 327.615,697.695 C327.83,698.771 328.714,699.44 329.766,699.44 C330.603,699.44 331.153,698.891 331.536,698.125 C331.942,697.265 332.253,695.806 332.253,695.758 C332.253,695.519 332.038,695.519 331.966,695.519 C331.727,695.519 331.703,695.615 331.631,695.95 C331.225,697.504 330.795,698.914 329.814,698.914 C329.169,698.914 329.097,698.293 329.097,697.815 C329.097,697.289 329.384,696.165 329.575,695.328 L330.245,692.746 C330.316,692.387 330.556,691.478 330.651,691.12 C330.771,690.57 331.01,689.661 331.01,689.518 C331.01,689.087 330.675,688.872 330.316,688.872 C330.197,688.872 329.575,688.896 329.384,689.709 L328.26,694.18 C327.973,695.376 327.71,696.38 327.638,696.619 C327.615,696.739 326.467,698.914 324.53,698.914 C323.335,698.914 322.761,698.125 322.761,696.834 C322.761,696.141 322.928,695.471 323.096,694.802 z" fill="#4E4E4E" id="Layer_1"/>
    <path d="M255.574,692.015 C255.933,692.015 256.387,692.015 256.387,691.537 C256.387,691.059 255.933,691.059 255.598,691.059 L241.276,691.059 C240.941,691.059 240.487,691.059 240.487,691.537 C240.487,692.015 240.941,692.015 241.299,692.015 z M255.598,696.654 C255.933,696.654 256.387,696.654 256.387,696.176 C256.387,695.697 255.933,695.697 255.574,695.697 L241.299,695.697 C240.941,695.697 240.487,695.697 240.487,696.176 C240.487,696.654 240.941,696.654 241.276,696.654 z" fill="#4E4E4E" id="Layer_1"/>
    <path d="M498.826,675.889 C498.395,675.004 497.702,674.358 496.626,674.358 C493.828,674.358 490.863,677.873 490.863,681.364 C490.863,683.612 492.179,685.19 494.044,685.19 C494.522,685.19 495.717,685.094 497.152,683.397 C497.343,684.401 498.18,685.19 499.328,685.19 C500.165,685.19 500.714,684.64 501.097,683.875 C501.504,683.014 501.814,681.555 501.814,681.508 C501.814,681.268 501.599,681.268 501.527,681.268 C501.288,681.268 501.264,681.364 501.193,681.699 C500.786,683.253 500.356,684.664 499.376,684.664 C498.73,684.664 498.658,684.042 498.658,683.564 C498.658,683.038 498.706,682.847 498.969,681.795 C499.232,680.79 499.28,680.551 499.495,679.643 L500.356,676.295 C500.523,675.626 500.523,675.578 500.523,675.482 C500.523,675.076 500.236,674.837 499.83,674.837 C499.256,674.837 498.897,675.363 498.826,675.889 z M497.271,682.081 C497.152,682.512 497.152,682.56 496.793,682.966 C495.741,684.281 494.761,684.664 494.091,684.664 C492.896,684.664 492.561,683.349 492.561,682.416 C492.561,681.221 493.326,678.28 493.876,677.18 C494.617,675.769 495.693,674.884 496.65,674.884 C498.204,674.884 498.539,676.845 498.539,676.989 C498.539,677.132 498.491,677.276 498.467,677.395 z" fill="#4E4E4E" id="Layer_1"/>
    <path d="M496.53,700.496 C496.53,700.472 496.53,700.233 496.219,700.233 C495.669,700.233 493.924,700.424 493.302,700.472 C493.111,700.496 492.848,700.52 492.848,700.95 C492.848,701.237 493.063,701.237 493.422,701.237 C494.57,701.237 494.617,701.405 494.617,701.644 C494.617,701.811 494.402,702.624 494.283,703.126 L492.322,710.921 C492.035,712.116 491.939,712.499 491.939,713.336 C491.939,715.607 493.207,717.09 494.976,717.09 C497.797,717.09 500.738,713.527 500.738,710.084 C500.738,707.908 499.471,706.258 497.558,706.258 C496.458,706.258 495.478,706.952 494.761,707.693 z M494.283,709.534 C494.426,709.008 494.426,708.96 494.641,708.697 C495.813,707.143 496.889,706.784 497.51,706.784 C498.371,706.784 499.017,707.502 499.017,709.032 C499.017,710.443 498.228,713.192 497.797,714.101 C497.008,715.703 495.909,716.564 494.976,716.564 C494.163,716.564 493.374,715.918 493.374,714.149 C493.374,713.695 493.374,713.24 493.757,711.734 z" fill="#4E4E4E" id="Layer_1"/>
    <path d="M419.512,689.926 C419.129,689.926 418.794,689.926 418.46,690.261 C418.077,690.62 418.029,691.026 418.029,691.193 C418.029,691.767 418.46,692.03 418.914,692.03 C419.607,692.03 420.253,691.456 420.253,690.5 C420.253,689.328 419.129,688.444 417.432,688.444 C414.204,688.444 411.024,691.863 411.024,695.234 C411.024,697.386 412.41,699.275 414.897,699.275 C418.316,699.275 420.325,696.741 420.325,696.454 C420.325,696.31 420.181,696.143 420.038,696.143 C419.918,696.143 419.87,696.191 419.727,696.382 C417.838,698.749 415.232,698.749 414.945,698.749 C413.439,698.749 412.793,697.578 412.793,696.143 C412.793,695.163 413.271,692.843 414.084,691.361 C414.825,689.998 416.14,688.97 417.456,688.97 C418.268,688.97 419.177,689.281 419.512,689.926 z" fill="#4E4E4E" id="Layer_1"/>
    <g>
      <path d="M469.584,666.642 L469.584,723.335 L441.141,709.161 L441.141,680.815 L469.584,666.642 z" fill="#FFFFFF"/>
      <path d="M469.584,666.642 L469.584,723.335 L441.141,709.161 L441.141,680.815 L469.584,666.642 z" fill-opacity="0" stroke="#000000" stroke-width="1"/>
    </g>
    <g>
      <path d="M478.68,680.98 L483.853,680.98" fill-opacity="0" stroke="#000000" stroke-width="1"/>
      <path d="M478.68,677.98 L470.68,680.98 L478.68,683.98 z" fill="#000000" fill-opacity="1" stroke="#000000" stroke-width="1" stroke-opacity="1"/>
    </g>
    <g>
      <path d="M478.68,709.327 L483.853,709.327" fill-opacity="0" stroke="#000000" stroke-width="1"/>
      <path d="M478.68,706.327 L470.68,709.327 L478.68,712.327 z" fill="#000000" fill-opacity="1" stroke="#000000" stroke-width="1" stroke-opacity="1"/>
    </g>
    <g>
      <path d="M436.064,694.988 L441.237,694.988" fill-opacity="0" stroke="#000000" stroke-width="1"/>
      <path d="M436.064,691.988 L428.064,694.988 L436.064,697.988 z" fill="#000000" fill-opacity="1" stroke="#000000" stroke-width="1" stroke-opacity="1"/>
    </g>
    <path d="M453.853,690.785 C453.973,690.283 454.212,689.374 454.212,689.255 C454.212,688.848 453.925,688.609 453.519,688.609 C453.447,688.609 452.777,688.633 452.562,689.47 L449.119,703.314 C449.047,703.601 449.047,703.649 449.047,703.696 C449.047,704.055 449.31,704.342 449.717,704.342 C450.219,704.342 450.506,703.912 450.554,703.84 C450.649,703.625 450.96,702.381 451.869,698.699 C452.634,699.345 453.71,699.44 454.188,699.44 C455.862,699.44 456.794,698.365 457.368,697.695 C457.583,698.771 458.468,699.44 459.52,699.44 C460.357,699.44 460.907,698.891 461.289,698.125 C461.696,697.265 462.007,695.806 462.007,695.758 C462.007,695.519 461.792,695.519 461.72,695.519 C461.481,695.519 461.457,695.615 461.385,695.95 C460.979,697.504 460.548,698.914 459.568,698.914 C458.922,698.914 458.851,698.293 458.851,697.815 C458.851,697.289 459.138,696.165 459.329,695.328 L459.998,692.746 C460.07,692.387 460.309,691.478 460.405,691.12 C460.524,690.57 460.763,689.661 460.763,689.518 C460.763,689.087 460.429,688.872 460.07,688.872 C459.95,688.872 459.329,688.896 459.138,689.709 L458.014,694.18 C457.727,695.376 457.464,696.38 457.392,696.619 C457.368,696.739 456.22,698.914 454.284,698.914 C453.088,698.914 452.514,698.125 452.514,696.834 C452.514,696.141 452.682,695.471 452.849,694.802 z" fill="#4E4E4E" id="Layer_1"/>
    <path d="M393.591,692.595 C393.95,692.595 394.404,692.595 394.404,692.116 C394.404,691.638 393.95,691.638 393.615,691.638 L379.293,691.638 C378.958,691.638 378.504,691.638 378.504,692.116 C378.504,692.595 378.958,692.595 379.317,692.595 z M393.615,697.233 C393.95,697.233 394.404,697.233 394.404,696.755 C394.404,696.277 393.95,696.277 393.591,696.277 L379.317,696.277 C378.958,696.277 378.504,696.277 378.504,696.755 C378.504,697.233 378.958,697.233 379.293,697.233 z" fill="#4E4E4E" id="Layer_1"/>
    <path d="M414.661,722.297 C414.661,722.202 414.613,722.154 414.566,722.082 C413.681,721.198 412.079,719.596 410.477,717.013 C406.627,710.844 404.882,703.074 404.882,693.868 C404.882,687.436 405.743,679.139 409.688,672.014 C411.577,668.619 413.538,666.658 414.59,665.606 C414.661,665.535 414.661,665.487 414.661,665.415 C414.661,665.176 414.494,665.176 414.159,665.176 C413.824,665.176 413.777,665.176 413.418,665.535 C405.408,672.827 402.897,683.778 402.897,693.844 C402.897,703.241 405.049,712.709 411.123,719.859 C411.601,720.409 412.509,721.389 413.49,722.25 C413.777,722.537 413.824,722.537 414.159,722.537 C414.494,722.537 414.661,722.537 414.661,722.297 z" fill="#4E4E4E" id="Layer_1"/>
    <g clip-path="url(#Clip_1)" id="Layer_1">
      <path d="M517.076,696.292 C517.076,686.895 514.924,677.427 508.851,670.278 C508.372,669.728 507.464,668.747 506.484,667.887 C506.197,667.6 506.149,667.6 505.814,667.6 C505.527,667.6 505.312,667.6 505.312,667.839 C505.312,667.934 505.408,668.03 505.455,668.078 C506.292,668.939 507.894,670.541 509.496,673.123 C513.346,679.292 515.091,687.062 515.091,696.268 C515.091,702.7 514.23,710.997 510.285,718.122 C508.396,721.517 506.412,723.502 505.408,724.506 C505.36,724.578 505.312,724.649 505.312,724.721 C505.312,724.96 505.527,724.96 505.814,724.96 C506.149,724.96 506.197,724.96 506.555,724.602 C514.565,717.309 517.076,706.358 517.076,696.292 z" fill="#4E4E4E"/>
      <path d="M526.66,666.513 C526.911,666.547 527.079,666.564 527.581,666.698 C528.116,666.848 528.518,666.949 528.836,666.949 C529.489,666.949 529.556,666.447 529.556,666.296 C529.556,666.162 529.489,665.643 528.836,665.643 C528.518,665.643 528.116,665.744 527.581,665.894 C527.079,666.028 526.911,666.045 526.66,666.078 C526.694,665.492 526.811,664.79 526.895,664.271 C526.962,663.936 527.112,663.082 527.112,662.497 C527.112,661.994 526.878,661.727 526.459,661.727 C526.108,661.727 525.807,661.911 525.807,662.497 C525.807,663.049 525.941,663.886 526.041,664.455 C526.074,664.639 526.225,665.459 526.259,666.078 C526.008,666.045 525.84,666.028 525.338,665.894 C524.802,665.744 524.401,665.643 524.083,665.643 C523.43,665.643 523.363,666.145 523.363,666.296 C523.363,666.43 523.43,666.949 524.083,666.949 C524.401,666.949 524.802,666.848 525.338,666.698 C525.84,666.564 526.008,666.547 526.259,666.513 C526.225,666.932 526.108,667.468 526.024,667.819 C525.807,668.857 525.807,668.974 525.807,669.844 C525.807,673.074 526.125,676.506 526.175,676.84 C526.192,676.991 526.225,677.091 526.459,677.091 C526.71,677.091 526.727,676.991 526.761,676.757 C526.761,676.74 526.895,675.284 526.962,674.263 C527.045,672.79 527.112,671.317 527.112,669.844 C527.112,668.974 527.112,668.857 526.878,667.786 C526.844,667.601 526.694,666.932 526.66,666.513 z" fill="#4E4E4E"/>
    </g>
  </g>
</svg>
