<?xml version="1.0" encoding="UTF-8"?>
<!DOCTYPE svg PUBLIC "-//W3C//DTD SVG 1.1//EN" "http://www.w3.org/Graphics/SVG/1.1/DTD/svg11.dtd">
<svg version="1.1" xmlns="http://www.w3.org/2000/svg" xmlns:xlink="http://www.w3.org/1999/xlink" x="0" y="0" width="114.729" height="87.039" viewBox="0, 0, 114.729, 87.039">
  <g id="Layer_1" transform="translate(-84.696, -55.693)">
    <g>
      <path d="M142.232,57.193 L198.925,57.193 L198.925,142.232 L142.232,142.232 L142.232,57.193 z" fill="#FFFFFF"/>
      <path d="M142.232,57.193 L198.925,57.193 L198.925,142.232 L142.232,142.232 L142.232,57.193 z" fill-opacity="0" stroke="#000000" stroke-width="1"/>
    </g>
    <path d="M113.886,71.366 L142.232,71.366" fill-opacity="0" stroke="#000000" stroke-width="1"/>
    <path d="M142.232,99.713 L113.886,99.713" fill-opacity="0" stroke="#000000" stroke-width="1"/>
    <path d="M142.232,128.059 L113.886,128.059" fill-opacity="0" stroke="#000000" stroke-width="1"/>
    <path d="M170.784,92.254 L173.032,92.254 C173.51,92.254 173.749,92.254 173.749,91.776 C173.749,91.513 173.51,91.513 173.079,91.513 L170.975,91.513 C171.836,88.118 171.956,87.64 171.956,87.496 C171.956,87.09 171.669,86.85 171.262,86.85 C171.191,86.85 170.521,86.874 170.306,87.711 L169.373,91.513 L167.126,91.513 C166.648,91.513 166.409,91.513 166.409,91.967 C166.409,92.254 166.6,92.254 167.078,92.254 L169.182,92.254 C167.461,99.045 167.365,99.451 167.365,99.882 C167.365,101.173 168.274,102.081 169.565,102.081 C172.004,102.081 173.366,98.59 173.366,98.399 C173.366,98.16 173.175,98.16 173.079,98.16 C172.864,98.16 172.84,98.232 172.721,98.495 C171.693,100.981 170.425,101.555 169.613,101.555 C169.11,101.555 168.871,101.244 168.871,100.455 C168.871,99.882 168.919,99.714 169.015,99.308 z" fill="#4E4E4E" id="Layer_1"/>
    <g id="Layer_1">
      <path d="M98.716,59.419 C99.888,57.554 100.892,57.482 101.777,57.434 C102.063,57.41 102.087,57.004 102.087,56.98 C102.087,56.789 101.968,56.693 101.777,56.693 C101.155,56.693 100.461,56.765 99.816,56.765 C99.027,56.765 98.214,56.693 97.449,56.693 C97.305,56.693 96.994,56.693 96.994,57.147 C96.994,57.41 97.21,57.434 97.377,57.434 C98.023,57.482 98.477,57.721 98.477,58.223 C98.477,58.582 98.118,59.108 98.118,59.132 L90.778,70.8 L89.152,58.151 C89.152,57.745 89.702,57.434 90.802,57.434 C91.136,57.434 91.399,57.434 91.399,56.956 C91.399,56.741 91.208,56.693 91.065,56.693 C90.108,56.693 89.08,56.765 88.1,56.765 C87.67,56.765 87.215,56.741 86.785,56.741 C86.354,56.741 85.9,56.693 85.494,56.693 C85.326,56.693 85.039,56.693 85.039,57.147 C85.039,57.434 85.255,57.434 85.637,57.434 C86.976,57.434 87,57.649 87.072,58.247 L88.961,73 C89.032,73.478 89.128,73.55 89.439,73.55 C89.821,73.55 89.917,73.43 90.108,73.119 z" fill="#4E4E4E"/>
      <path d="M103.256,65.967 C103.256,65.515 103.223,65.498 102.754,65.498 C101.683,66.553 100.16,66.569 99.474,66.569 L99.474,67.172 C99.875,67.172 100.98,67.172 101.9,66.703 L101.9,75.239 C101.9,75.791 101.9,76.009 100.227,76.009 L99.591,76.009 L99.591,76.612 C99.892,76.595 101.951,76.545 102.57,76.545 C103.089,76.545 105.198,76.595 105.566,76.612 L105.566,76.009 L104.93,76.009 C103.256,76.009 103.256,75.791 103.256,75.239 z" fill="#4E4E4E"/>
    </g>
    <g id="Layer_1">
      <path d="M98.448,89.576 C99.62,87.711 100.624,87.64 101.509,87.592 C101.796,87.568 101.82,87.161 101.82,87.137 C101.82,86.946 101.7,86.85 101.509,86.85 C100.887,86.85 100.194,86.922 99.548,86.922 C98.759,86.922 97.946,86.85 97.181,86.85 C97.038,86.85 96.727,86.85 96.727,87.305 C96.727,87.568 96.942,87.592 97.109,87.592 C97.755,87.64 98.209,87.879 98.209,88.381 C98.209,88.739 97.85,89.265 97.85,89.289 L90.51,100.958 L88.884,88.309 C88.884,87.903 89.434,87.592 90.534,87.592 C90.869,87.592 91.132,87.592 91.132,87.113 C91.132,86.898 90.94,86.85 90.797,86.85 C89.841,86.85 88.812,86.922 87.832,86.922 C87.402,86.922 86.947,86.898 86.517,86.898 C86.087,86.898 85.632,86.85 85.226,86.85 C85.059,86.85 84.772,86.85 84.772,87.305 C84.772,87.592 84.987,87.592 85.369,87.592 C86.708,87.592 86.732,87.807 86.804,88.405 L88.693,103.157 C88.765,103.635 88.86,103.707 89.171,103.707 C89.554,103.707 89.649,103.588 89.841,103.277 z" fill="#4E4E4E"/>
      <path d="M105.834,103.723 L105.265,103.723 C105.214,104.091 105.047,105.079 104.829,105.246 C104.696,105.347 103.407,105.347 103.172,105.347 L100.093,105.347 C101.85,103.79 102.436,103.321 103.44,102.535 C104.679,101.547 105.834,100.509 105.834,98.919 C105.834,96.894 104.06,95.656 101.917,95.656 C99.842,95.656 98.436,97.112 98.436,98.652 C98.436,99.505 99.156,99.589 99.323,99.589 C99.725,99.589 100.21,99.304 100.21,98.702 C100.21,98.401 100.093,97.815 99.222,97.815 C99.741,96.626 100.879,96.258 101.666,96.258 C103.34,96.258 104.21,97.564 104.21,98.919 C104.21,100.376 103.172,101.53 102.637,102.133 L98.603,106.116 C98.436,106.267 98.436,106.301 98.436,106.769 L105.332,106.769 z" fill="#4E4E4E"/>
    </g>
    <g id="Layer_1">
      <path d="M98.373,116.112 C99.545,114.247 100.549,114.175 101.433,114.127 C101.72,114.103 101.744,113.697 101.744,113.673 C101.744,113.481 101.625,113.386 101.433,113.386 C100.812,113.386 100.118,113.458 99.473,113.458 C98.684,113.458 97.871,113.386 97.106,113.386 C96.962,113.386 96.651,113.386 96.651,113.84 C96.651,114.103 96.867,114.127 97.034,114.127 C97.68,114.175 98.134,114.414 98.134,114.916 C98.134,115.275 97.775,115.801 97.775,115.825 L90.435,127.493 L88.809,114.844 C88.809,114.438 89.359,114.127 90.459,114.127 C90.793,114.127 91.056,114.127 91.056,113.649 C91.056,113.434 90.865,113.386 90.722,113.386 C89.765,113.386 88.737,113.458 87.757,113.458 C87.326,113.458 86.872,113.434 86.442,113.434 C86.011,113.434 85.557,113.386 85.151,113.386 C84.983,113.386 84.696,113.386 84.696,113.84 C84.696,114.127 84.911,114.127 85.294,114.127 C86.633,114.127 86.657,114.342 86.729,114.94 L88.618,129.693 C88.689,130.171 88.785,130.243 89.096,130.243 C89.478,130.243 89.574,130.123 89.765,129.812 z" fill="#4E4E4E"/>
      <path d="M101.875,127.714 C103.181,127.714 104.118,128.618 104.118,130.409 C104.118,132.484 102.913,133.104 101.942,133.104 C101.273,133.104 99.8,132.92 99.097,131.932 C99.884,131.899 100.068,131.346 100.068,130.995 C100.068,130.459 99.666,130.074 99.147,130.074 C98.679,130.074 98.21,130.359 98.21,131.045 C98.21,132.618 99.951,133.639 101.976,133.639 C104.302,133.639 105.909,132.083 105.909,130.409 C105.909,129.104 104.838,127.798 102.997,127.413 C104.754,126.777 105.39,125.522 105.39,124.501 C105.39,123.179 103.867,122.191 102.009,122.191 C100.151,122.191 98.729,123.095 98.729,124.434 C98.729,125.003 99.097,125.321 99.599,125.321 C100.118,125.321 100.453,124.936 100.453,124.467 C100.453,123.982 100.118,123.63 99.599,123.597 C100.185,122.861 101.34,122.676 101.959,122.676 C102.712,122.676 103.767,123.045 103.767,124.501 C103.767,125.204 103.532,125.974 103.097,126.493 C102.545,127.129 102.076,127.162 101.239,127.212 C100.821,127.246 100.787,127.246 100.704,127.262 C100.67,127.262 100.536,127.296 100.536,127.48 C100.536,127.714 100.687,127.714 100.972,127.714 z" fill="#4E4E4E"/>
    </g>
  </g>
</svg>
