<?xml version="1.0" encoding="UTF-8"?>
<!DOCTYPE svg PUBLIC "-//W3C//DTD SVG 1.1//EN" "http://www.w3.org/Graphics/SVG/1.1/DTD/svg11.dtd">
<svg version="1.1" xmlns="http://www.w3.org/2000/svg" xmlns:xlink="http://www.w3.org/1999/xlink" x="0" y="0" width="185.624" height="87.039" viewBox="0, 0, 185.624, 87.039">
  <g id="Layer_1" transform="translate(-283.465, -55.693)">
    <g>
      <path d="M341.001,57.193 L397.693,57.193 L397.693,142.232 L341.001,142.232 L341.001,57.193 z" fill="#FFFFFF"/>
      <path d="M341.001,57.193 L397.693,57.193 L397.693,142.232 L341.001,142.232 L341.001,57.193 z" fill-opacity="0" stroke="#000000" stroke-width="1"/>
    </g>
    <path d="M312.654,71.366 L341.001,71.366" fill-opacity="0" stroke="#000000" stroke-width="1"/>
    <path d="M341.001,99.713 L312.654,99.713" fill-opacity="0" stroke="#000000" stroke-width="1"/>
    <path d="M341.001,128.059 L312.654,128.059" fill-opacity="0" stroke="#000000" stroke-width="1"/>
    <path d="M369.552,92.254 L371.8,92.254 C372.278,92.254 372.517,92.254 372.517,91.776 C372.517,91.513 372.278,91.513 371.848,91.513 L369.744,91.513 C370.604,88.118 370.724,87.64 370.724,87.496 C370.724,87.09 370.437,86.85 370.031,86.85 C369.959,86.85 369.289,86.874 369.074,87.711 L368.142,91.513 L365.894,91.513 C365.416,91.513 365.177,91.513 365.177,91.967 C365.177,92.254 365.368,92.254 365.846,92.254 L367.95,92.254 C366.229,99.045 366.133,99.451 366.133,99.882 C366.133,101.173 367.042,102.081 368.333,102.081 C370.772,102.081 372.135,98.59 372.135,98.399 C372.135,98.16 371.943,98.16 371.848,98.16 C371.633,98.16 371.609,98.232 371.489,98.495 C370.461,100.981 369.194,101.555 368.381,101.555 C367.879,101.555 367.64,101.244 367.64,100.455 C367.64,99.882 367.687,99.714 367.783,99.308 z" fill="#4E4E4E" id="Layer_1"/>
    <g id="Layer_1">
      <path d="M297.484,59.419 C298.656,57.554 299.66,57.482 300.545,57.434 C300.832,57.41 300.856,57.004 300.856,56.98 C300.856,56.789 300.736,56.693 300.545,56.693 C299.923,56.693 299.23,56.765 298.584,56.765 C297.795,56.765 296.982,56.693 296.217,56.693 C296.074,56.693 295.763,56.693 295.763,57.147 C295.763,57.41 295.978,57.434 296.145,57.434 C296.791,57.482 297.245,57.721 297.245,58.223 C297.245,58.582 296.887,59.108 296.887,59.132 L289.546,70.8 L287.92,58.151 C287.92,57.745 288.47,57.434 289.57,57.434 C289.905,57.434 290.168,57.434 290.168,56.956 C290.168,56.741 289.977,56.693 289.833,56.693 C288.877,56.693 287.849,56.765 286.868,56.765 C286.438,56.765 285.984,56.741 285.553,56.741 C285.123,56.741 284.668,56.693 284.262,56.693 C284.095,56.693 283.808,56.693 283.808,57.147 C283.808,57.434 284.023,57.434 284.405,57.434 C285.744,57.434 285.768,57.649 285.84,58.247 L287.729,73 C287.801,73.478 287.896,73.55 288.207,73.55 C288.59,73.55 288.685,73.43 288.877,73.119 z" fill="#4E4E4E"/>
      <path d="M302.024,65.967 C302.024,65.515 301.991,65.498 301.522,65.498 C300.451,66.553 298.928,66.569 298.242,66.569 L298.242,67.172 C298.644,67.172 299.748,67.172 300.669,66.703 L300.669,75.239 C300.669,75.791 300.669,76.009 298.995,76.009 L298.359,76.009 L298.359,76.612 C298.66,76.595 300.719,76.545 301.338,76.545 C301.857,76.545 303.966,76.595 304.334,76.612 L304.334,76.009 L303.698,76.009 C302.024,76.009 302.024,75.791 302.024,75.239 z" fill="#4E4E4E"/>
    </g>
    <g id="Layer_1">
      <path d="M297.217,89.576 C298.388,87.711 299.392,87.64 300.277,87.592 C300.564,87.568 300.588,87.161 300.588,87.137 C300.588,86.946 300.468,86.851 300.277,86.851 C299.655,86.851 298.962,86.922 298.316,86.922 C297.527,86.922 296.714,86.851 295.949,86.851 C295.806,86.851 295.495,86.851 295.495,87.305 C295.495,87.568 295.71,87.592 295.878,87.592 C296.523,87.64 296.977,87.879 296.977,88.381 C296.977,88.739 296.619,89.265 296.619,89.289 L289.278,100.958 L287.652,88.309 C287.652,87.903 288.202,87.592 289.302,87.592 C289.637,87.592 289.9,87.592 289.9,87.114 C289.9,86.898 289.709,86.851 289.565,86.851 C288.609,86.851 287.581,86.922 286.6,86.922 C286.17,86.922 285.716,86.898 285.285,86.898 C284.855,86.898 284.401,86.851 283.994,86.851 C283.827,86.851 283.54,86.851 283.54,87.305 C283.54,87.592 283.755,87.592 284.138,87.592 C285.477,87.592 285.501,87.807 285.572,88.405 L287.461,103.157 C287.533,103.635 287.629,103.707 287.939,103.707 C288.322,103.707 288.418,103.588 288.609,103.277 z" fill="#4E4E4E"/>
      <path d="M304.602,103.723 L304.033,103.723 C303.983,104.091 303.815,105.079 303.598,105.246 C303.464,105.347 302.175,105.347 301.941,105.347 L298.861,105.347 C300.619,103.79 301.204,103.321 302.209,102.535 C303.447,101.547 304.602,100.51 304.602,98.919 C304.602,96.894 302.828,95.656 300.686,95.656 C298.61,95.656 297.204,97.112 297.204,98.652 C297.204,99.505 297.924,99.589 298.091,99.589 C298.493,99.589 298.978,99.304 298.978,98.702 C298.978,98.401 298.861,97.815 297.991,97.815 C298.51,96.627 299.648,96.258 300.434,96.258 C302.108,96.258 302.978,97.564 302.978,98.919 C302.978,100.376 301.941,101.53 301.405,102.133 L297.372,106.116 C297.204,106.267 297.204,106.301 297.204,106.769 L304.1,106.769 z" fill="#4E4E4E"/>
    </g>
    <g id="Layer_1">
      <path d="M297.141,116.112 C298.313,114.247 299.317,114.175 300.202,114.127 C300.489,114.103 300.513,113.697 300.513,113.673 C300.513,113.482 300.393,113.386 300.202,113.386 C299.58,113.386 298.887,113.458 298.241,113.458 C297.452,113.458 296.639,113.386 295.874,113.386 C295.731,113.386 295.42,113.386 295.42,113.84 C295.42,114.103 295.635,114.127 295.802,114.127 C296.448,114.175 296.902,114.414 296.902,114.916 C296.902,115.275 296.543,115.801 296.543,115.825 L289.203,127.493 L287.577,114.844 C287.577,114.438 288.127,114.127 289.227,114.127 C289.562,114.127 289.825,114.127 289.825,113.649 C289.825,113.434 289.633,113.386 289.49,113.386 C288.534,113.386 287.505,113.458 286.525,113.458 C286.095,113.458 285.64,113.434 285.21,113.434 C284.78,113.434 284.325,113.386 283.919,113.386 C283.752,113.386 283.465,113.386 283.465,113.84 C283.465,114.127 283.68,114.127 284.062,114.127 C285.401,114.127 285.425,114.342 285.497,114.94 L287.386,129.693 C287.458,130.171 287.553,130.243 287.864,130.243 C288.247,130.243 288.342,130.123 288.534,129.812 z" fill="#4E4E4E"/>
      <path d="M300.644,127.714 C301.949,127.714 302.886,128.618 302.886,130.409 C302.886,132.484 301.681,133.104 300.711,133.104 C300.041,133.104 298.568,132.92 297.865,131.932 C298.652,131.899 298.836,131.346 298.836,130.995 C298.836,130.459 298.434,130.074 297.915,130.074 C297.447,130.074 296.978,130.359 296.978,131.045 C296.978,132.618 298.719,133.639 300.744,133.639 C303.071,133.639 304.677,132.083 304.677,130.409 C304.677,129.104 303.606,127.798 301.765,127.413 C303.522,126.777 304.158,125.522 304.158,124.501 C304.158,123.179 302.635,122.191 300.778,122.191 C298.92,122.191 297.497,123.095 297.497,124.434 C297.497,125.003 297.865,125.321 298.367,125.321 C298.886,125.321 299.221,124.936 299.221,124.467 C299.221,123.982 298.886,123.631 298.367,123.597 C298.953,122.861 300.108,122.676 300.727,122.676 C301.481,122.676 302.535,123.045 302.535,124.501 C302.535,125.204 302.301,125.974 301.865,126.493 C301.313,127.129 300.845,127.162 300.008,127.212 C299.589,127.246 299.556,127.246 299.472,127.262 C299.439,127.262 299.305,127.296 299.305,127.48 C299.305,127.714 299.455,127.714 299.74,127.714 z" fill="#4E4E4E"/>
    </g>
    <path d="M397.693,87.35 L425.697,87.35" fill-opacity="0" stroke="#000000" stroke-width="1"/>
    <path d="M397.694,113.886 L425.697,113.886" fill-opacity="0" stroke="#000000" stroke-width="1"/>
    <g id="Layer_1">
      <path d="M459.981,79.385 C460.578,78.333 461.152,77.472 462.659,77.353 C462.874,77.329 463.113,77.329 463.113,76.875 C463.113,76.779 463.017,76.612 462.826,76.612 C462.252,76.612 461.583,76.683 460.985,76.683 C460.172,76.683 459.287,76.612 458.498,76.612 C458.355,76.612 458.044,76.612 458.044,77.066 C458.044,77.329 458.259,77.353 458.403,77.353 C458.977,77.377 459.813,77.568 459.813,78.285 C459.813,78.548 459.694,78.74 459.503,79.074 L453.047,90.336 L452.162,78.477 C452.138,77.998 452.09,77.377 453.836,77.353 C454.242,77.353 454.481,77.353 454.481,76.875 C454.481,76.636 454.218,76.612 454.123,76.612 C453.166,76.612 452.162,76.683 451.206,76.683 C450.656,76.683 449.245,76.612 448.695,76.612 C448.552,76.612 448.241,76.612 448.241,77.09 C448.241,77.353 448.48,77.353 448.815,77.353 C449.867,77.353 450.034,77.496 450.082,77.951 L450.225,79.792 L444.176,90.336 L443.267,78.214 C443.267,77.927 443.267,77.377 445.085,77.353 C445.324,77.353 445.587,77.353 445.587,76.875 C445.587,76.612 445.3,76.612 445.252,76.612 C444.296,76.612 443.291,76.683 442.311,76.683 C441.474,76.683 440.613,76.612 439.8,76.612 C439.681,76.612 439.37,76.612 439.37,77.066 C439.37,77.353 439.585,77.353 439.968,77.353 C441.163,77.353 441.187,77.568 441.235,78.238 L442.311,92.847 C442.335,93.277 442.359,93.468 442.694,93.468 C442.981,93.468 443.052,93.325 443.267,92.966 L450.297,80.772 L451.182,92.847 C451.23,93.349 451.277,93.468 451.564,93.468 C451.875,93.468 452.019,93.229 452.138,93.014 z" fill="#4E4E4E"/>
      <path d="M466.244,85.886 C466.244,85.434 466.21,85.417 465.741,85.417 C464.67,86.471 463.147,86.488 462.461,86.488 L462.461,87.091 C462.863,87.091 463.967,87.091 464.888,86.622 L464.888,95.158 C464.888,95.71 464.888,95.928 463.214,95.928 L462.578,95.928 L462.578,96.53 C462.879,96.514 464.938,96.463 465.557,96.463 C466.076,96.463 468.185,96.514 468.553,96.53 L468.553,95.928 L467.917,95.928 C466.244,95.928 466.244,95.71 466.244,95.158 z" fill="#4E4E4E"/>
    </g>
    <g id="Layer_1">
      <path d="M459.981,101.986 C460.579,100.934 461.152,100.073 462.659,99.954 C462.874,99.93 463.113,99.93 463.113,99.476 C463.113,99.38 463.017,99.213 462.826,99.213 C462.252,99.213 461.583,99.284 460.985,99.284 C460.172,99.284 459.287,99.213 458.498,99.213 C458.355,99.213 458.044,99.213 458.044,99.667 C458.044,99.93 458.259,99.954 458.403,99.954 C458.977,99.978 459.813,100.169 459.813,100.886 C459.813,101.149 459.694,101.341 459.503,101.675 L453.047,112.937 L452.162,101.078 C452.138,100.599 452.09,99.978 453.836,99.954 C454.242,99.954 454.481,99.954 454.481,99.476 C454.481,99.237 454.218,99.213 454.123,99.213 C453.166,99.213 452.162,99.284 451.206,99.284 C450.656,99.284 449.245,99.213 448.695,99.213 C448.552,99.213 448.241,99.213 448.241,99.691 C448.241,99.954 448.48,99.954 448.815,99.954 C449.867,99.954 450.034,100.097 450.082,100.552 L450.225,102.393 L444.176,112.937 L443.267,100.815 C443.267,100.528 443.267,99.978 445.085,99.954 C445.324,99.954 445.587,99.954 445.587,99.476 C445.587,99.213 445.3,99.213 445.252,99.213 C444.296,99.213 443.291,99.284 442.311,99.284 C441.474,99.284 440.613,99.213 439.801,99.213 C439.681,99.213 439.37,99.213 439.37,99.667 C439.37,99.954 439.585,99.954 439.968,99.954 C441.163,99.954 441.187,100.169 441.235,100.839 L442.311,115.448 C442.335,115.878 442.359,116.069 442.694,116.069 C442.981,116.069 443.052,115.926 443.267,115.567 L450.297,103.373 L451.182,115.448 C451.23,115.95 451.277,116.069 451.564,116.069 C451.875,116.069 452.019,115.83 452.138,115.615 z" fill="#4E4E4E"/>
      <path d="M469.089,116.085 L468.52,116.085 C468.47,116.453 468.302,117.441 468.085,117.608 C467.951,117.709 466.662,117.709 466.428,117.709 L463.348,117.709 C465.105,116.152 465.691,115.683 466.695,114.897 C467.934,113.909 469.089,112.872 469.089,111.282 C469.089,109.256 467.315,108.018 465.172,108.018 C463.097,108.018 461.691,109.474 461.691,111.014 C461.691,111.867 462.411,111.951 462.578,111.951 C462.98,111.951 463.465,111.667 463.465,111.064 C463.465,110.763 463.348,110.177 462.478,110.177 C462.997,108.989 464.135,108.62 464.921,108.62 C466.595,108.62 467.465,109.926 467.465,111.282 C467.465,112.738 466.428,113.893 465.892,114.495 L461.858,118.479 C461.691,118.629 461.691,118.663 461.691,119.131 L468.587,119.131 z" fill="#4E4E4E"/>
    </g>
  </g>
</svg>
