<?xml version="1.0" encoding="UTF-8"?>
<!DOCTYPE svg PUBLIC "-//W3C//DTD SVG 1.1//EN" "http://www.w3.org/Graphics/SVG/1.1/DTD/svg11.dtd">
<svg version="1.1" xmlns="http://www.w3.org/2000/svg" xmlns:xlink="http://www.w3.org/1999/xlink" x="0" y="0" width="541.201" height="164.431" viewBox="0, 0, 541.201, 164.431">
  <g id="Layer_1" transform="translate(-42.051, -750.181)">
    <g>
      <path d="M128.059,751.681 L128.059,808.374 L156.502,794.201 L156.502,765.854 L128.059,751.681 z" fill="#FFFFFF"/>
      <path d="M128.059,751.681 L128.059,808.374 L156.502,794.201 L156.502,765.854 L128.059,751.681 z" fill-opacity="0" stroke="#000000" stroke-width="1"/>
    </g>
    <g>
      <path d="M80.366,765.838 L128.059,765.838" fill-opacity="0" stroke="#000000" stroke-width="1"/>
      <path d="M80.366,762.838 L72.366,765.838 L80.366,768.838 z" fill="#000000" fill-opacity="1" stroke="#000000" stroke-width="1" stroke-opacity="1"/>
    </g>
    <g>
      <path d="M80.366,794.201 L128.059,794.201" fill-opacity="0" stroke="#000000" stroke-width="1"/>
      <path d="M80.366,791.201 L72.366,794.201 L80.366,797.201 z" fill="#000000" fill-opacity="1" stroke="#000000" stroke-width="1" stroke-opacity="1"/>
    </g>
    <g>
      <path d="M198.925,780.028 L198.925,836.721 L227.368,822.547 L227.368,794.201 L198.925,780.028 z" fill="#FFFFFF"/>
      <path d="M198.925,780.028 L198.925,836.721 L227.368,822.547 L227.368,794.201 L198.925,780.028 z" fill-opacity="0" stroke="#000000" stroke-width="1"/>
    </g>
    <g>
      <path d="M165.406,780.028 L170.579,780.028" fill-opacity="0" stroke="#000000" stroke-width="1"/>
      <path d="M165.406,777.028 L157.406,780.028 L165.406,783.028 z" fill="#000000" fill-opacity="1" stroke="#000000" stroke-width="1" stroke-opacity="1"/>
    </g>
    <g>
      <path d="M122.886,822.547 L198.925,822.547" fill-opacity="0" stroke="#000000" stroke-width="1"/>
      <path d="M122.886,819.547 L114.886,822.547 L122.886,825.547 z" fill="#000000" fill-opacity="1" stroke="#000000" stroke-width="1" stroke-opacity="1"/>
    </g>
    <path d="M170.579,780.028 C198.925,780.028 170.482,794.201 198.925,794.201" fill-opacity="0" stroke="#000000" stroke-width="1"/>
    <g>
      <path d="M236.272,808.374 L241.445,808.374" fill-opacity="0" stroke="#000000" stroke-width="1"/>
      <path d="M236.272,805.374 L228.272,808.374 L236.272,811.374 z" fill="#000000" fill-opacity="1" stroke="#000000" stroke-width="1" stroke-opacity="1"/>
    </g>
    <g>
      <path d="M269.791,808.374 L269.791,865.067 L298.234,850.894 L298.234,822.547 L269.791,808.374 z" fill="#FFFFFF"/>
      <path d="M269.791,808.374 L269.791,865.067 L298.234,850.894 L298.234,822.547 L269.791,808.374 z" fill-opacity="0" stroke="#000000" stroke-width="1"/>
    </g>
    <g>
      <path d="M122.886,850.894 L269.791,850.894" fill-opacity="0" stroke="#000000" stroke-width="1"/>
      <path d="M122.886,847.894 L114.886,850.894 L122.886,853.894 z" fill="#000000" fill-opacity="1" stroke="#000000" stroke-width="1" stroke-opacity="1"/>
    </g>
    <path d="M241.445,808.374 C269.791,808.374 241.349,822.547 269.791,822.547" fill-opacity="0" stroke="#000000" stroke-width="1"/>
    <g>
      <path d="M321.311,836.721 L326.484,836.721" fill-opacity="0" stroke="#000000" stroke-width="1"/>
      <path d="M321.311,833.721 L313.311,836.721 L321.311,839.721 z" fill="#000000" fill-opacity="1" stroke="#000000" stroke-width="1" stroke-opacity="1"/>
    </g>
    <path d="M298.234,836.72 L340.658,836.72" fill-opacity="0" stroke="#000000" stroke-width="1"/>
    <g>
      <path d="M439.966,780.028 L439.966,836.721 L411.524,822.547 L411.524,794.201 L439.966,780.028 z" fill="#FFFFFF"/>
      <path d="M439.966,780.028 L439.966,836.721 L411.524,822.547 L411.524,794.201 L439.966,780.028 z" fill-opacity="0" stroke="#000000" stroke-width="1"/>
    </g>
    <g>
      <path d="M496.563,794.201 L491.39,794.201" fill-opacity="0" stroke="#000000" stroke-width="1"/>
      <path d="M491.39,791.201 L483.39,794.201 L491.39,797.201 z" fill="#000000" fill-opacity="1" stroke="#000000" stroke-width="1" stroke-opacity="1"/>
    </g>
    <g>
      <path d="M454.14,822.547 L448.966,822.547" fill-opacity="0" stroke="#000000" stroke-width="1"/>
      <path d="M448.966,819.547 L440.966,822.547 L448.966,825.547 z" fill="#000000" fill-opacity="1" stroke="#000000" stroke-width="1" stroke-opacity="1"/>
    </g>
    <g>
      <path d="M369.1,808.374 L369.1,865.067 L340.658,850.894 L340.658,822.547 L369.1,808.374 z" fill="#FFFFFF"/>
      <path d="M369.1,808.374 L369.1,865.067 L340.658,850.894 L340.658,822.547 L369.1,808.374 z" fill-opacity="0" stroke="#000000" stroke-width="1"/>
    </g>
    <g>
      <path d="M411.62,808.374 L406.447,808.374" fill-opacity="0" stroke="#000000" stroke-width="1"/>
      <path d="M406.447,805.374 L398.447,808.374 L406.447,811.374 z" fill="#000000" fill-opacity="1" stroke="#000000" stroke-width="1" stroke-opacity="1"/>
    </g>
    <path d="M482.39,850.894 L369.1,850.894" fill-opacity="0" stroke="#000000" stroke-width="1"/>
    <path d="M397.447,808.374 C369.1,808.374 397.543,822.547 369.1,822.547" fill-opacity="0" stroke="#000000" stroke-width="1"/>
    <g id="Layer_1">
      <path d="M50.482,752.711 C50.051,751.827 49.358,751.181 48.282,751.181 C45.485,751.181 42.52,754.696 42.52,758.187 C42.52,760.434 43.835,762.013 45.7,762.013 C46.178,762.013 47.373,761.917 48.808,760.219 C48.999,761.223 49.836,762.013 50.984,762.013 C51.821,762.013 52.371,761.463 52.753,760.697 C53.16,759.837 53.471,758.378 53.471,758.33 C53.471,758.091 53.255,758.091 53.184,758.091 C52.945,758.091 52.921,758.187 52.849,758.522 C52.442,760.076 52.012,761.487 51.032,761.487 C50.386,761.487 50.314,760.865 50.314,760.387 C50.314,759.861 50.362,759.669 50.625,758.617 C50.888,757.613 50.936,757.374 51.151,756.465 L52.012,753.118 C52.179,752.448 52.179,752.401 52.179,752.305 C52.179,751.898 51.893,751.659 51.486,751.659 C50.912,751.659 50.554,752.185 50.482,752.711 z M48.928,758.904 C48.808,759.335 48.808,759.382 48.449,759.789 C47.397,761.104 46.417,761.487 45.748,761.487 C44.552,761.487 44.217,760.171 44.217,759.239 C44.217,758.043 44.982,755.102 45.532,754.003 C46.274,752.592 47.35,751.707 48.306,751.707 C49.86,751.707 50.195,753.668 50.195,753.811 C50.195,753.955 50.147,754.098 50.123,754.218 z" fill="#4E4E4E"/>
      <path d="M59.809,754.693 C59.809,754.241 59.775,754.224 59.306,754.224 C58.235,755.279 56.712,755.295 56.026,755.295 L56.026,755.898 C56.428,755.898 57.532,755.898 58.453,755.429 L58.453,763.965 C58.453,764.517 58.453,764.735 56.779,764.735 L56.143,764.735 L56.143,765.338 C56.444,765.321 58.503,765.271 59.122,765.271 C59.641,765.271 61.75,765.321 62.118,765.338 L62.118,764.735 L61.482,764.735 C59.809,764.735 59.809,764.517 59.809,763.965 z" fill="#4E4E4E"/>
    </g>
    <g id="Layer_1">
      <path d="M50.214,781.058 C49.784,780.173 49.09,779.528 48.014,779.528 C45.217,779.528 42.252,783.042 42.252,786.533 C42.252,788.781 43.567,790.359 45.432,790.359 C45.91,790.359 47.106,790.263 48.54,788.566 C48.732,789.57 49.568,790.359 50.716,790.359 C51.553,790.359 52.103,789.809 52.485,789.044 C52.892,788.183 53.203,786.725 53.203,786.677 C53.203,786.438 52.988,786.438 52.916,786.438 C52.677,786.438 52.653,786.533 52.581,786.868 C52.175,788.422 51.744,789.833 50.764,789.833 C50.118,789.833 50.047,789.211 50.047,788.733 C50.047,788.207 50.094,788.016 50.357,786.964 C50.62,785.959 50.668,785.72 50.883,784.812 L51.744,781.464 C51.912,780.795 51.912,780.747 51.912,780.651 C51.912,780.245 51.625,780.006 51.218,780.006 C50.644,780.006 50.286,780.532 50.214,781.058 z M48.66,787.251 C48.54,787.681 48.54,787.729 48.182,788.135 C47.13,789.45 46.149,789.833 45.48,789.833 C44.284,789.833 43.95,788.518 43.95,787.585 C43.95,786.39 44.715,783.449 45.265,782.349 C46.006,780.938 47.082,780.054 48.038,780.054 C49.592,780.054 49.927,782.014 49.927,782.158 C49.927,782.301 49.879,782.445 49.855,782.564 z" fill="#4E4E4E"/>
      <path d="M62.386,790.638 L61.817,790.638 C61.767,791.006 61.599,791.993 61.382,792.161 C61.248,792.261 59.959,792.261 59.725,792.261 L56.645,792.261 C58.403,790.705 58.988,790.236 59.993,789.449 C61.231,788.462 62.386,787.424 62.386,785.834 C62.386,783.809 60.612,782.57 58.47,782.57 C56.394,782.57 54.988,784.027 54.988,785.566 C54.988,786.42 55.708,786.504 55.875,786.504 C56.277,786.504 56.762,786.219 56.762,785.617 C56.762,785.315 56.645,784.73 55.775,784.73 C56.294,783.541 57.432,783.173 58.219,783.173 C59.892,783.173 60.763,784.479 60.763,785.834 C60.763,787.29 59.725,788.445 59.189,789.048 L55.156,793.031 C54.988,793.182 54.988,793.215 54.988,793.684 L61.884,793.684 z" fill="#4E4E4E"/>
    </g>
    <g id="Layer_1">
      <path d="M515.17,779.791 C515.17,779.767 515.17,779.528 514.859,779.528 C514.309,779.528 512.564,779.719 511.942,779.767 C511.751,779.791 511.488,779.815 511.488,780.245 C511.488,780.532 511.703,780.532 512.062,780.532 C513.209,780.532 513.257,780.699 513.257,780.938 C513.257,781.106 513.042,781.919 512.923,782.421 L510.962,790.216 C510.675,791.411 510.579,791.794 510.579,792.63 C510.579,794.902 511.847,796.384 513.616,796.384 C516.437,796.384 519.378,792.822 519.378,789.379 C519.378,787.203 518.111,785.553 516.198,785.553 C515.098,785.553 514.118,786.246 513.401,786.988 z M512.923,788.829 C513.066,788.303 513.066,788.255 513.281,787.992 C514.453,786.438 515.529,786.079 516.15,786.079 C517.011,786.079 517.657,786.796 517.657,788.327 C517.657,789.737 516.868,792.487 516.437,793.396 C515.648,794.998 514.548,795.858 513.616,795.858 C512.803,795.858 512.014,795.213 512.014,793.443 C512.014,792.989 512.014,792.535 512.397,791.028 z" fill="#4E4E4E"/>
      <path d="M525.325,789.065 C525.325,788.613 525.291,788.596 524.823,788.596 C523.752,789.65 522.229,789.667 521.542,789.667 L521.542,790.27 C521.944,790.27 523.049,790.27 523.969,789.801 L523.969,798.337 C523.969,798.889 523.969,799.107 522.295,799.107 L521.659,799.107 L521.659,799.709 C521.961,799.693 524.019,799.642 524.639,799.642 C525.158,799.642 527.266,799.693 527.635,799.709 L527.635,799.107 L526.999,799.107 C525.325,799.107 525.325,798.889 525.325,798.337 z" fill="#4E4E4E"/>
    </g>
    <g id="Layer_1">
      <path d="M514.827,836.484 C514.827,836.46 514.827,836.221 514.516,836.221 C513.966,836.221 512.221,836.412 511.599,836.46 C511.408,836.484 511.145,836.507 511.145,836.938 C511.145,837.225 511.36,837.225 511.719,837.225 C512.866,837.225 512.914,837.392 512.914,837.631 C512.914,837.799 512.699,838.612 512.579,839.114 L510.619,846.908 C510.332,848.104 510.236,848.487 510.236,849.323 C510.236,851.595 511.503,853.077 513.273,853.077 C516.094,853.077 519.035,849.515 519.035,846.072 C519.035,843.896 517.768,842.246 515.855,842.246 C514.755,842.246 513.775,842.939 513.058,843.681 z M512.579,845.522 C512.723,844.996 512.723,844.948 512.938,844.685 C514.11,843.131 515.186,842.772 515.807,842.772 C516.668,842.772 517.314,843.489 517.314,845.02 C517.314,846.43 516.525,849.18 516.094,850.089 C515.305,851.69 514.205,852.551 513.273,852.551 C512.46,852.551 511.671,851.906 511.671,850.136 C511.671,849.682 511.671,849.228 512.053,847.721 z" fill="#4E4E4E"/>
      <path d="M523.944,850.812 C525.25,850.812 526.187,851.716 526.187,853.507 C526.187,855.582 524.982,856.201 524.011,856.201 C523.342,856.201 521.869,856.017 521.166,855.03 C521.952,854.996 522.136,854.444 522.136,854.093 C522.136,853.557 521.735,853.172 521.216,853.172 C520.747,853.172 520.279,853.456 520.279,854.143 C520.279,855.716 522.019,856.737 524.044,856.737 C526.371,856.737 527.978,855.18 527.978,853.507 C527.978,852.201 526.907,850.896 525.065,850.511 C526.823,849.875 527.459,848.62 527.459,847.599 C527.459,846.276 525.936,845.289 524.078,845.289 C522.22,845.289 520.798,846.193 520.798,847.532 C520.798,848.101 521.166,848.419 521.668,848.419 C522.187,848.419 522.521,848.034 522.521,847.565 C522.521,847.08 522.187,846.728 521.668,846.695 C522.254,845.958 523.409,845.774 524.028,845.774 C524.781,845.774 525.835,846.142 525.835,847.599 C525.835,848.301 525.601,849.071 525.166,849.59 C524.614,850.226 524.145,850.26 523.308,850.31 C522.89,850.343 522.856,850.343 522.773,850.36 C522.739,850.36 522.605,850.394 522.605,850.578 C522.605,850.812 522.756,850.812 523.04,850.812 z" fill="#4E4E4E"/>
    </g>
    <path d="M320.299,809.357 C319.917,809.357 319.582,809.357 319.247,809.691 C318.865,810.05 318.817,810.456 318.817,810.624 C318.817,811.198 319.247,811.461 319.701,811.461 C320.395,811.461 321.04,810.887 321.04,809.93 C321.04,808.759 319.917,807.874 318.219,807.874 C314.991,807.874 311.811,811.293 311.811,814.665 C311.811,816.817 313.198,818.705 315.685,818.705 C319.104,818.705 321.112,816.171 321.112,815.884 C321.112,815.741 320.969,815.573 320.825,815.573 C320.706,815.573 320.658,815.621 320.514,815.812 C318.625,818.179 316.019,818.179 315.732,818.179 C314.226,818.179 313.58,817.008 313.58,815.573 C313.58,814.593 314.059,812.274 314.872,810.791 C315.613,809.428 316.928,808.4 318.243,808.4 C319.056,808.4 319.964,808.711 320.299,809.357 z" fill="#4E4E4E" id="Layer_1"/>
    <g id="Layer_1">
      <path d="M172.579,757.674 C173.273,757.674 175.042,757.626 176.238,757.124 C177.911,756.407 178.031,754.996 178.031,754.661 C178.031,753.609 177.122,752.629 175.473,752.629 C172.819,752.629 169.208,754.948 169.208,759.132 C169.208,761.571 170.619,763.46 172.962,763.46 C176.381,763.46 178.39,760.926 178.39,760.639 C178.39,760.495 178.246,760.328 178.103,760.328 C177.983,760.328 177.935,760.376 177.792,760.567 C175.903,762.934 173.297,762.934 173.01,762.934 C171.145,762.934 170.93,760.926 170.93,760.161 C170.93,759.874 170.954,759.132 171.312,757.674 z M171.456,757.148 C172.388,753.513 174.851,753.155 175.473,753.155 C176.596,753.155 177.242,753.848 177.242,754.661 C177.242,757.148 173.416,757.148 172.436,757.148 z" fill="#4E4E4E"/>
      <path d="M184.849,756.14 C184.849,755.688 184.815,755.672 184.347,755.672 C183.276,756.726 181.752,756.743 181.066,756.743 L181.066,757.345 C181.468,757.345 182.573,757.345 183.493,756.877 L183.493,765.413 C183.493,765.965 183.493,766.183 181.819,766.183 L181.183,766.183 L181.183,766.785 C181.485,766.768 183.543,766.718 184.163,766.718 C184.681,766.718 186.79,766.768 187.159,766.785 L187.159,766.183 L186.523,766.183 C184.849,766.183 184.849,765.965 184.849,765.413 z" fill="#4E4E4E"/>
    </g>
    <g id="Layer_1">
      <path d="M244.052,786.077 C244.745,786.077 246.515,786.029 247.71,785.527 C249.384,784.81 249.503,783.399 249.503,783.064 C249.503,782.012 248.595,781.032 246.945,781.032 C244.291,781.032 240.681,783.351 240.681,787.536 C240.681,789.974 242.091,791.863 244.434,791.863 C247.854,791.863 249.862,789.329 249.862,789.042 C249.862,788.898 249.719,788.731 249.575,788.731 C249.456,788.731 249.408,788.779 249.264,788.97 C247.375,791.337 244.769,791.337 244.482,791.337 C242.617,791.337 242.402,789.329 242.402,788.564 C242.402,788.277 242.426,787.536 242.785,786.077 z M242.928,785.551 C243.861,781.917 246.323,781.558 246.945,781.558 C248.069,781.558 248.714,782.251 248.714,783.064 C248.714,785.551 244.889,785.551 243.908,785.551 z" fill="#4E4E4E"/>
      <path d="M259.167,792.142 L258.597,792.142 C258.547,792.51 258.38,793.498 258.162,793.665 C258.028,793.766 256.74,793.766 256.505,793.766 L253.426,793.766 C255.183,792.209 255.769,791.74 256.773,790.954 C258.012,789.966 259.167,788.929 259.167,787.339 C259.167,785.313 257.392,784.075 255.25,784.075 C253.175,784.075 251.769,785.531 251.769,787.071 C251.769,787.924 252.488,788.008 252.656,788.008 C253.057,788.008 253.543,787.724 253.543,787.121 C253.543,786.82 253.426,786.234 252.555,786.234 C253.074,785.046 254.212,784.677 254.999,784.677 C256.673,784.677 257.543,785.983 257.543,787.339 C257.543,788.795 256.505,789.95 255.97,790.552 L251.936,794.536 C251.769,794.686 251.769,794.72 251.769,795.188 L258.664,795.188 z" fill="#4E4E4E"/>
    </g>
    <g id="Layer_1">
      <path d="M389.241,782.63 L391.297,782.63 C391.776,782.63 392.015,782.63 392.015,782.152 C392.015,781.889 391.776,781.889 391.369,781.889 L389.385,781.889 L389.887,779.163 C389.982,778.661 390.317,776.964 390.461,776.677 C390.676,776.222 391.082,775.864 391.584,775.864 C391.68,775.864 392.302,775.864 392.756,776.294 C391.704,776.39 391.465,777.227 391.465,777.585 C391.465,778.135 391.895,778.422 392.349,778.422 C392.971,778.422 393.665,777.896 393.665,776.987 C393.665,775.888 392.565,775.338 391.584,775.338 C390.771,775.338 389.265,775.768 388.548,778.135 C388.404,778.637 388.333,778.876 387.759,781.889 L386.109,781.889 C385.655,781.889 385.392,781.889 385.392,782.343 C385.392,782.63 385.607,782.63 386.061,782.63 L387.639,782.63 L385.846,792.075 C385.416,794.394 385.009,796.57 383.766,796.57 C383.67,796.57 383.072,796.57 382.618,796.139 C383.718,796.068 383.933,795.207 383.933,794.848 C383.933,794.298 383.503,794.011 383.048,794.011 C382.427,794.011 381.733,794.537 381.733,795.446 C381.733,796.522 382.785,797.096 383.766,797.096 C385.081,797.096 386.037,795.685 386.468,794.777 C387.233,793.27 387.783,790.377 387.807,790.21 z" fill="#4E4E4E"/>
      <path d="M397.78,785.138 C397.78,784.686 397.747,784.669 397.278,784.669 C396.207,785.723 394.684,785.74 393.998,785.74 L393.998,786.343 C394.399,786.343 395.504,786.343 396.425,785.874 L396.425,794.41 C396.425,794.962 396.425,795.18 394.751,795.18 L394.115,795.18 L394.115,795.782 C394.416,795.766 396.475,795.715 397.094,795.715 C397.613,795.715 399.722,795.766 400.09,795.782 L400.09,795.18 L399.454,795.18 C397.78,795.18 397.78,794.962 397.78,794.41 z" fill="#4E4E4E"/>
    </g>
    <g id="Layer_1">
      <path d="M135.783,773.837 C135.903,773.335 136.142,772.426 136.142,772.307 C136.142,771.9 135.855,771.661 135.448,771.661 C135.377,771.661 134.707,771.685 134.492,772.522 L131.049,786.366 C130.977,786.653 130.977,786.701 130.977,786.748 C130.977,787.107 131.24,787.394 131.647,787.394 C132.149,787.394 132.436,786.964 132.484,786.892 C132.579,786.677 132.89,785.433 133.799,781.751 C134.564,782.397 135.64,782.492 136.118,782.492 C137.792,782.492 138.724,781.417 139.298,780.747 C139.513,781.823 140.398,782.492 141.45,782.492 C142.287,782.492 142.837,781.943 143.219,781.177 C143.626,780.317 143.937,778.858 143.937,778.81 C143.937,778.571 143.721,778.571 143.65,778.571 C143.411,778.571 143.387,778.667 143.315,779.002 C142.908,780.556 142.478,781.966 141.498,781.966 C140.852,781.966 140.78,781.345 140.78,780.867 C140.78,780.341 141.067,779.217 141.259,778.38 L141.928,775.798 C142,775.439 142.239,774.53 142.335,774.172 C142.454,773.622 142.693,772.713 142.693,772.57 C142.693,772.139 142.358,771.924 142,771.924 C141.88,771.924 141.259,771.948 141.067,772.761 L139.944,777.232 C139.657,778.428 139.394,779.432 139.322,779.671 C139.298,779.791 138.15,781.966 136.214,781.966 C135.018,781.966 134.444,781.177 134.444,779.886 C134.444,779.193 134.612,778.523 134.779,777.854 z" fill="#4E4E4E"/>
      <path d="M150.274,775.173 C150.274,774.721 150.241,774.704 149.772,774.704 C148.701,775.758 147.178,775.775 146.491,775.775 L146.491,776.378 C146.893,776.378 147.998,776.378 148.918,775.909 L148.918,784.445 C148.918,784.997 148.918,785.215 147.245,785.215 L146.609,785.215 L146.609,785.817 C146.91,785.801 148.969,785.75 149.588,785.75 C150.107,785.75 152.216,785.801 152.584,785.817 L152.584,785.215 L151.948,785.215 C150.274,785.215 150.274,784.997 150.274,784.445 z" fill="#4E4E4E"/>
    </g>
    <g id="Layer_1">
      <path d="M205.84,802.183 C205.96,801.681 206.199,800.773 206.199,800.653 C206.199,800.247 205.912,800.008 205.506,800.008 C205.434,800.008 204.764,800.032 204.549,800.868 L201.106,814.712 C201.034,814.999 201.034,815.047 201.034,815.095 C201.034,815.454 201.298,815.741 201.704,815.741 C202.206,815.741 202.493,815.31 202.541,815.238 C202.636,815.023 202.947,813.78 203.856,810.098 C204.621,810.743 205.697,810.839 206.175,810.839 C207.849,810.839 208.781,809.763 209.355,809.094 C209.57,810.169 210.455,810.839 211.507,810.839 C212.344,810.839 212.894,810.289 213.277,809.524 C213.683,808.663 213.994,807.205 213.994,807.157 C213.994,806.918 213.779,806.918 213.707,806.918 C213.468,806.918 213.444,807.013 213.372,807.348 C212.966,808.902 212.535,810.313 211.555,810.313 C210.909,810.313 210.838,809.691 210.838,809.213 C210.838,808.687 211.125,807.563 211.316,806.726 L211.985,804.144 C212.057,803.785 212.296,802.877 212.392,802.518 C212.511,801.968 212.751,801.06 212.751,800.916 C212.751,800.486 212.416,800.271 212.057,800.271 C211.938,800.271 211.316,800.295 211.125,801.107 L210.001,805.579 C209.714,806.774 209.451,807.778 209.379,808.018 C209.355,808.137 208.208,810.313 206.271,810.313 C205.075,810.313 204.501,809.524 204.501,808.233 C204.501,807.539 204.669,806.87 204.836,806.2 z" fill="#4E4E4E"/>
      <path d="M223.177,811.118 L222.608,811.118 C222.557,811.486 222.39,812.474 222.172,812.641 C222.038,812.741 220.75,812.741 220.515,812.741 L217.436,812.741 C219.193,811.185 219.779,810.716 220.783,809.929 C222.022,808.942 223.177,807.904 223.177,806.314 C223.177,804.289 221.402,803.05 219.26,803.05 C217.185,803.05 215.779,804.507 215.779,806.046 C215.779,806.9 216.499,806.984 216.666,806.984 C217.068,806.984 217.553,806.699 217.553,806.097 C217.553,805.795 217.436,805.21 216.565,805.21 C217.084,804.021 218.222,803.653 219.009,803.653 C220.683,803.653 221.553,804.958 221.553,806.314 C221.553,807.77 220.515,808.925 219.98,809.528 L215.946,813.511 C215.779,813.662 215.779,813.695 215.779,814.164 L222.675,814.164 z" fill="#4E4E4E"/>
    </g>
    <g id="Layer_1">
      <path d="M277.172,830.53 C277.292,830.028 277.531,829.119 277.531,829 C277.531,828.593 277.244,828.354 276.838,828.354 C276.766,828.354 276.096,828.378 275.881,829.215 L272.438,843.059 C272.366,843.346 272.366,843.394 272.366,843.441 C272.366,843.8 272.629,844.087 273.036,844.087 C273.538,844.087 273.825,843.657 273.873,843.585 C273.968,843.37 274.279,842.126 275.188,838.444 C275.953,839.09 277.029,839.185 277.507,839.185 C279.181,839.185 280.113,838.109 280.687,837.44 C280.902,838.516 281.787,839.185 282.839,839.185 C283.676,839.185 284.226,838.635 284.608,837.87 C285.015,837.01 285.326,835.551 285.326,835.503 C285.326,835.264 285.111,835.264 285.039,835.264 C284.8,835.264 284.776,835.36 284.704,835.695 C284.298,837.249 283.867,838.659 282.887,838.659 C282.241,838.659 282.17,838.038 282.17,837.56 C282.17,837.034 282.457,835.91 282.648,835.073 L283.317,832.491 C283.389,832.132 283.628,831.223 283.724,830.865 C283.843,830.315 284.082,829.406 284.082,829.263 C284.082,828.832 283.748,828.617 283.389,828.617 C283.269,828.617 282.648,828.641 282.457,829.454 L281.333,833.925 C281.046,835.121 280.783,836.125 280.711,836.364 C280.687,836.484 279.539,838.659 277.603,838.659 C276.407,838.659 275.833,837.87 275.833,836.579 C275.833,835.886 276.001,835.216 276.168,834.547 z" fill="#4E4E4E"/>
      <path d="M290.626,836.92 C291.931,836.92 292.868,837.824 292.868,839.615 C292.868,841.69 291.663,842.31 290.692,842.31 C290.023,842.31 288.55,842.125 287.847,841.138 C288.634,841.104 288.818,840.552 288.818,840.201 C288.818,839.665 288.416,839.28 287.897,839.28 C287.429,839.28 286.96,839.565 286.96,840.251 C286.96,841.824 288.701,842.845 290.726,842.845 C293.052,842.845 294.659,841.289 294.659,839.615 C294.659,838.309 293.588,837.004 291.747,836.619 C293.504,835.983 294.14,834.728 294.14,833.707 C294.14,832.384 292.617,831.397 290.759,831.397 C288.902,831.397 287.479,832.301 287.479,833.64 C287.479,834.209 287.847,834.527 288.349,834.527 C288.868,834.527 289.203,834.142 289.203,833.673 C289.203,833.188 288.868,832.836 288.349,832.803 C288.935,832.066 290.09,831.882 290.709,831.882 C291.462,831.882 292.517,832.251 292.517,833.707 C292.517,834.41 292.283,835.18 291.847,835.698 C291.295,836.334 290.826,836.368 289.99,836.418 C289.571,836.452 289.538,836.452 289.454,836.468 C289.42,836.468 289.287,836.502 289.287,836.686 C289.287,836.92 289.437,836.92 289.722,836.92 z" fill="#4E4E4E"/>
    </g>
    <g id="Layer_1">
      <path d="M348.97,829.405 C348.97,829.382 348.97,829.142 348.659,829.142 C348.109,829.142 346.364,829.334 345.742,829.382 C345.551,829.405 345.288,829.429 345.288,829.86 C345.288,830.147 345.503,830.147 345.862,830.147 C347.009,830.147 347.057,830.314 347.057,830.553 C347.057,830.721 346.77,831.844 346.603,832.49 L345.144,838.348 C345.049,838.707 344.881,839.376 344.881,839.424 C344.881,839.687 345.12,839.711 345.264,839.711 L345.599,839.711 C347.272,839.424 349.878,838.491 352.341,836.196 C355.497,833.255 356.143,830.003 356.143,829.788 C356.143,829.382 355.856,829.142 355.45,829.142 C355.258,829.142 354.708,829.238 354.517,829.931 C352.987,835.359 349.352,838.037 346.627,838.922 z" fill="#4E4E4E"/>
      <path d="M363.877,840.253 L363.308,840.253 C363.257,840.621 363.09,841.608 362.872,841.776 C362.739,841.876 361.45,841.876 361.215,841.876 L358.136,841.876 C359.893,840.32 360.479,839.851 361.483,839.064 C362.722,838.077 363.877,837.039 363.877,835.449 C363.877,833.424 362.103,832.185 359.96,832.185 C357.885,832.185 356.479,833.641 356.479,835.181 C356.479,836.035 357.199,836.119 357.366,836.119 C357.768,836.119 358.253,835.834 358.253,835.231 C358.253,834.93 358.136,834.344 357.265,834.344 C357.784,833.156 358.922,832.788 359.709,832.788 C361.383,832.788 362.253,834.093 362.253,835.449 C362.253,836.905 361.215,838.06 360.68,838.663 L356.646,842.646 C356.479,842.797 356.479,842.83 356.479,843.299 L363.375,843.299 z" fill="#4E4E4E"/>
    </g>
    <g id="Layer_1">
      <path d="M422.315,804.812 C422.315,804.788 422.315,804.549 422.004,804.549 C421.454,804.549 419.709,804.74 419.087,804.788 C418.896,804.812 418.633,804.836 418.633,805.266 C418.633,805.553 418.848,805.553 419.207,805.553 C420.355,805.553 420.402,805.721 420.402,805.96 C420.402,806.127 420.115,807.251 419.948,807.897 L418.49,813.755 C418.394,814.113 418.227,814.783 418.227,814.831 C418.227,815.094 418.466,815.117 418.609,815.117 L418.944,815.117 C420.618,814.831 423.224,813.898 425.687,811.603 C428.843,808.662 429.488,805.41 429.488,805.195 C429.488,804.788 429.201,804.549 428.795,804.549 C428.604,804.549 428.054,804.645 427.862,805.338 C426.332,810.766 422.698,813.444 419.972,814.328 z" fill="#4E4E4E"/>
      <path d="M434.377,808.061 C434.377,807.609 434.343,807.592 433.875,807.592 C432.803,808.646 431.28,808.663 430.594,808.663 L430.594,809.266 C430.996,809.266 432.1,809.266 433.021,808.797 L433.021,817.333 C433.021,817.885 433.021,818.103 431.347,818.103 L430.711,818.103 L430.711,818.705 C431.013,818.689 433.071,818.638 433.69,818.638 C434.209,818.638 436.318,818.689 436.686,818.705 L436.686,818.103 L436.05,818.103 C434.377,818.103 434.377,817.885 434.377,817.333 z" fill="#4E4E4E"/>
    </g>
    <g>
      <path d="M85.539,808.374 C99.713,808.374 113.886,808.374 113.886,822.547 C113.886,836.721 99.713,836.721 85.539,836.721" fill-opacity="0" stroke="#000000" stroke-width="1"/>
      <path d="M85.539,808.374 L85.539,836.721" fill-opacity="0" stroke="#000000" stroke-width="1"/>
    </g>
    <g>
      <path d="M85.539,836.721 C99.713,836.721 113.886,836.721 113.886,850.894 C113.886,865.067 99.713,865.067 85.539,865.067" fill-opacity="0" stroke="#000000" stroke-width="1"/>
      <path d="M85.539,836.721 L85.539,865.067" fill-opacity="0" stroke="#000000" stroke-width="1"/>
    </g>
    <g>
      <path d="M482.39,808.374 C468.217,808.374 454.043,808.374 454.043,822.547 C454.043,836.721 468.217,836.721 482.39,836.721" fill-opacity="0" stroke="#000000" stroke-width="1"/>
      <path d="M482.39,808.374 L482.39,836.721" fill-opacity="0" stroke="#000000" stroke-width="1"/>
    </g>
    <g>
      <path d="M76.539,822.547 L71.366,822.547" fill-opacity="0" stroke="#000000" stroke-width="1"/>
      <path d="M76.539,825.547 L84.539,822.547 L76.539,819.547 z" fill="#000000" fill-opacity="1" stroke="#000000" stroke-width="1" stroke-opacity="1"/>
    </g>
    <g>
      <path d="M76.539,850.894 L71.366,850.894" fill-opacity="0" stroke="#000000" stroke-width="1"/>
      <path d="M76.539,853.894 L84.539,850.894 L76.539,847.894 z" fill="#000000" fill-opacity="1" stroke="#000000" stroke-width="1" stroke-opacity="1"/>
    </g>
    <g>
      <path d="M482.39,822.547 L487.563,822.547" fill-opacity="0" stroke="#000000" stroke-width="1"/>
      <path d="M487.563,825.547 L495.563,822.547 L487.563,819.547 z" fill="#000000" fill-opacity="1" stroke="#000000" stroke-width="1" stroke-opacity="1"/>
    </g>
    <g>
      <path d="M496.563,850.894 L491.39,850.894" fill-opacity="0" stroke="#000000" stroke-width="1"/>
      <path d="M491.39,847.894 L483.39,850.894 L491.39,853.894 z" fill="#000000" fill-opacity="1" stroke="#000000" stroke-width="1" stroke-opacity="1"/>
    </g>
    <path d="M482.39,794.201 L439.87,794.201" fill-opacity="0" stroke="#000000" stroke-width="1"/>
    <g id="Layer_1">
      <path d="M518.784,808.615 L518.784,807.874 L510.152,807.874 L510.152,808.615 z" fill="#4E4E4E"/>
      <path d="M515.062,811.96 C515.062,811.936 515.062,811.697 514.751,811.697 C514.201,811.697 512.456,811.888 511.834,811.936 C511.643,811.96 511.38,811.984 511.38,812.414 C511.38,812.701 511.595,812.701 511.953,812.701 C513.101,812.701 513.149,812.869 513.149,813.108 C513.149,813.275 512.934,814.088 512.814,814.59 L510.854,822.385 C510.567,823.58 510.471,823.963 510.471,824.8 C510.471,827.071 511.738,828.554 513.508,828.554 C516.329,828.554 519.27,824.991 519.27,821.548 C519.27,819.372 518.003,817.722 516.09,817.722 C514.99,817.722 514.01,818.416 513.292,819.157 z M512.814,820.998 C512.958,820.472 512.958,820.424 513.173,820.161 C514.344,818.607 515.42,818.248 516.042,818.248 C516.903,818.248 517.548,818.966 517.548,820.496 C517.548,821.907 516.759,824.656 516.329,825.565 C515.54,827.167 514.44,828.028 513.508,828.028 C512.695,828.028 511.906,827.382 511.906,825.613 C511.906,825.159 511.906,824.704 512.288,823.198 z" fill="#4E4E4E"/>
      <path d="M528.062,828.833 L527.493,828.833 C527.443,829.201 527.275,830.188 527.058,830.356 C526.924,830.456 525.635,830.456 525.401,830.456 L522.321,830.456 C524.078,828.9 524.664,828.431 525.668,827.644 C526.907,826.657 528.062,825.619 528.062,824.029 C528.062,822.004 526.288,820.765 524.145,820.765 C522.07,820.765 520.664,822.221 520.664,823.761 C520.664,824.615 521.384,824.698 521.551,824.698 C521.953,824.698 522.438,824.414 522.438,823.811 C522.438,823.51 522.321,822.924 521.451,822.924 C521.969,821.736 523.108,821.368 523.894,821.368 C525.568,821.368 526.438,822.673 526.438,824.029 C526.438,825.485 525.401,826.64 524.865,827.243 L520.831,831.226 C520.664,831.377 520.664,831.41 520.664,831.879 L527.56,831.879 z" fill="#4E4E4E"/>
    </g>
    <g id="Layer_1">
      <path d="M51.845,808.615 L51.845,807.874 L43.213,807.874 L43.213,808.615 z" fill="#4E4E4E"/>
      <path d="M50.139,812.943 C49.708,812.058 49.015,811.413 47.939,811.413 C45.141,811.413 42.177,814.928 42.177,818.419 C42.177,820.666 43.492,822.244 45.357,822.244 C45.835,822.244 47.03,822.148 48.465,820.451 C48.656,821.455 49.493,822.244 50.641,822.244 C51.478,822.244 52.028,821.694 52.41,820.929 C52.817,820.068 53.127,818.61 53.127,818.562 C53.127,818.323 52.912,818.323 52.841,818.323 C52.601,818.323 52.578,818.419 52.506,818.753 C52.099,820.307 51.669,821.718 50.689,821.718 C50.043,821.718 49.971,821.096 49.971,820.618 C49.971,820.092 50.019,819.901 50.282,818.849 C50.545,817.845 50.593,817.606 50.808,816.697 L51.669,813.35 C51.836,812.68 51.836,812.632 51.836,812.537 C51.836,812.13 51.549,811.891 51.143,811.891 C50.569,811.891 50.21,812.417 50.139,812.943 z M48.585,819.136 C48.465,819.566 48.465,819.614 48.106,820.021 C47.054,821.336 46.074,821.718 45.404,821.718 C44.209,821.718 43.874,820.403 43.874,819.471 C43.874,818.275 44.639,815.334 45.189,814.234 C45.93,812.823 47.006,811.939 47.963,811.939 C49.517,811.939 49.852,813.899 49.852,814.043 C49.852,814.186 49.804,814.33 49.78,814.449 z" fill="#4E4E4E"/>
      <path d="M58.428,819.979 C59.733,819.979 60.671,820.883 60.671,822.674 C60.671,824.749 59.466,825.368 58.495,825.368 C57.825,825.368 56.352,825.184 55.649,824.197 C56.436,824.163 56.62,823.611 56.62,823.259 C56.62,822.724 56.219,822.339 55.7,822.339 C55.231,822.339 54.762,822.623 54.762,823.31 C54.762,824.883 56.503,825.904 58.528,825.904 C60.855,825.904 62.461,824.347 62.461,822.674 C62.461,821.368 61.39,820.063 59.549,819.678 C61.307,819.042 61.943,817.786 61.943,816.765 C61.943,815.443 60.42,814.456 58.562,814.456 C56.704,814.456 55.281,815.359 55.281,816.698 C55.281,817.268 55.649,817.586 56.152,817.586 C56.67,817.586 57.005,817.201 57.005,816.732 C57.005,816.247 56.67,815.895 56.152,815.862 C56.737,815.125 57.892,814.941 58.511,814.941 C59.265,814.941 60.319,815.309 60.319,816.765 C60.319,817.468 60.085,818.238 59.65,818.757 C59.097,819.393 58.629,819.427 57.792,819.477 C57.373,819.51 57.34,819.51 57.256,819.527 C57.223,819.527 57.089,819.56 57.089,819.745 C57.089,819.979 57.239,819.979 57.524,819.979 z" fill="#4E4E4E"/>
    </g>
    <g id="Layer_1">
      <path d="M51.719,836.962 L51.719,836.221 L43.088,836.221 L43.088,836.962 z" fill="#4E4E4E"/>
      <path d="M50.013,841.289 C49.583,840.405 48.889,839.759 47.813,839.759 C45.016,839.759 42.051,843.274 42.051,846.765 C42.051,849.013 43.366,850.591 45.231,850.591 C45.709,850.591 46.905,850.495 48.339,848.797 C48.531,849.802 49.368,850.591 50.515,850.591 C51.352,850.591 51.902,850.041 52.285,849.276 C52.691,848.415 53.002,846.956 53.002,846.908 C53.002,846.669 52.787,846.669 52.715,846.669 C52.476,846.669 52.452,846.765 52.38,847.1 C51.974,848.654 51.543,850.065 50.563,850.065 C49.918,850.065 49.846,849.443 49.846,848.965 C49.846,848.439 49.894,848.247 50.157,847.195 C50.42,846.191 50.467,845.952 50.683,845.043 L51.543,841.696 C51.711,841.026 51.711,840.979 51.711,840.883 C51.711,840.477 51.424,840.237 51.017,840.237 C50.444,840.237 50.085,840.763 50.013,841.289 z M48.459,847.482 C48.339,847.913 48.339,847.96 47.981,848.367 C46.929,849.682 45.948,850.065 45.279,850.065 C44.083,850.065 43.749,848.75 43.749,847.817 C43.749,846.621 44.514,843.681 45.064,842.581 C45.805,841.17 46.881,840.285 47.837,840.285 C49.391,840.285 49.726,842.246 49.726,842.389 C49.726,842.533 49.678,842.676 49.655,842.796 z" fill="#4E4E4E"/>
      <path d="M62.587,851.171 L62.587,850.568 L60.729,850.568 L60.729,843.103 C60.729,842.752 60.729,842.635 60.361,842.635 C60.16,842.635 60.093,842.635 59.926,842.869 L54.386,850.568 L54.386,851.171 L59.306,851.171 L59.306,852.543 C59.306,853.112 59.306,853.313 57.951,853.313 L57.499,853.313 L57.499,853.916 C58.336,853.882 59.407,853.849 60.009,853.849 C60.629,853.849 61.7,853.882 62.537,853.916 L62.537,853.313 L62.085,853.313 C60.729,853.313 60.729,853.112 60.729,852.543 L60.729,851.171 z M59.424,844.442 L59.424,850.568 L55.005,850.568 z" fill="#4E4E4E"/>
    </g>
    <g id="Layer_1">
      <path d="M86.191,821.631 C87.482,820.244 88.176,819.646 89.037,818.905 C89.037,818.881 90.519,817.614 91.38,816.753 C93.651,814.53 94.177,813.382 94.177,813.286 C94.177,813.047 93.962,813.047 93.914,813.047 C93.747,813.047 93.675,813.095 93.556,813.31 C92.838,814.458 92.336,814.841 91.762,814.841 C91.189,814.841 90.902,814.482 90.543,814.075 C90.089,813.526 89.682,813.047 88.893,813.047 C87.1,813.047 86,815.271 86,815.773 C86,815.893 86.072,816.036 86.287,816.036 C86.502,816.036 86.55,815.917 86.598,815.773 C87.052,814.673 88.439,814.649 88.63,814.649 C89.132,814.649 89.587,814.817 90.136,815.008 C91.093,815.367 91.356,815.367 91.978,815.367 C91.117,816.395 89.108,818.116 88.654,818.499 L86.502,820.507 C84.876,822.109 84.039,823.472 84.039,823.64 C84.039,823.879 84.278,823.879 84.326,823.879 C84.518,823.879 84.565,823.831 84.709,823.568 C85.259,822.731 85.976,822.085 86.741,822.085 C87.291,822.085 87.53,822.301 88.128,822.994 C88.535,823.496 88.965,823.879 89.658,823.879 C92.025,823.879 93.412,820.842 93.412,820.196 C93.412,820.077 93.317,819.957 93.125,819.957 C92.91,819.957 92.862,820.101 92.791,820.268 C92.241,821.822 90.71,822.277 89.921,822.277 C89.443,822.277 89.013,822.133 88.511,821.966 C87.698,821.655 87.339,821.559 86.837,821.559 C86.789,821.559 86.406,821.559 86.191,821.631 z" fill="#4E4E4E"/>
      <path d="M101.196,820.81 C100.844,820.258 100.275,819.823 99.472,819.823 C97.33,819.823 95.154,822.182 95.154,824.593 C95.154,826.216 96.242,827.371 97.681,827.371 C98.585,827.371 99.388,826.852 100.058,826.199 C100.376,827.204 101.347,827.371 101.782,827.371 C102.384,827.371 102.803,827.003 103.104,826.484 C103.472,825.831 103.69,824.877 103.69,824.81 C103.69,824.593 103.472,824.593 103.422,824.593 C103.188,824.593 103.171,824.66 103.054,825.111 C102.853,825.915 102.535,826.902 101.832,826.902 C101.397,826.902 101.28,826.534 101.28,826.082 C101.28,825.798 101.413,825.195 101.531,824.76 C101.648,824.308 101.815,823.622 101.899,823.254 L102.234,821.982 C102.334,821.546 102.535,820.76 102.535,820.676 C102.535,820.308 102.234,820.141 101.966,820.141 C101.681,820.141 101.296,820.341 101.196,820.81 z M100.125,825.111 C100.008,825.58 99.639,825.915 99.271,826.233 C99.12,826.367 98.451,826.902 97.731,826.902 C97.112,826.902 96.51,826.467 96.51,825.279 C96.51,824.392 96.995,822.551 97.38,821.881 C98.15,820.542 99.003,820.291 99.472,820.291 C100.644,820.291 100.962,821.563 100.962,821.747 C100.962,821.814 100.928,821.931 100.911,821.982 z" fill="#4E4E4E"/>
      <path d="M108.448,825.637 C109.548,825.637 110.278,826.318 110.278,827.502 C110.278,828.721 109.524,829.367 108.46,829.367 C108.329,829.367 106.906,829.367 106.297,828.745 C106.787,828.673 106.93,828.303 106.93,828.016 C106.93,827.574 106.595,827.287 106.201,827.287 C105.818,827.287 105.46,827.538 105.46,828.04 C105.46,829.283 106.87,829.857 108.496,829.857 C110.457,829.857 111.676,828.673 111.676,827.514 C111.676,826.534 110.804,825.697 109.441,825.386 C110.875,824.92 111.258,824.011 111.258,823.341 C111.258,822.361 110.038,821.632 108.532,821.632 C107.062,821.632 105.878,822.254 105.878,823.33 C105.878,823.891 106.332,824.035 106.56,824.035 C106.906,824.035 107.241,823.784 107.241,823.353 C107.241,823.078 107.097,822.744 106.667,822.672 C107.181,822.122 108.245,822.086 108.496,822.086 C109.369,822.086 109.991,822.529 109.991,823.341 C109.991,824.035 109.536,825.123 108.281,825.195 C107.946,825.206 107.898,825.218 107.588,825.23 C107.456,825.242 107.325,825.254 107.325,825.434 C107.325,825.637 107.444,825.637 107.659,825.637 z" fill="#4E4E4E"/>
    </g>
    <g id="Layer_1">
      <path d="M87.528,850.704 C88.819,849.317 89.512,848.72 90.373,847.978 C90.373,847.954 91.856,846.687 92.716,845.826 C94.988,843.603 95.514,842.455 95.514,842.359 C95.514,842.12 95.299,842.12 95.251,842.12 C95.084,842.12 95.012,842.168 94.892,842.383 C94.175,843.531 93.673,843.914 93.099,843.914 C92.525,843.914 92.238,843.555 91.88,843.148 C91.425,842.599 91.019,842.12 90.23,842.12 C88.436,842.12 87.337,844.344 87.337,844.846 C87.337,844.966 87.408,845.109 87.624,845.109 C87.839,845.109 87.887,844.99 87.934,844.846 C88.389,843.746 89.775,843.722 89.967,843.722 C90.469,843.722 90.923,843.89 91.473,844.081 C92.429,844.44 92.693,844.44 93.314,844.44 C92.453,845.468 90.445,847.189 89.991,847.572 L87.839,849.58 C86.213,851.182 85.376,852.545 85.376,852.713 C85.376,852.952 85.615,852.952 85.663,852.952 C85.854,852.952 85.902,852.904 86.045,852.641 C86.595,851.804 87.313,851.158 88.078,851.158 C88.628,851.158 88.867,851.374 89.465,852.067 C89.871,852.569 90.301,852.952 90.995,852.952 C93.362,852.952 94.749,849.915 94.749,849.27 C94.749,849.15 94.653,849.03 94.462,849.03 C94.247,849.03 94.199,849.174 94.127,849.341 C93.577,850.895 92.047,851.35 91.258,851.35 C90.78,851.35 90.349,851.206 89.847,851.039 C89.034,850.728 88.676,850.632 88.173,850.632 C88.126,850.632 87.743,850.632 87.528,850.704 z" fill="#4E4E4E"/>
      <path d="M102.533,849.883 C102.181,849.331 101.612,848.896 100.809,848.896 C98.666,848.896 96.49,851.256 96.49,853.666 C96.49,855.289 97.578,856.444 99.018,856.444 C99.922,856.444 100.725,855.925 101.394,855.272 C101.712,856.277 102.683,856.444 103.118,856.444 C103.721,856.444 104.139,856.076 104.441,855.557 C104.809,854.904 105.026,853.95 105.026,853.883 C105.026,853.666 104.809,853.666 104.759,853.666 C104.524,853.666 104.507,853.733 104.39,854.185 C104.189,854.988 103.871,855.975 103.169,855.975 C102.733,855.975 102.616,855.607 102.616,855.155 C102.616,854.871 102.75,854.268 102.867,853.833 C102.984,853.381 103.152,852.695 103.235,852.327 L103.57,851.055 C103.671,850.62 103.871,849.833 103.871,849.749 C103.871,849.381 103.57,849.214 103.302,849.214 C103.018,849.214 102.633,849.414 102.533,849.883 z M101.461,854.185 C101.344,854.653 100.976,854.988 100.608,855.306 C100.457,855.44 99.788,855.975 99.068,855.975 C98.449,855.975 97.846,855.54 97.846,854.352 C97.846,853.465 98.331,851.624 98.716,850.954 C99.486,849.615 100.34,849.364 100.809,849.364 C101.98,849.364 102.298,850.636 102.298,850.82 C102.298,850.887 102.265,851.005 102.248,851.055 z" fill="#4E4E4E"/>
      <path d="M113.216,856.718 L113.216,856.192 L111.722,856.192 L111.722,850.932 C111.722,850.645 111.71,850.573 111.399,850.573 C111.16,850.573 111.148,850.585 111.016,850.753 L106.593,856.192 L106.593,856.718 L110.574,856.718 L110.574,857.651 C110.574,858.022 110.574,858.141 109.534,858.141 L109.116,858.141 L109.116,858.667 C109.677,858.643 110.455,858.619 111.148,858.619 C111.841,858.619 112.606,858.643 113.18,858.667 L113.18,858.141 L112.762,858.141 C111.722,858.141 111.722,858.022 111.722,857.651 L111.722,856.718 z M110.67,851.865 L110.67,856.192 L107.155,856.192 z" fill="#4E4E4E"/>
    </g>
    <g id="Layer_1">
      <path d="M458.963,826.725 C460.254,825.339 460.947,824.741 461.808,824 C461.808,823.976 463.291,822.708 464.151,821.848 C466.423,819.624 466.949,818.476 466.949,818.381 C466.949,818.142 466.734,818.142 466.686,818.142 C466.519,818.142 466.447,818.189 466.327,818.405 C465.61,819.552 465.108,819.935 464.534,819.935 C463.96,819.935 463.673,819.576 463.315,819.17 C462.86,818.62 462.454,818.142 461.665,818.142 C459.871,818.142 458.772,820.365 458.772,820.867 C458.772,820.987 458.843,821.13 459.059,821.13 C459.274,821.13 459.322,821.011 459.369,820.867 C459.824,819.767 461.21,819.744 461.402,819.744 C461.904,819.744 462.358,819.911 462.908,820.102 C463.865,820.461 464.128,820.461 464.749,820.461 C463.888,821.489 461.88,823.211 461.426,823.593 L459.274,825.602 C457.648,827.204 456.811,828.566 456.811,828.734 C456.811,828.973 457.05,828.973 457.098,828.973 C457.289,828.973 457.337,828.925 457.48,828.662 C458.03,827.825 458.748,827.18 459.513,827.18 C460.063,827.18 460.302,827.395 460.9,828.088 C461.306,828.59 461.736,828.973 462.43,828.973 C464.797,828.973 466.184,825.936 466.184,825.291 C466.184,825.171 466.088,825.052 465.897,825.052 C465.682,825.052 465.634,825.195 465.562,825.362 C465.012,826.917 463.482,827.371 462.693,827.371 C462.215,827.371 461.784,827.227 461.282,827.06 C460.469,826.749 460.111,826.654 459.608,826.654 C459.561,826.654 459.178,826.654 458.963,826.725 z" fill="#4E4E4E"/>
      <path d="M472.542,810.225 C472.793,810.258 472.96,810.275 473.462,810.409 C473.998,810.56 474.399,810.66 474.717,810.66 C475.37,810.66 475.437,810.158 475.437,810.007 C475.437,809.873 475.37,809.355 474.717,809.355 C474.399,809.355 473.998,809.455 473.462,809.606 C472.96,809.74 472.793,809.756 472.542,809.79 C472.575,809.204 472.692,808.501 472.776,807.982 C472.843,807.647 472.993,806.794 472.993,806.208 C472.993,805.706 472.759,805.438 472.341,805.438 C471.989,805.438 471.688,805.622 471.688,806.208 C471.688,806.76 471.822,807.597 471.922,808.166 C471.956,808.35 472.106,809.171 472.14,809.79 C471.889,809.756 471.721,809.74 471.219,809.606 C470.684,809.455 470.282,809.355 469.964,809.355 C469.311,809.355 469.244,809.857 469.244,810.007 C469.244,810.141 469.311,810.66 469.964,810.66 C470.282,810.66 470.684,810.56 471.219,810.409 C471.721,810.275 471.889,810.258 472.14,810.225 C472.106,810.643 471.989,811.179 471.906,811.53 C471.688,812.568 471.688,812.685 471.688,813.556 C471.688,816.786 472.006,820.217 472.056,820.552 C472.073,820.702 472.106,820.803 472.341,820.803 C472.592,820.803 472.609,820.702 472.642,820.468 C472.642,820.451 472.776,818.995 472.843,817.974 C472.927,816.501 472.993,815.029 472.993,813.556 C472.993,812.685 472.993,812.568 472.759,811.497 C472.726,811.313 472.575,810.643 472.542,810.225 z" fill="#4E4E4E"/>
      <path d="M471.321,824.811 C471.337,824.777 471.388,824.56 471.388,824.543 C471.388,824.459 471.321,824.309 471.12,824.309 C470.785,824.309 469.396,824.443 468.977,824.476 C468.844,824.493 468.609,824.51 468.609,824.861 C468.609,825.095 468.844,825.095 469.044,825.095 C469.848,825.095 469.848,825.213 469.848,825.346 C469.848,825.464 469.68,826.133 469.58,826.518 L469.195,828.058 C469.044,828.627 468.124,832.292 468.09,832.51 C468.007,832.912 468.007,833.129 468.007,833.33 C468.007,835.02 469.078,836.092 470.467,836.092 C472.559,836.092 474.785,833.815 474.785,831.338 C474.785,829.38 473.43,828.543 472.275,828.543 C471.404,828.543 470.668,829.029 470.166,829.464 z M470.484,835.623 C469.664,835.623 469.195,834.903 469.195,833.916 C469.195,833.297 469.346,832.727 469.814,830.836 C469.915,830.518 469.915,830.485 470.233,830.117 C470.869,829.38 471.622,829.012 472.224,829.012 C472.877,829.012 473.446,829.497 473.446,830.635 C473.446,831.322 473.078,833.029 472.576,834 C472.174,834.82 471.337,835.623 470.484,835.623 z" fill="#4E4E4E"/>
      <path d="M482.353,836.007 L481.851,836.007 C481.815,836.234 481.696,836.976 481.504,837.095 C481.409,837.167 480.405,837.167 480.225,837.167 L477.882,837.167 C478.671,836.581 479.556,835.912 480.273,835.433 C481.349,834.692 482.353,833.999 482.353,832.732 C482.353,831.201 480.907,830.353 479.197,830.353 C477.583,830.353 476.4,831.285 476.4,832.457 C476.4,833.078 476.926,833.186 477.093,833.186 C477.416,833.186 477.798,832.971 477.798,832.481 C477.798,832.05 477.487,831.811 477.117,831.775 C477.452,831.237 478.145,830.879 478.946,830.879 C480.106,830.879 481.074,831.572 481.074,832.744 C481.074,833.748 480.381,834.513 479.46,835.29 L476.543,837.765 C476.423,837.872 476.411,837.872 476.4,837.956 L476.4,838.315 L481.959,838.315 z" fill="#4E4E4E"/>
    </g>
    <g id="Layer_1">
      <path d="M305.309,895.768 C305.309,891.369 301.723,887.806 297.347,887.806 C292.9,887.806 289.361,891.416 289.361,895.768 C289.361,900.168 292.948,903.73 297.323,903.73 C301.771,903.73 305.309,900.12 305.309,895.768 z M292.589,890.627 C292.541,890.58 292.374,890.412 292.374,890.364 C292.374,890.269 294.311,888.404 297.323,888.404 C298.16,888.404 300.36,888.523 302.32,890.364 L297.347,895.362 z M291.896,900.765 C290.437,899.139 289.959,897.298 289.959,895.768 C289.959,893.927 290.652,892.182 291.896,890.771 L296.893,895.768 z M302.751,890.771 C303.899,891.99 304.711,893.807 304.711,895.768 C304.711,897.609 304.018,899.355 302.775,900.765 L297.777,895.768 z M302.081,900.909 C302.129,900.957 302.297,901.124 302.297,901.172 C302.297,901.267 300.36,903.132 297.347,903.132 C296.51,903.132 294.311,903.013 292.35,901.172 L297.323,896.175 z" fill="#4E4E4E"/>
      <path d="M311.567,892.182 L313.814,892.182 C314.293,892.182 314.532,892.182 314.532,891.703 C314.532,891.44 314.293,891.44 313.862,891.44 L311.758,891.44 C312.619,888.045 312.738,887.567 312.738,887.423 C312.738,887.017 312.451,886.778 312.045,886.778 C311.973,886.778 311.304,886.802 311.089,887.639 L310.156,891.44 L307.908,891.44 C307.43,891.44 307.191,891.44 307.191,891.895 C307.191,892.182 307.382,892.182 307.861,892.182 L309.965,892.182 C308.243,898.972 308.148,899.379 308.148,899.809 C308.148,901.1 309.056,902.009 310.347,902.009 C312.786,902.009 314.149,898.518 314.149,898.326 C314.149,898.087 313.958,898.087 313.862,898.087 C313.647,898.087 313.623,898.159 313.503,898.422 C312.475,900.909 311.208,901.483 310.395,901.483 C309.893,901.483 309.654,901.172 309.654,900.383 C309.654,899.809 309.702,899.642 309.797,899.235 z" fill="#4E4E4E"/>
      <path d="M322.607,882.915 C322.005,883.016 321.754,883.484 321.754,883.853 C321.754,884.305 322.105,884.472 322.406,884.472 C322.775,884.472 323.36,884.204 323.36,883.401 C323.36,882.263 322.055,881.945 321.151,881.945 C318.641,881.945 316.314,884.254 316.314,886.581 C316.314,888.02 317.318,889.493 319.411,889.493 C322.239,889.493 323.561,887.836 323.561,887.602 C323.561,887.501 323.411,887.317 323.277,887.317 C323.176,887.317 323.143,887.351 323.009,887.485 C321.703,889.024 319.745,889.024 319.444,889.024 C318.239,889.024 317.703,888.204 317.703,887.167 C317.703,886.681 317.938,884.857 318.808,883.702 C319.444,882.882 320.314,882.413 321.151,882.413 C321.385,882.413 322.189,882.447 322.607,882.915 z" fill="#4E4E4E"/>
      <path d="M327.352,889.058 C327.352,889.978 327.185,891.05 326.047,892.121 C325.98,892.188 325.93,892.238 325.93,892.322 C325.93,892.439 326.064,892.556 326.164,892.556 C326.398,892.556 327.821,891.217 327.821,889.225 C327.821,888.188 327.419,887.401 326.649,887.401 C326.097,887.401 325.695,887.836 325.695,888.355 C325.695,888.891 326.08,889.326 326.666,889.326 C327.068,889.326 327.336,889.058 327.352,889.058 z" fill="#4E4E4E"/>
      <path d="M335.443,876.773 C332.263,879.016 331.426,882.564 331.426,885.125 C331.426,887.485 332.129,891.15 335.443,893.493 C335.577,893.493 335.778,893.493 335.778,893.292 C335.778,893.192 335.727,893.158 335.61,893.041 C333.384,891.033 332.564,888.188 332.564,885.141 C332.564,880.622 334.288,878.413 335.66,877.174 C335.727,877.108 335.778,877.057 335.778,876.974 C335.778,876.773 335.577,876.773 335.443,876.773 z" fill="#4E4E4E"/>
      <path d="M340.722,885.51 C341.19,885.51 342.512,885.476 343.416,885.158 C344.655,884.723 344.889,883.92 344.889,883.417 C344.889,882.497 343.969,881.945 342.814,881.945 C340.805,881.945 338.094,883.484 338.094,886.346 C338.094,888.037 339.148,889.493 341.107,889.493 C343.935,889.493 345.257,887.836 345.257,887.602 C345.257,887.501 345.107,887.317 344.973,887.317 C344.872,887.317 344.839,887.351 344.705,887.485 C343.4,889.024 341.441,889.024 341.14,889.024 C340.136,889.024 339.466,888.355 339.466,886.999 C339.466,886.765 339.466,886.43 339.667,885.51 z M339.801,885.041 C340.487,882.614 342.345,882.413 342.814,882.413 C343.55,882.413 344.169,882.781 344.169,883.417 C344.169,885.041 341.341,885.041 340.621,885.041 z" fill="#4E4E4E"/>
      <path d="M350.803,884.115 C350.803,883.756 350.767,883.756 350.372,883.756 C349.523,884.521 348.196,884.521 347.957,884.521 L347.754,884.521 L347.754,885.047 L347.957,885.047 C348.232,885.047 349.009,885.012 349.703,884.713 L349.703,890.69 C349.703,891.061 349.703,891.192 348.435,891.192 L347.838,891.192 L347.838,891.718 C348.495,891.671 349.559,891.671 350.253,891.671 C350.946,891.671 352.01,891.671 352.668,891.718 L352.668,891.192 L352.07,891.192 C350.803,891.192 350.803,891.061 350.803,890.69 z" fill="#4E4E4E"/>
      <path d="M358.907,889.058 C358.907,889.978 358.74,891.05 357.602,892.121 C357.535,892.188 357.485,892.238 357.485,892.322 C357.485,892.439 357.618,892.556 357.719,892.556 C357.953,892.556 359.376,891.217 359.376,889.225 C359.376,888.188 358.974,887.401 358.204,887.401 C357.652,887.401 357.25,887.836 357.25,888.355 C357.25,888.891 357.635,889.326 358.221,889.326 C358.623,889.326 358.89,889.058 358.907,889.058 z" fill="#4E4E4E"/>
      <path d="M364.804,885.51 C365.272,885.51 366.595,885.476 367.498,885.158 C368.737,884.723 368.971,883.92 368.971,883.417 C368.971,882.497 368.051,881.945 366.896,881.945 C364.887,881.945 362.176,883.484 362.176,886.346 C362.176,888.037 363.23,889.493 365.189,889.493 C368.017,889.493 369.339,887.836 369.339,887.602 C369.339,887.501 369.189,887.317 369.055,887.317 C368.954,887.317 368.921,887.351 368.787,887.485 C367.482,889.024 365.523,889.024 365.222,889.024 C364.218,889.024 363.548,888.355 363.548,886.999 C363.548,886.765 363.548,886.43 363.749,885.51 z M363.883,885.041 C364.569,882.614 366.427,882.413 366.896,882.413 C367.632,882.413 368.251,882.781 368.251,883.417 C368.251,885.041 365.423,885.041 364.703,885.041 z" fill="#4E4E4E"/>
      <path d="M377.168,889.411 L376.665,889.411 C376.63,889.638 376.51,890.379 376.319,890.499 C376.223,890.571 375.219,890.571 375.04,890.571 L372.696,890.571 C373.485,889.985 374.37,889.315 375.087,888.837 C376.163,888.096 377.168,887.403 377.168,886.135 C377.168,884.605 375.721,883.756 374.011,883.756 C372.398,883.756 371.214,884.689 371.214,885.86 C371.214,886.482 371.74,886.59 371.907,886.59 C372.23,886.59 372.613,886.375 372.613,885.884 C372.613,885.454 372.302,885.215 371.931,885.179 C372.266,884.641 372.959,884.282 373.76,884.282 C374.92,884.282 375.888,884.976 375.888,886.147 C375.888,887.152 375.195,887.917 374.274,888.694 L371.357,891.169 C371.238,891.276 371.226,891.276 371.214,891.36 L371.214,891.718 L376.773,891.718 z" fill="#4E4E4E"/>
      <path d="M380.964,876.773 C380.846,876.773 380.646,876.773 380.646,876.974 C380.646,877.057 380.696,877.108 380.796,877.225 C382.236,878.547 383.842,880.806 383.842,885.125 C383.842,888.623 382.754,891.267 380.947,892.907 C380.662,893.192 380.646,893.209 380.646,893.292 C380.646,893.376 380.696,893.493 380.863,893.493 C381.064,893.493 382.654,892.389 383.759,890.296 C384.495,888.907 384.98,887.1 384.98,885.141 C384.98,882.781 384.278,879.116 380.964,876.773 z" fill="#4E4E4E"/>
      <path d="M390.462,889.058 C390.462,889.978 390.295,891.05 389.157,892.121 C389.09,892.188 389.04,892.238 389.04,892.322 C389.04,892.439 389.174,892.556 389.274,892.556 C389.508,892.556 390.931,891.217 390.931,889.225 C390.931,888.188 390.529,887.401 389.759,887.401 C389.207,887.401 388.805,887.836 388.805,888.355 C388.805,888.891 389.19,889.326 389.776,889.326 C390.178,889.326 390.446,889.058 390.462,889.058 z" fill="#4E4E4E"/>
      <path d="M398.551,876.773 C395.371,879.016 394.534,882.564 394.534,885.125 C394.534,887.485 395.237,891.15 398.551,893.493 C398.685,893.493 398.886,893.493 398.886,893.292 C398.886,893.192 398.835,893.158 398.718,893.041 C396.492,891.033 395.672,888.188 395.672,885.141 C395.672,880.622 397.396,878.413 398.768,877.174 C398.835,877.108 398.886,877.057 398.886,876.974 C398.886,876.773 398.685,876.773 398.551,876.773 z" fill="#4E4E4E"/>
      <path d="M406.892,882.714 L408.533,882.714 C408.867,882.714 409.085,882.714 409.085,882.346 C409.085,882.112 408.867,882.112 408.566,882.112 L407.01,882.112 C407.395,879.986 407.528,879.216 407.662,878.731 C407.746,878.363 408.114,878.011 408.516,878.011 C408.533,878.011 408.985,878.011 409.303,878.212 C408.616,878.43 408.566,879.032 408.566,879.133 C408.566,879.501 408.851,879.752 409.236,879.752 C409.688,879.752 410.19,879.367 410.19,878.731 C410.19,877.961 409.37,877.543 408.516,877.543 C407.78,877.543 406.959,877.961 406.508,878.798 C406.173,879.417 406.039,880.17 405.687,882.112 L404.365,882.112 C404.03,882.112 403.813,882.112 403.813,882.48 C403.813,882.714 404.03,882.714 404.332,882.714 L405.57,882.714 C405.553,882.815 404.499,888.84 404.097,890.631 C404.014,890.999 403.729,892.271 402.926,892.271 C402.909,892.271 402.507,892.271 402.189,892.071 C402.876,891.853 402.926,891.25 402.926,891.15 C402.926,890.782 402.641,890.531 402.256,890.531 C401.804,890.531 401.302,890.916 401.302,891.552 C401.302,892.305 402.089,892.74 402.926,892.74 C403.997,892.74 404.733,891.635 404.934,891.267 C405.537,890.146 405.922,888.087 405.955,887.886 z" fill="#4E4E4E"/>
      <path d="M414.163,884.115 C414.163,883.756 414.127,883.756 413.732,883.756 C412.883,884.521 411.556,884.521 411.317,884.521 L411.114,884.521 L411.114,885.047 L411.317,885.047 C411.592,885.047 412.369,885.012 413.063,884.713 L413.063,890.69 C413.063,891.061 413.063,891.192 411.795,891.192 L411.198,891.192 L411.198,891.718 C411.855,891.671 412.919,891.671 413.613,891.671 C414.306,891.671 415.37,891.671 416.028,891.718 L416.028,891.192 L415.43,891.192 C414.163,891.192 414.163,891.061 414.163,890.69 z" fill="#4E4E4E"/>
      <path d="M420.242,876.773 C420.125,876.773 419.924,876.773 419.924,876.974 C419.924,877.057 419.974,877.108 420.075,877.225 C421.514,878.547 423.121,880.806 423.121,885.125 C423.121,888.623 422.033,891.267 420.225,892.907 C419.941,893.192 419.924,893.209 419.924,893.292 C419.924,893.376 419.974,893.493 420.142,893.493 C420.342,893.493 421.932,892.389 423.037,890.296 C423.773,888.907 424.259,887.1 424.259,885.141 C424.259,882.781 423.556,879.116 420.242,876.773 z" fill="#4E4E4E"/>
      <path d="M429.741,889.058 C429.741,889.978 429.573,891.05 428.435,892.121 C428.368,892.188 428.318,892.238 428.318,892.322 C428.318,892.439 428.452,892.556 428.552,892.556 C428.787,892.556 430.209,891.217 430.209,889.225 C430.209,888.188 429.808,887.401 429.038,887.401 C428.485,887.401 428.084,887.836 428.084,888.355 C428.084,888.891 428.469,889.326 429.055,889.326 C429.456,889.326 429.724,889.058 429.741,889.058 z" fill="#4E4E4E"/>
      <path d="M437.829,876.773 C434.649,879.016 433.812,882.564 433.812,885.125 C433.812,887.485 434.515,891.15 437.829,893.493 C437.963,893.493 438.164,893.493 438.164,893.292 C438.164,893.192 438.114,893.158 437.997,893.041 C435.771,891.033 434.951,888.188 434.951,885.141 C434.951,880.622 436.674,878.413 438.047,877.174 C438.114,877.108 438.164,877.057 438.164,876.974 C438.164,876.773 437.963,876.773 437.829,876.773 z" fill="#4E4E4E"/>
      <path d="M440.263,892.02 C440.196,892.271 440.196,892.355 440.196,892.372 C440.196,892.74 440.497,892.907 440.765,892.907 C441.367,892.907 441.501,892.355 441.568,892.071 C441.602,891.987 441.936,890.648 442.338,889.008 C442.857,889.359 443.526,889.493 444.129,889.493 C445.568,889.493 446.506,888.321 446.539,888.288 C446.857,889.443 448.012,889.493 448.263,889.493 C448.866,889.493 449.284,889.125 449.585,888.606 C449.953,887.953 450.171,886.999 450.171,886.932 C450.171,886.715 449.953,886.715 449.903,886.715 C449.669,886.715 449.652,886.782 449.535,887.234 C449.334,888.037 449.016,889.024 448.313,889.024 C447.878,889.024 447.761,888.656 447.761,888.204 C447.761,887.92 447.895,887.317 448.012,886.882 C448.129,886.43 448.296,885.744 448.38,885.376 L448.765,883.886 C448.866,883.468 449.05,882.731 449.05,882.648 C449.05,882.313 448.782,882.112 448.497,882.112 C448.313,882.112 447.995,882.196 447.811,882.514 C447.761,882.614 447.627,883.15 447.543,883.484 L447.192,884.874 L446.673,886.966 C446.556,887.384 446.556,887.418 446.405,887.635 C445.886,888.372 445.15,889.024 444.196,889.024 C442.823,889.024 442.823,887.836 442.823,887.535 C442.823,887.1 442.874,886.882 443.108,885.978 C443.275,885.242 443.309,885.125 443.476,884.472 L443.71,883.535 C443.794,883.183 443.962,882.547 443.962,882.48 C443.962,882.179 443.727,881.945 443.392,881.945 C442.79,881.945 442.639,882.53 442.589,882.731 z" fill="#4E4E4E"/>
      <path d="M455.743,884.115 C455.743,883.756 455.707,883.756 455.312,883.756 C454.463,884.521 453.136,884.521 452.897,884.521 L452.694,884.521 L452.694,885.047 L452.897,885.047 C453.172,885.047 453.949,885.012 454.643,884.713 L454.643,890.69 C454.643,891.061 454.643,891.192 453.375,891.192 L452.778,891.192 L452.778,891.718 C453.435,891.671 454.499,891.671 455.193,891.671 C455.886,891.671 456.95,891.671 457.608,891.718 L457.608,891.192 L457.01,891.192 C455.743,891.192 455.743,891.061 455.743,890.69 z" fill="#4E4E4E"/>
      <path d="M463.847,889.058 C463.847,889.978 463.68,891.05 462.542,892.121 C462.475,892.188 462.425,892.238 462.425,892.322 C462.425,892.439 462.558,892.556 462.659,892.556 C462.893,892.556 464.316,891.217 464.316,889.225 C464.316,888.188 463.914,887.401 463.144,887.401 C462.592,887.401 462.19,887.836 462.19,888.355 C462.19,888.891 462.575,889.326 463.161,889.326 C463.563,889.326 463.83,889.058 463.847,889.058 z" fill="#4E4E4E"/>
      <path d="M466.898,892.02 C466.831,892.271 466.831,892.355 466.831,892.372 C466.831,892.74 467.133,892.907 467.4,892.907 C468.003,892.907 468.137,892.355 468.204,892.071 C468.237,891.987 468.572,890.648 468.974,889.008 C469.493,889.359 470.162,889.493 470.765,889.493 C472.204,889.493 473.141,888.321 473.175,888.288 C473.493,889.443 474.648,889.493 474.899,889.493 C475.501,889.493 475.92,889.125 476.221,888.606 C476.589,887.953 476.807,886.999 476.807,886.932 C476.807,886.715 476.589,886.715 476.539,886.715 C476.305,886.715 476.288,886.782 476.171,887.234 C475.97,888.037 475.652,889.024 474.949,889.024 C474.514,889.024 474.397,888.656 474.397,888.204 C474.397,887.92 474.53,887.317 474.648,886.882 C474.765,886.43 474.932,885.744 475.016,885.376 L475.401,883.886 C475.501,883.468 475.685,882.731 475.685,882.648 C475.685,882.313 475.418,882.112 475.133,882.112 C474.949,882.112 474.631,882.196 474.447,882.514 C474.397,882.614 474.263,883.15 474.179,883.484 L473.828,884.874 L473.309,886.966 C473.191,887.384 473.191,887.418 473.041,887.635 C472.522,888.372 471.786,889.024 470.832,889.024 C469.459,889.024 469.459,887.836 469.459,887.535 C469.459,887.1 469.509,886.882 469.744,885.978 C469.911,885.242 469.945,885.125 470.112,884.472 L470.346,883.535 C470.43,883.183 470.597,882.547 470.597,882.48 C470.597,882.179 470.363,881.945 470.028,881.945 C469.426,881.945 469.275,882.53 469.225,882.731 z" fill="#4E4E4E"/>
      <path d="M484.664,889.411 L484.161,889.411 C484.126,889.638 484.006,890.379 483.815,890.499 C483.719,890.571 482.715,890.571 482.536,890.571 L480.192,890.571 C480.981,889.985 481.866,889.315 482.583,888.837 C483.659,888.096 484.664,887.403 484.664,886.135 C484.664,884.605 483.217,883.756 481.507,883.756 C479.894,883.756 478.71,884.689 478.71,885.86 C478.71,886.482 479.236,886.59 479.403,886.59 C479.726,886.59 480.109,886.375 480.109,885.884 C480.109,885.454 479.798,885.215 479.427,885.179 C479.762,884.641 480.455,884.282 481.256,884.282 C482.416,884.282 483.384,884.976 483.384,886.147 C483.384,887.152 482.691,887.917 481.77,888.694 L478.853,891.169 C478.734,891.276 478.722,891.276 478.71,891.36 L478.71,891.718 L484.269,891.718 z" fill="#4E4E4E"/>
      <path d="M490.485,889.058 C490.485,889.978 490.317,891.05 489.179,892.121 C489.112,892.188 489.062,892.238 489.062,892.322 C489.062,892.439 489.196,892.556 489.296,892.556 C489.531,892.556 490.953,891.217 490.953,889.225 C490.953,888.188 490.552,887.401 489.782,887.401 C489.229,887.401 488.828,887.836 488.828,888.355 C488.828,888.891 489.213,889.326 489.799,889.326 C490.2,889.326 490.468,889.058 490.485,889.058 z" fill="#4E4E4E"/>
      <path d="M493.536,892.02 C493.469,892.271 493.469,892.355 493.469,892.372 C493.469,892.74 493.77,892.907 494.038,892.907 C494.641,892.907 494.775,892.355 494.841,892.071 C494.875,891.987 495.21,890.648 495.611,889.008 C496.13,889.359 496.8,889.493 497.402,889.493 C498.842,889.493 499.779,888.321 499.812,888.288 C500.13,889.443 501.285,889.493 501.536,889.493 C502.139,889.493 502.557,889.125 502.859,888.606 C503.227,887.953 503.444,886.999 503.444,886.932 C503.444,886.715 503.227,886.715 503.177,886.715 C502.942,886.715 502.925,886.782 502.808,887.234 C502.607,888.037 502.289,889.024 501.587,889.024 C501.151,889.024 501.034,888.656 501.034,888.204 C501.034,887.92 501.168,887.317 501.285,886.882 C501.402,886.43 501.57,885.744 501.653,885.376 L502.038,883.886 C502.139,883.468 502.323,882.731 502.323,882.648 C502.323,882.313 502.055,882.112 501.771,882.112 C501.587,882.112 501.268,882.196 501.084,882.514 C501.034,882.614 500.9,883.15 500.817,883.484 L500.465,884.874 L499.946,886.966 C499.829,887.384 499.829,887.418 499.678,887.635 C499.16,888.372 498.423,889.024 497.469,889.024 C496.097,889.024 496.097,887.836 496.097,887.535 C496.097,887.1 496.147,886.882 496.381,885.978 C496.549,885.242 496.582,885.125 496.749,884.472 L496.984,883.535 C497.067,883.183 497.235,882.547 497.235,882.48 C497.235,882.179 497.001,881.945 496.666,881.945 C496.063,881.945 495.913,882.53 495.862,882.731 z" fill="#4E4E4E"/>
      <path d="M508.202,887.761 C509.302,887.761 510.032,888.443 510.032,889.626 C510.032,890.846 509.278,891.491 508.214,891.491 C508.083,891.491 506.66,891.491 506.051,890.87 C506.541,890.798 506.684,890.427 506.684,890.14 C506.684,889.698 506.349,889.411 505.955,889.411 C505.572,889.411 505.214,889.662 505.214,890.164 C505.214,891.408 506.624,891.981 508.25,891.981 C510.211,891.981 511.43,890.798 511.43,889.638 C511.43,888.658 510.558,887.821 509.195,887.51 C510.629,887.044 511.012,886.135 511.012,885.466 C511.012,884.486 509.792,883.756 508.286,883.756 C506.816,883.756 505.632,884.378 505.632,885.454 C505.632,886.016 506.086,886.159 506.314,886.159 C506.66,886.159 506.995,885.908 506.995,885.478 C506.995,885.203 506.852,884.868 506.421,884.796 C506.935,884.247 507.999,884.211 508.25,884.211 C509.123,884.211 509.745,884.653 509.745,885.466 C509.745,886.159 509.29,887.247 508.035,887.319 C507.7,887.331 507.652,887.343 507.342,887.355 C507.21,887.367 507.079,887.379 507.079,887.558 C507.079,887.761 507.198,887.761 507.413,887.761 z" fill="#4E4E4E"/>
      <path d="M515.097,876.773 C514.98,876.773 514.779,876.773 514.779,876.974 C514.779,877.057 514.829,877.108 514.93,877.225 C516.369,878.547 517.976,880.806 517.976,885.125 C517.976,888.623 516.888,891.267 515.08,892.907 C514.796,893.192 514.779,893.209 514.779,893.292 C514.779,893.376 514.829,893.493 514.997,893.493 C515.198,893.493 516.788,892.389 517.892,890.296 C518.629,888.907 519.114,887.1 519.114,885.141 C519.114,882.781 518.411,879.116 515.097,876.773 z" fill="#4E4E4E"/>
      <path d="M524.594,889.058 C524.594,889.978 524.426,891.05 523.288,892.121 C523.221,892.188 523.171,892.238 523.171,892.322 C523.171,892.439 523.305,892.556 523.405,892.556 C523.64,892.556 525.062,891.217 525.062,889.225 C525.062,888.188 524.661,887.401 523.891,887.401 C523.338,887.401 522.937,887.836 522.937,888.355 C522.937,888.891 523.322,889.326 523.907,889.326 C524.309,889.326 524.577,889.058 524.594,889.058 z" fill="#4E4E4E"/>
      <path d="M532.682,876.773 C529.502,879.016 528.665,882.564 528.665,885.125 C528.665,887.485 529.368,891.15 532.682,893.493 C532.816,893.493 533.017,893.493 533.017,893.292 C533.017,893.192 532.967,893.158 532.849,893.041 C530.623,891.033 529.803,888.188 529.803,885.141 C529.803,880.622 531.527,878.413 532.9,877.174 C532.967,877.108 533.017,877.057 533.017,876.974 C533.017,876.773 532.816,876.773 532.682,876.773 z" fill="#4E4E4E"/>
      <path d="M538.413,882.43 C538.429,882.363 538.446,882.263 538.446,882.179 C538.446,882.162 538.446,881.945 538.178,881.945 C538.162,881.945 537.208,882.028 537.09,882.028 C536.772,882.062 536.471,882.078 536.153,882.112 C535.885,882.129 535.685,882.145 535.685,882.497 C535.685,882.731 535.919,882.731 536.12,882.731 C536.923,882.731 536.923,882.832 536.923,882.982 C536.923,883.083 536.839,883.417 536.772,883.635 L535.936,887.016 C535.517,888.69 535.433,889.024 535.433,889.091 C535.433,889.326 535.685,889.326 535.751,889.326 L536.019,889.326 C537.509,889.091 539.634,888.305 541.425,886.715 C543.702,884.689 544.036,882.514 544.036,882.48 C544.036,882.179 543.802,881.945 543.467,881.945 C542.881,881.945 542.764,882.413 542.614,882.882 C541.944,885.259 539.701,887.819 536.856,888.656 z" fill="#4E4E4E"/>
      <path d="M548.558,884.115 C548.558,883.756 548.522,883.756 548.127,883.756 C547.279,884.521 545.952,884.521 545.712,884.521 L545.509,884.521 L545.509,885.047 L545.712,885.047 C545.987,885.047 546.765,885.012 547.458,884.713 L547.458,890.69 C547.458,891.061 547.458,891.192 546.191,891.192 L545.593,891.192 L545.593,891.718 C546.25,891.671 547.314,891.671 548.008,891.671 C548.701,891.671 549.765,891.671 550.423,891.718 L550.423,891.192 L549.825,891.192 C548.558,891.192 548.558,891.061 548.558,890.69 z" fill="#4E4E4E"/>
      <path d="M556.662,889.058 C556.662,889.978 556.495,891.05 555.357,892.121 C555.29,892.188 555.24,892.238 555.24,892.322 C555.24,892.439 555.374,892.556 555.474,892.556 C555.708,892.556 557.131,891.217 557.131,889.225 C557.131,888.188 556.729,887.401 555.959,887.401 C555.407,887.401 555.005,887.836 555.005,888.355 C555.005,888.891 555.39,889.326 555.976,889.326 C556.378,889.326 556.646,889.058 556.662,889.058 z" fill="#4E4E4E"/>
      <path d="M563.011,882.43 C563.027,882.363 563.044,882.263 563.044,882.179 C563.044,882.162 563.044,881.945 562.776,881.945 C562.76,881.945 561.806,882.028 561.688,882.028 C561.37,882.062 561.069,882.078 560.751,882.112 C560.483,882.129 560.283,882.145 560.283,882.497 C560.283,882.731 560.517,882.731 560.718,882.731 C561.521,882.731 561.521,882.832 561.521,882.982 C561.521,883.083 561.437,883.417 561.37,883.635 L560.534,887.016 C560.115,888.69 560.032,889.024 560.032,889.091 C560.032,889.326 560.283,889.326 560.35,889.326 L560.617,889.326 C562.107,889.091 564.233,888.305 566.023,886.715 C568.3,884.689 568.634,882.514 568.634,882.48 C568.634,882.179 568.4,881.945 568.065,881.945 C567.48,881.945 567.362,882.413 567.212,882.882 C566.542,885.259 564.299,887.819 561.454,888.656 z" fill="#4E4E4E"/>
      <path d="M575.436,889.411 L574.934,889.411 C574.898,889.638 574.779,890.379 574.588,890.499 C574.492,890.571 573.488,890.571 573.308,890.571 L570.965,890.571 C571.754,889.985 572.639,889.315 573.356,888.837 C574.432,888.096 575.436,887.403 575.436,886.135 C575.436,884.605 573.99,883.756 572.28,883.756 C570.666,883.756 569.483,884.689 569.483,885.86 C569.483,886.482 570.009,886.59 570.176,886.59 C570.499,886.59 570.882,886.375 570.882,885.884 C570.882,885.454 570.571,885.215 570.2,885.179 C570.535,884.641 571.228,884.282 572.029,884.282 C573.189,884.282 574.157,884.976 574.157,886.147 C574.157,887.152 573.464,887.917 572.543,888.694 L569.626,891.169 C569.507,891.276 569.495,891.276 569.483,891.36 L569.483,891.718 L575.042,891.718 z" fill="#4E4E4E"/>
      <path d="M579.235,876.773 C579.118,876.773 578.917,876.773 578.917,876.974 C578.917,877.057 578.967,877.108 579.067,877.225 C580.507,878.547 582.114,880.806 582.114,885.125 C582.114,888.623 581.026,891.267 579.218,892.907 C578.934,893.192 578.917,893.209 578.917,893.292 C578.917,893.376 578.967,893.493 579.134,893.493 C579.335,893.493 580.925,892.389 582.03,890.296 C582.766,888.907 583.252,887.1 583.252,885.141 C583.252,882.781 582.549,879.116 579.235,876.773 z" fill="#4E4E4E"/>
      <path d="M322.34,904.971 C321.988,904.419 321.419,903.984 320.616,903.984 C318.473,903.984 316.297,906.344 316.297,908.754 C316.297,910.377 317.385,911.532 318.825,911.532 C319.729,911.532 320.532,911.013 321.201,910.361 C321.519,911.365 322.49,911.532 322.925,911.532 C323.528,911.532 323.946,911.164 324.248,910.645 C324.616,909.992 324.833,909.038 324.833,908.971 C324.833,908.754 324.616,908.754 324.566,908.754 C324.331,908.754 324.314,908.821 324.197,909.273 C323.996,910.076 323.678,911.064 322.976,911.064 C322.54,911.064 322.423,910.695 322.423,910.243 C322.423,909.959 322.557,909.356 322.674,908.921 C322.791,908.469 322.959,907.783 323.042,907.415 L323.377,906.143 C323.478,905.708 323.678,904.921 323.678,904.837 C323.678,904.469 323.377,904.302 323.109,904.302 C322.825,904.302 322.44,904.503 322.34,904.971 z M321.268,909.273 C321.151,909.741 320.783,910.076 320.415,910.394 C320.264,910.528 319.595,911.064 318.875,911.064 C318.256,911.064 317.653,910.628 317.653,909.44 C317.653,908.553 318.138,906.712 318.523,906.042 C319.293,904.703 320.147,904.452 320.616,904.452 C321.787,904.452 322.105,905.724 322.105,905.909 C322.105,905.975 322.072,906.093 322.055,906.143 z" fill="#4E4E4E"/>
      <path d="M330.407,906.152 C330.407,905.793 330.372,905.793 329.977,905.793 C329.128,906.558 327.801,906.558 327.562,906.558 L327.359,906.558 L327.359,907.084 L327.562,907.084 C327.837,907.084 328.614,907.048 329.307,906.75 L329.307,912.727 C329.307,913.098 329.307,913.229 328.04,913.229 L327.443,913.229 L327.443,913.755 C328.1,913.707 329.164,913.707 329.857,913.707 C330.551,913.707 331.615,913.707 332.272,913.755 L332.272,913.229 L331.675,913.229 C330.407,913.229 330.407,913.098 330.407,912.727 z" fill="#4E4E4E"/>
      <path d="M342.044,904.971 C341.692,904.419 341.123,903.984 340.32,903.984 C338.177,903.984 336.001,906.344 336.001,908.754 C336.001,910.377 337.089,911.532 338.529,911.532 C339.433,911.532 340.236,911.013 340.905,910.361 C341.223,911.365 342.194,911.532 342.629,911.532 C343.232,911.532 343.65,911.164 343.952,910.645 C344.32,909.992 344.537,909.038 344.537,908.971 C344.537,908.754 344.32,908.754 344.27,908.754 C344.035,908.754 344.018,908.821 343.901,909.273 C343.7,910.076 343.382,911.064 342.68,911.064 C342.244,911.064 342.127,910.695 342.127,910.243 C342.127,909.959 342.261,909.356 342.378,908.921 C342.495,908.469 342.663,907.783 342.746,907.415 L343.081,906.143 C343.182,905.708 343.382,904.921 343.382,904.837 C343.382,904.469 343.081,904.302 342.813,904.302 C342.529,904.302 342.144,904.503 342.044,904.971 z M340.972,909.273 C340.855,909.741 340.487,910.076 340.119,910.394 C339.968,910.528 339.299,911.064 338.579,911.064 C337.96,911.064 337.357,910.628 337.357,909.44 C337.357,908.553 337.842,906.712 338.227,906.042 C338.997,904.703 339.851,904.452 340.32,904.452 C341.491,904.452 341.809,905.724 341.809,905.909 C341.809,905.975 341.776,906.093 341.759,906.143 z" fill="#4E4E4E"/>
      <path d="M352.392,911.448 L351.89,911.448 C351.854,911.675 351.735,912.416 351.544,912.536 C351.448,912.608 350.444,912.608 350.264,912.608 L347.921,912.608 C348.71,912.022 349.595,911.352 350.312,910.874 C351.388,910.133 352.392,909.439 352.392,908.172 C352.392,906.642 350.946,905.793 349.236,905.793 C347.622,905.793 346.439,906.726 346.439,907.897 C346.439,908.519 346.965,908.626 347.132,908.626 C347.455,908.626 347.837,908.411 347.837,907.921 C347.837,907.491 347.527,907.252 347.156,907.216 C347.491,906.678 348.184,906.319 348.985,906.319 C350.145,906.319 351.113,907.013 351.113,908.184 C351.113,909.188 350.42,909.953 349.499,910.731 L346.582,913.205 C346.463,913.313 346.451,913.313 346.439,913.397 L346.439,913.755 L351.998,913.755 z" fill="#4E4E4E"/>
      <path d="M363.188,902.059 L363.188,901.423 L356.527,901.423 L356.527,902.059 z" fill="#4E4E4E"/>
      <path d="M361.745,904.971 C361.394,904.419 360.825,903.984 360.021,903.984 C357.879,903.984 355.703,906.344 355.703,908.754 C355.703,910.377 356.791,911.532 358.23,911.532 C359.134,911.532 359.938,911.013 360.607,910.361 C360.925,911.365 361.896,911.532 362.331,911.532 C362.933,911.532 363.352,911.164 363.653,910.645 C364.021,909.992 364.239,909.038 364.239,908.971 C364.239,908.754 364.021,908.754 363.971,908.754 C363.737,908.754 363.72,908.821 363.603,909.273 C363.402,910.076 363.084,911.064 362.381,911.064 C361.946,911.064 361.829,910.695 361.829,910.243 C361.829,909.959 361.963,909.356 362.08,908.921 C362.197,908.469 362.364,907.783 362.448,907.415 L362.783,906.143 C362.883,905.708 363.084,904.921 363.084,904.837 C363.084,904.469 362.783,904.302 362.515,904.302 C362.23,904.302 361.846,904.503 361.745,904.971 z M360.674,909.273 C360.557,909.741 360.189,910.076 359.82,910.394 C359.67,910.528 359,911.064 358.281,911.064 C357.661,911.064 357.059,910.628 357.059,909.44 C357.059,908.553 357.544,906.712 357.929,906.042 C358.699,904.703 359.553,904.452 360.021,904.452 C361.193,904.452 361.511,905.724 361.511,905.909 C361.511,905.975 361.477,906.093 361.461,906.143 z" fill="#4E4E4E"/>
      <path d="M369,909.798 C370.1,909.798 370.829,910.48 370.829,911.663 C370.829,912.883 370.076,913.528 369.012,913.528 C368.88,913.528 367.458,913.528 366.848,912.906 C367.338,912.835 367.482,912.464 367.482,912.177 C367.482,911.735 367.147,911.448 366.752,911.448 C366.37,911.448 366.011,911.699 366.011,912.201 C366.011,913.444 367.422,914.018 369.048,914.018 C371.008,914.018 372.228,912.835 372.228,911.675 C372.228,910.695 371.355,909.858 369.992,909.547 C371.427,909.081 371.809,908.172 371.809,907.503 C371.809,906.522 370.59,905.793 369.084,905.793 C367.613,905.793 366.43,906.415 366.43,907.491 C366.43,908.053 366.884,908.196 367.111,908.196 C367.458,908.196 367.793,907.945 367.793,907.515 C367.793,907.24 367.649,906.905 367.219,906.833 C367.733,906.283 368.797,906.247 369.048,906.247 C369.921,906.247 370.542,906.69 370.542,907.503 C370.542,908.196 370.088,909.284 368.833,909.356 C368.498,909.368 368.45,909.38 368.139,909.392 C368.008,909.404 367.876,909.416 367.876,909.595 C367.876,909.798 367.996,909.798 368.211,909.798 z" fill="#4E4E4E"/>
      <path d="M382.89,902.059 L382.89,901.423 L376.229,901.423 L376.229,902.059 z" fill="#4E4E4E"/>
      <path d="M381.449,904.971 C381.098,904.419 380.529,903.984 379.725,903.984 C377.583,903.984 375.407,906.344 375.407,908.754 C375.407,910.377 376.495,911.532 377.934,911.532 C378.838,911.532 379.642,911.013 380.311,910.361 C380.629,911.365 381.6,911.532 382.035,911.532 C382.637,911.532 383.056,911.164 383.357,910.645 C383.725,909.992 383.943,909.038 383.943,908.971 C383.943,908.754 383.725,908.754 383.675,908.754 C383.441,908.754 383.424,908.821 383.307,909.273 C383.106,910.076 382.788,911.064 382.085,911.064 C381.65,911.064 381.533,910.695 381.533,910.243 C381.533,909.959 381.667,909.356 381.784,908.921 C381.901,908.469 382.068,907.783 382.152,907.415 L382.487,906.143 C382.587,905.708 382.788,904.921 382.788,904.837 C382.788,904.469 382.487,904.302 382.219,904.302 C381.934,904.302 381.55,904.503 381.449,904.971 z M380.378,909.273 C380.261,909.741 379.893,910.076 379.524,910.394 C379.374,910.528 378.704,911.064 377.985,911.064 C377.365,911.064 376.763,910.628 376.763,909.44 C376.763,908.553 377.248,906.712 377.633,906.042 C378.403,904.703 379.257,904.452 379.725,904.452 C380.897,904.452 381.215,905.724 381.215,905.909 C381.215,905.975 381.181,906.093 381.165,906.143 z" fill="#4E4E4E"/>
      <path d="M392.135,911.807 L392.135,911.281 L390.641,911.281 L390.641,906.02 C390.641,905.733 390.629,905.662 390.318,905.662 C390.079,905.662 390.067,905.674 389.935,905.841 L385.512,911.281 L385.512,911.807 L389.493,911.807 L389.493,912.739 C389.493,913.11 389.493,913.229 388.453,913.229 L388.035,913.229 L388.035,913.755 C388.596,913.731 389.374,913.707 390.067,913.707 C390.76,913.707 391.525,913.731 392.099,913.755 L392.099,913.229 L391.681,913.229 C390.641,913.229 390.641,913.11 390.641,912.739 L390.641,911.807 z M389.589,906.953 L389.589,911.281 L386.074,911.281 z" fill="#4E4E4E"/>
      <path d="M397.755,905.122 C397.755,904.536 397.287,904.151 396.801,904.151 C396.216,904.151 395.831,904.62 395.831,905.105 C395.831,905.691 396.299,906.076 396.785,906.076 C397.371,906.076 397.755,905.607 397.755,905.122 z M397.337,911.214 C397.32,912.403 396.919,913.34 396.182,914.16 C396.082,914.26 396.065,914.294 396.065,914.361 C396.065,914.461 396.182,914.612 396.299,914.612 C396.517,914.612 397.806,913.256 397.806,911.231 C397.806,910.662 397.722,909.44 396.785,909.44 C396.149,909.44 395.831,909.942 395.831,910.394 C395.831,910.863 396.132,911.365 396.801,911.365 C397.086,911.365 397.27,911.248 397.337,911.214 z" fill="#4E4E4E"/>
      <path d="M403.921,900.251 C403.937,900.218 403.988,900 403.988,899.984 C403.988,899.9 403.921,899.749 403.72,899.749 C403.385,899.749 401.996,899.883 401.577,899.917 C401.444,899.933 401.209,899.95 401.209,900.302 C401.209,900.536 401.444,900.536 401.644,900.536 C402.448,900.536 402.448,900.653 402.448,900.787 C402.448,900.904 402.28,901.574 402.18,901.959 L401.795,903.498 C401.644,904.067 400.724,907.733 400.69,907.95 C400.607,908.352 400.607,908.57 400.607,908.771 C400.607,910.461 401.678,911.532 403.067,911.532 C405.159,911.532 407.385,909.256 407.385,906.779 C407.385,904.821 406.03,903.984 404.875,903.984 C404.004,903.984 403.268,904.469 402.766,904.904 z M403.084,911.064 C402.264,911.064 401.795,910.344 401.795,909.356 C401.795,908.737 401.946,908.168 402.414,906.277 C402.515,905.959 402.515,905.925 402.833,905.557 C403.469,904.821 404.222,904.452 404.824,904.452 C405.477,904.452 406.046,904.938 406.046,906.076 C406.046,906.762 405.678,908.469 405.176,909.44 C404.774,910.26 403.937,911.064 403.084,911.064 z" fill="#4E4E4E"/>
      <path d="M412.67,906.152 C412.67,905.793 412.634,905.793 412.239,905.793 C411.391,906.558 410.064,906.558 409.824,906.558 L409.621,906.558 L409.621,907.084 L409.824,907.084 C410.099,907.084 410.876,907.048 411.57,906.75 L411.57,912.727 C411.57,913.098 411.57,913.229 410.303,913.229 L409.705,913.229 L409.705,913.755 C410.362,913.707 411.426,913.707 412.12,913.707 C412.813,913.707 413.877,913.707 414.535,913.755 L414.535,913.229 L413.937,913.229 C412.67,913.229 412.67,913.098 412.67,912.727 z" fill="#4E4E4E"/>
      <path d="M424.765,897.641 L424.765,897.005 L418.104,897.005 L418.104,897.641 z" fill="#4E4E4E"/>
      <path d="M421.661,900.251 C421.678,900.218 421.728,900 421.728,899.984 C421.728,899.9 421.661,899.749 421.461,899.749 C421.126,899.749 419.737,899.883 419.318,899.917 C419.184,899.933 418.95,899.95 418.95,900.302 C418.95,900.536 419.184,900.536 419.385,900.536 C420.189,900.536 420.189,900.653 420.189,900.787 C420.189,900.904 420.021,901.574 419.921,901.959 L419.536,903.498 C419.385,904.067 418.465,907.733 418.431,907.95 C418.348,908.352 418.348,908.57 418.348,908.771 C418.348,910.461 419.419,911.532 420.808,911.532 C422.9,911.532 425.126,909.256 425.126,906.779 C425.126,904.821 423.77,903.984 422.615,903.984 C421.745,903.984 421.009,904.469 420.507,904.904 z M420.825,911.064 C420.004,911.064 419.536,910.344 419.536,909.356 C419.536,908.737 419.686,908.168 420.155,906.277 C420.256,905.959 420.256,905.925 420.574,905.557 C421.21,904.821 421.963,904.452 422.565,904.452 C423.218,904.452 423.787,904.938 423.787,906.076 C423.787,906.762 423.419,908.469 422.917,909.44 C422.515,910.26 421.678,911.064 420.825,911.064 z" fill="#4E4E4E"/>
      <path d="M432.694,911.448 L432.192,911.448 C432.156,911.675 432.036,912.416 431.845,912.536 C431.75,912.608 430.745,912.608 430.566,912.608 L428.223,912.608 C429.012,912.022 429.897,911.352 430.614,910.874 C431.69,910.133 432.694,909.439 432.694,908.172 C432.694,906.642 431.247,905.793 429.538,905.793 C427.924,905.793 426.74,906.726 426.74,907.897 C426.74,908.519 427.266,908.626 427.434,908.626 C427.757,908.626 428.139,908.411 428.139,907.921 C428.139,907.491 427.828,907.252 427.458,907.216 C427.792,906.678 428.486,906.319 429.287,906.319 C430.446,906.319 431.415,907.013 431.415,908.184 C431.415,909.188 430.721,909.953 429.801,910.731 L426.884,913.205 C426.764,913.313 426.752,913.313 426.74,913.397 L426.74,913.755 L432.299,913.755 z" fill="#4E4E4E"/>
      <path d="M439.402,900.251 C439.419,900.218 439.469,900 439.469,899.984 C439.469,899.9 439.402,899.749 439.201,899.749 C438.867,899.749 437.477,899.883 437.059,899.917 C436.925,899.933 436.691,899.95 436.691,900.302 C436.691,900.536 436.925,900.536 437.126,900.536 C437.929,900.536 437.929,900.653 437.929,900.787 C437.929,900.904 437.762,901.574 437.662,901.959 L437.277,903.498 C437.126,904.067 436.205,907.733 436.172,907.95 C436.088,908.352 436.088,908.57 436.088,908.771 C436.088,910.461 437.159,911.532 438.549,911.532 C440.641,911.532 442.867,909.256 442.867,906.779 C442.867,904.821 441.511,903.984 440.356,903.984 C439.486,903.984 438.749,904.469 438.247,904.904 z M438.565,911.064 C437.745,911.064 437.277,910.344 437.277,909.356 C437.277,908.737 437.427,908.168 437.896,906.277 C437.996,905.959 437.996,905.925 438.314,905.557 C438.95,904.821 439.704,904.452 440.306,904.452 C440.959,904.452 441.528,904.938 441.528,906.076 C441.528,906.762 441.16,908.469 440.658,909.44 C440.256,910.26 439.419,911.064 438.565,911.064 z" fill="#4E4E4E"/>
      <path d="M447.336,909.798 C448.436,909.798 449.165,910.48 449.165,911.663 C449.165,912.883 448.412,913.528 447.348,913.528 C447.216,913.528 445.794,913.528 445.184,912.906 C445.674,912.835 445.818,912.464 445.818,912.177 C445.818,911.735 445.483,911.448 445.088,911.448 C444.706,911.448 444.347,911.699 444.347,912.201 C444.347,913.444 445.758,914.018 447.384,914.018 C449.344,914.018 450.564,912.835 450.564,911.675 C450.564,910.695 449.691,909.858 448.328,909.547 C449.763,909.081 450.145,908.172 450.145,907.503 C450.145,906.522 448.926,905.793 447.42,905.793 C445.949,905.793 444.766,906.415 444.766,907.491 C444.766,908.053 445.22,908.196 445.447,908.196 C445.794,908.196 446.129,907.945 446.129,907.515 C446.129,907.24 445.985,906.905 445.555,906.833 C446.069,906.283 447.133,906.247 447.384,906.247 C448.257,906.247 448.878,906.69 448.878,907.503 C448.878,908.196 448.424,909.284 447.169,909.356 C446.834,909.368 446.786,909.38 446.475,909.392 C446.344,909.404 446.212,909.416 446.212,909.595 C446.212,909.798 446.332,909.798 446.547,909.798 z" fill="#4E4E4E"/>
    </g>
  </g>
</svg>
